<svg width="328" height="249" viewBox="0 0 328 249" fill="none" xmlns="http://www.w3.org/2000/svg">
<path d="M0.567627 1.13086H326.247" stroke="#CECECE" stroke-width="1.08865" stroke-dasharray="4.35 2.18"/>
<path d="M0.567871 41.4106H326.247" stroke="#CECECE" stroke-width="1.08865" stroke-dasharray="4.35 2.18"/>
<path d="M0.567871 81.6904H326.247" stroke="#CECECE" stroke-width="1.08865" stroke-dasharray="4.35 2.18"/>
<path d="M0.567871 162.25H326.247" stroke="#CECECE" stroke-width="1.08865" stroke-dasharray="4.35 2.18"/>
<path d="M0.567871 202.53H326.247" stroke="#CECECE" stroke-width="1.08865" stroke-dasharray="4.35 2.18"/>
<path d="M0.567871 121.97H326.247" stroke="#CECECE" stroke-width="1.08865" stroke-dasharray="4.35 2.18"/>
<rect x="0.567871" y="153.541" width="34.814" height="50.0778" rx="6.53188" fill="#FF694A"/>
<rect x="175.761" y="31.6128" width="34.814" height="172.006" rx="6.53188" fill="#FF694A"/>
<rect x="117.363" y="116.527" width="34.814" height="87.0918" rx="6.53188" fill="#5051F9"/>
<rect x="292.556" y="59.9175" width="34.814" height="143.701" rx="6.53188" fill="#1EA7FF"/>
<rect x="58.9651" y="41.4106" width="34.814" height="162.208" rx="6.53188" fill="#1EA7FF"/>
<rect x="234.158" y="78.4248" width="34.814" height="125.194" rx="6.53188" fill="#5051F9"/>
<path d="M52.8046 240.089C52.8046 243.079 50.299 245.532 47.1723 245.532C44.0455 245.532 41.5399 243.079 41.5399 240.089C41.5399 237.098 44.0455 234.645 47.1723 234.645C50.299 234.645 52.8046 237.098 52.8046 240.089Z" stroke="#D5D5FD" stroke-width="1.08865"/>
<ellipse cx="47.1718" cy="240.089" rx="2.80758" ry="2.72162" fill="#5051F9"/>
<path d="M63.2876 244.924V235.779H64.8292L67.9122 241.958L70.9691 235.779H72.5107V244.924H71.2043V238.065L68.4086 243.657H67.4027L64.594 238.091V244.924H63.2876ZM77.3382 245.081C76.7112 245.081 76.1538 244.937 75.6661 244.649C75.1784 244.362 74.7951 243.961 74.5165 243.448C74.2465 242.925 74.1115 242.32 74.1115 241.632C74.1115 240.926 74.2465 240.312 74.5165 239.79C74.7951 239.267 75.1784 238.862 75.6661 238.575C76.1538 238.279 76.7155 238.131 77.3513 238.131C78.0045 238.131 78.5619 238.274 79.0235 238.562C79.485 238.849 79.8378 239.232 80.0816 239.711C80.3342 240.19 80.4605 240.722 80.4605 241.305C80.4605 241.392 80.4561 241.488 80.4474 241.593C80.4474 241.688 80.443 241.797 80.4343 241.919H75.0782V240.992H79.1541C79.1367 240.434 78.9581 239.999 78.6185 239.685C78.2788 239.372 77.8521 239.215 77.3382 239.215C76.9899 239.215 76.6676 239.298 76.3715 239.463C76.0754 239.62 75.8359 239.855 75.653 240.169C75.4788 240.482 75.3917 240.878 75.3917 241.357V241.723C75.3917 242.22 75.4788 242.638 75.653 242.977C75.8359 243.308 76.071 243.561 76.3584 243.735C76.6546 243.909 76.9812 243.996 77.3382 243.996C77.7563 243.996 78.1003 243.905 78.3703 243.722C78.6402 243.539 78.8362 243.295 78.9581 242.99H80.2776C80.1556 243.382 79.9597 243.739 79.6897 244.062C79.4284 244.375 79.0975 244.623 78.6969 244.806C78.3049 244.989 77.8521 245.081 77.3382 245.081ZM84.8254 245.081C84.1983 245.081 83.6453 244.933 83.1663 244.636C82.696 244.332 82.3259 243.918 82.0559 243.395C81.7946 242.864 81.664 242.268 81.664 241.606C81.664 240.935 81.7946 240.338 82.0559 239.816C82.3259 239.293 82.7004 238.884 83.1794 238.588C83.6671 238.283 84.2245 238.131 84.8515 238.131C85.3654 238.131 85.8139 238.235 86.1971 238.444C86.589 238.645 86.8938 238.928 87.1116 239.293V235.518H88.4179V244.924H87.2422L87.1116 243.892C86.9809 244.101 86.8111 244.297 86.6021 244.48C86.393 244.654 86.1405 244.798 85.8444 244.911C85.557 245.024 85.2173 245.081 84.8254 245.081ZM85.0475 243.944C85.4568 243.944 85.8139 243.848 86.1187 243.657C86.4322 243.456 86.6717 243.182 86.8372 242.834C87.0114 242.485 87.0985 242.076 87.0985 241.606C87.0985 241.135 87.0114 240.726 86.8372 240.378C86.6717 240.029 86.4322 239.759 86.1187 239.568C85.8139 239.367 85.4568 239.267 85.0475 239.267C84.6556 239.267 84.3028 239.367 83.9893 239.568C83.6758 239.759 83.4319 240.029 83.2577 240.378C83.0836 240.726 82.9965 241.135 82.9965 241.606C82.9965 242.076 83.0836 242.485 83.2577 242.834C83.4319 243.182 83.6758 243.456 83.9893 243.657C84.3028 243.848 84.6556 243.944 85.0475 243.944ZM90.3091 244.924V238.287H91.6155V244.924H90.3091ZM90.9623 237.059C90.7097 237.059 90.5007 236.981 90.3352 236.824C90.1785 236.668 90.1001 236.467 90.1001 236.223C90.1001 235.988 90.1785 235.797 90.3352 235.649C90.5007 235.492 90.7097 235.413 90.9623 235.413C91.2062 235.413 91.4108 235.492 91.5763 235.649C91.7418 235.797 91.8245 235.988 91.8245 236.223C91.8245 236.467 91.7418 236.668 91.5763 236.824C91.4108 236.981 91.2062 237.059 90.9623 237.059ZM95.6649 245.081C95.125 245.081 94.6765 244.989 94.3194 244.806C93.971 244.615 93.7097 244.366 93.5356 244.062C93.3614 243.748 93.2743 243.408 93.2743 243.043C93.2743 242.607 93.3831 242.237 93.6009 241.932C93.8273 241.627 94.1496 241.392 94.5676 241.227C94.9943 241.053 95.4995 240.966 96.083 240.966H97.7813C97.7813 240.574 97.7247 240.251 97.6114 239.999C97.5069 239.738 97.3415 239.542 97.115 239.411C96.8973 239.28 96.6142 239.215 96.2659 239.215C95.8827 239.215 95.5517 239.311 95.273 239.502C95.0031 239.685 94.8332 239.96 94.7635 240.325H93.4572C93.5094 239.864 93.6662 239.472 93.9275 239.15C94.1887 238.819 94.524 238.566 94.9334 238.392C95.3514 238.218 95.7999 238.131 96.2789 238.131C96.8886 238.131 97.4024 238.24 97.8205 238.457C98.2385 238.675 98.552 238.984 98.7611 239.385C98.9788 239.777 99.0877 240.247 99.0877 240.796V244.924H97.9511L97.8335 243.8C97.7464 243.983 97.6332 244.153 97.4939 244.31C97.3632 244.467 97.2108 244.602 97.0366 244.715C96.8625 244.828 96.6578 244.915 96.4226 244.976C96.1962 245.046 95.9436 245.081 95.6649 245.081ZM95.9132 244.022C96.1919 244.022 96.4401 243.966 96.6578 243.853C96.8842 243.731 97.0758 243.574 97.2326 243.382C97.3981 243.182 97.5244 242.96 97.6114 242.716C97.6985 242.472 97.7464 242.215 97.7552 241.945V241.893H96.2006C95.8348 241.893 95.5343 241.941 95.2992 242.037C95.0727 242.124 94.9073 242.25 94.8027 242.416C94.6982 242.572 94.646 242.755 94.646 242.964C94.646 243.182 94.6939 243.369 94.7897 243.526C94.8942 243.683 95.0379 243.805 95.2208 243.892C95.4124 243.979 95.6432 244.022 95.9132 244.022Z" fill="#232360"/>
<path d="M146.018 240.089C146.018 243.079 143.512 245.532 140.385 245.532C137.259 245.532 134.753 243.079 134.753 240.089C134.753 237.098 137.259 234.645 140.385 234.645C143.512 234.645 146.018 237.098 146.018 240.089Z" stroke="#CAEAFF" stroke-width="1.08865"/>
<ellipse cx="140.385" cy="240.089" rx="2.80758" ry="2.72162" fill="#1EA7FF"/>
<path d="M156.499 244.924V235.779H159.622C160.353 235.779 160.954 235.901 161.424 236.145C161.895 236.389 162.243 236.72 162.469 237.138C162.696 237.547 162.809 238.013 162.809 238.536C162.809 239.041 162.696 239.502 162.469 239.92C162.252 240.33 161.908 240.661 161.437 240.913C160.967 241.157 160.362 241.279 159.622 241.279H157.806V244.924H156.499ZM157.806 240.195H159.569C160.257 240.195 160.745 240.047 161.032 239.751C161.329 239.446 161.477 239.041 161.477 238.536C161.477 238.004 161.329 237.595 161.032 237.308C160.745 237.012 160.257 236.863 159.569 236.863H157.806V240.195ZM164.178 244.924V235.518H165.485V239.359C165.702 238.975 166.003 238.675 166.386 238.457C166.769 238.24 167.196 238.131 167.666 238.131C168.189 238.131 168.637 238.235 169.012 238.444C169.386 238.653 169.674 238.971 169.874 239.398C170.074 239.816 170.174 240.343 170.174 240.979V244.924H168.881V241.109C168.881 240.5 168.746 240.038 168.476 239.724C168.215 239.402 167.832 239.241 167.327 239.241C166.987 239.241 166.673 239.324 166.386 239.489C166.107 239.655 165.885 239.894 165.72 240.208C165.563 240.521 165.485 240.905 165.485 241.357V244.924H164.178ZM174.875 245.081C174.257 245.081 173.7 244.937 173.203 244.649C172.715 244.362 172.328 243.957 172.04 243.435C171.762 242.912 171.622 242.302 171.622 241.606C171.622 240.909 171.766 240.299 172.054 239.777C172.341 239.254 172.733 238.849 173.229 238.562C173.726 238.274 174.283 238.131 174.901 238.131C175.529 238.131 176.086 238.274 176.574 238.562C177.07 238.849 177.458 239.254 177.736 239.777C178.024 240.299 178.167 240.909 178.167 241.606C178.167 242.302 178.024 242.912 177.736 243.435C177.449 243.957 177.057 244.362 176.561 244.649C176.073 244.937 175.511 245.081 174.875 245.081ZM174.888 243.957C175.245 243.957 175.568 243.87 175.855 243.696C176.151 243.522 176.386 243.26 176.561 242.912C176.743 242.555 176.835 242.119 176.835 241.606C176.835 241.083 176.748 240.648 176.574 240.299C176.399 239.951 176.164 239.69 175.868 239.515C175.581 239.341 175.259 239.254 174.901 239.254C174.553 239.254 174.231 239.341 173.935 239.515C173.639 239.69 173.399 239.951 173.216 240.299C173.042 240.648 172.955 241.083 172.955 241.606C172.955 242.119 173.042 242.555 173.216 242.912C173.399 243.26 173.634 243.522 173.922 243.696C174.218 243.87 174.54 243.957 174.888 243.957ZM182.166 244.924C181.757 244.924 181.395 244.859 181.082 244.728C180.777 244.597 180.542 244.38 180.376 244.075C180.22 243.77 180.141 243.356 180.141 242.834V239.385H178.992V238.287H180.141L180.298 236.615H181.448V238.287H183.316V239.385H181.448V242.847C181.448 243.221 181.522 243.478 181.67 243.617C181.827 243.748 182.097 243.813 182.48 243.813H183.251V244.924H182.166ZM187.595 245.081C186.976 245.081 186.419 244.937 185.922 244.649C185.435 244.362 185.047 243.957 184.76 243.435C184.481 242.912 184.342 242.302 184.342 241.606C184.342 240.909 184.485 240.299 184.773 239.777C185.06 239.254 185.452 238.849 185.949 238.562C186.445 238.274 187.002 238.131 187.621 238.131C188.248 238.131 188.805 238.274 189.293 238.562C189.789 238.849 190.177 239.254 190.456 239.777C190.743 240.299 190.887 240.909 190.887 241.606C190.887 242.302 190.743 242.912 190.456 243.435C190.168 243.957 189.776 244.362 189.28 244.649C188.792 244.937 188.23 245.081 187.595 245.081ZM187.608 243.957C187.965 243.957 188.287 243.87 188.574 243.696C188.871 243.522 189.106 243.26 189.28 242.912C189.463 242.555 189.554 242.119 189.554 241.606C189.554 241.083 189.467 240.648 189.293 240.299C189.119 239.951 188.884 239.69 188.587 239.515C188.3 239.341 187.978 239.254 187.621 239.254C187.272 239.254 186.95 239.341 186.654 239.515C186.358 239.69 186.118 239.951 185.936 240.299C185.761 240.648 185.674 241.083 185.674 241.606C185.674 242.119 185.761 242.555 185.936 242.912C186.118 243.26 186.354 243.522 186.641 243.696C186.937 243.87 187.259 243.957 187.608 243.957ZM194.971 245.081C194.396 245.081 193.9 244.989 193.482 244.806C193.064 244.615 192.733 244.353 192.489 244.022C192.254 243.691 192.114 243.308 192.071 242.873H193.39C193.434 243.082 193.516 243.273 193.638 243.448C193.769 243.622 193.943 243.761 194.161 243.866C194.379 243.97 194.649 244.022 194.971 244.022C195.25 244.022 195.48 243.983 195.663 243.905C195.855 243.818 195.994 243.705 196.081 243.565C196.177 243.417 196.225 243.256 196.225 243.082C196.225 242.838 196.164 242.651 196.042 242.52C195.929 242.389 195.755 242.285 195.52 242.207C195.293 242.128 195.014 242.063 194.683 242.011C194.37 241.95 194.069 241.876 193.782 241.789C193.495 241.701 193.238 241.588 193.011 241.449C192.794 241.301 192.619 241.118 192.489 240.9C192.367 240.674 192.306 240.408 192.306 240.103C192.306 239.72 192.406 239.38 192.606 239.084C192.807 238.788 193.094 238.557 193.469 238.392C193.843 238.218 194.287 238.131 194.801 238.131C195.541 238.131 196.134 238.305 196.578 238.653C197.022 238.993 197.279 239.481 197.348 240.116H196.094C196.051 239.829 195.916 239.607 195.689 239.45C195.463 239.285 195.162 239.202 194.788 239.202C194.405 239.202 194.113 239.276 193.913 239.424C193.712 239.572 193.612 239.768 193.612 240.012C193.612 240.169 193.664 240.312 193.769 240.443C193.882 240.565 194.048 240.674 194.265 240.77C194.492 240.857 194.775 240.931 195.115 240.992C195.585 241.07 196.003 241.175 196.369 241.305C196.734 241.436 197.022 241.632 197.231 241.893C197.449 242.154 197.557 242.52 197.557 242.99C197.557 243.408 197.449 243.774 197.231 244.088C197.022 244.401 196.721 244.645 196.329 244.819C195.946 244.994 195.493 245.081 194.971 245.081Z" fill="#232360"/>
<path d="M244.845 240.089C244.845 243.079 242.339 245.532 239.213 245.532C236.086 245.532 233.58 243.079 233.58 240.089C233.58 237.098 236.086 234.645 239.213 234.645C242.339 234.645 244.845 237.098 244.845 240.089Z" stroke="#FFE7E2" stroke-width="1.08865"/>
<ellipse cx="239.212" cy="240.089" rx="2.80758" ry="2.72162" fill="#FF694A"/>
<path d="M255.326 244.924V235.779H258.082C259.145 235.779 260.02 235.966 260.708 236.341C261.405 236.715 261.919 237.247 262.25 237.935C262.589 238.614 262.759 239.424 262.759 240.365C262.759 241.305 262.589 242.115 262.25 242.794C261.919 243.474 261.405 244.001 260.708 244.375C260.02 244.741 259.145 244.924 258.082 244.924H255.326ZM256.632 243.826H258.03C258.875 243.826 259.546 243.687 260.042 243.408C260.538 243.13 260.891 242.733 261.1 242.22C261.309 241.697 261.414 241.079 261.414 240.365C261.414 239.642 261.309 239.019 261.1 238.496C260.891 237.974 260.538 237.573 260.042 237.295C259.546 237.016 258.875 236.877 258.03 236.877H256.632V243.826ZM267.285 245.081C266.667 245.081 266.109 244.937 265.613 244.649C265.125 244.362 264.737 243.957 264.45 243.435C264.171 242.912 264.032 242.302 264.032 241.606C264.032 240.909 264.176 240.299 264.463 239.777C264.751 239.254 265.142 238.849 265.639 238.562C266.135 238.274 266.693 238.131 267.311 238.131C267.938 238.131 268.496 238.274 268.983 238.562C269.48 238.849 269.867 239.254 270.146 239.777C270.433 240.299 270.577 240.909 270.577 241.606C270.577 242.302 270.433 242.912 270.146 243.435C269.858 243.957 269.467 244.362 268.97 244.649C268.482 244.937 267.921 245.081 267.285 245.081ZM267.298 243.957C267.655 243.957 267.977 243.87 268.265 243.696C268.561 243.522 268.796 243.26 268.97 242.912C269.153 242.555 269.244 242.119 269.244 241.606C269.244 241.083 269.157 240.648 268.983 240.299C268.809 239.951 268.574 239.69 268.278 239.515C267.99 239.341 267.668 239.254 267.311 239.254C266.963 239.254 266.64 239.341 266.344 239.515C266.048 239.69 265.809 239.951 265.626 240.299C265.452 240.648 265.365 241.083 265.365 241.606C265.365 242.119 265.452 242.555 265.626 242.912C265.809 243.26 266.044 243.522 266.331 243.696C266.627 243.87 266.95 243.957 267.298 243.957ZM275.145 245.081C274.517 245.081 273.951 244.937 273.446 244.649C272.95 244.353 272.558 243.944 272.27 243.421C271.992 242.899 271.852 242.298 271.852 241.619C271.852 240.922 271.992 240.317 272.27 239.803C272.558 239.28 272.95 238.871 273.446 238.575C273.951 238.279 274.522 238.131 275.158 238.131C275.95 238.131 276.616 238.34 277.156 238.758C277.696 239.176 278.04 239.742 278.188 240.456H276.83C276.743 240.082 276.542 239.79 276.229 239.581C275.924 239.363 275.558 239.254 275.131 239.254C274.774 239.254 274.448 239.346 274.152 239.528C273.864 239.703 273.629 239.964 273.446 240.312C273.272 240.661 273.185 241.092 273.185 241.606C273.185 241.989 273.237 242.328 273.342 242.625C273.446 242.921 273.586 243.169 273.76 243.369C273.934 243.57 274.139 243.722 274.374 243.826C274.618 243.922 274.87 243.97 275.131 243.97C275.419 243.97 275.676 243.922 275.902 243.826C276.137 243.731 276.338 243.591 276.503 243.408C276.669 243.226 276.777 243.008 276.83 242.755H278.188C278.04 243.452 277.696 244.014 277.156 244.44C276.616 244.867 275.946 245.081 275.145 245.081ZM282.29 245.081C281.715 245.081 281.219 244.989 280.801 244.806C280.383 244.615 280.052 244.353 279.808 244.022C279.573 243.691 279.434 243.308 279.39 242.873H280.709C280.753 243.082 280.836 243.273 280.958 243.448C281.088 243.622 281.263 243.761 281.48 243.866C281.698 243.97 281.968 244.022 282.29 244.022C282.569 244.022 282.8 243.983 282.983 243.905C283.174 243.818 283.314 243.705 283.401 243.565C283.496 243.417 283.544 243.256 283.544 243.082C283.544 242.838 283.483 242.651 283.361 242.52C283.248 242.389 283.074 242.285 282.839 242.207C282.612 242.128 282.334 242.063 282.003 242.011C281.689 241.95 281.389 241.876 281.101 241.789C280.814 241.701 280.557 241.588 280.331 241.449C280.113 241.301 279.939 241.118 279.808 240.9C279.686 240.674 279.625 240.408 279.625 240.103C279.625 239.72 279.725 239.38 279.926 239.084C280.126 238.788 280.413 238.557 280.788 238.392C281.162 238.218 281.607 238.131 282.12 238.131C282.861 238.131 283.453 238.305 283.897 238.653C284.341 238.993 284.598 239.481 284.668 240.116H283.414C283.37 239.829 283.235 239.607 283.009 239.45C282.782 239.285 282.482 239.202 282.107 239.202C281.724 239.202 281.432 239.276 281.232 239.424C281.032 239.572 280.932 239.768 280.932 240.012C280.932 240.169 280.984 240.312 281.088 240.443C281.202 240.565 281.367 240.674 281.585 240.77C281.811 240.857 282.094 240.931 282.434 240.992C282.904 241.07 283.322 241.175 283.688 241.305C284.054 241.436 284.341 241.632 284.55 241.893C284.768 242.154 284.877 242.52 284.877 242.99C284.877 243.408 284.768 243.774 284.55 244.088C284.341 244.401 284.041 244.645 283.649 244.819C283.266 244.994 282.813 245.081 282.29 245.081Z" fill="#232360"/>
</svg>
