<svg width="178" height="50" viewBox="0 0 178 50" fill="none" xmlns="http://www.w3.org/2000/svg">
<rect width="178" height="50" rx="5" fill="#5A48F9"/>
<path d="M27.652 15.4653C27.4226 15.2104 27.0995 15.0557 26.75 15.0557C26.4005 15.0557 26.0774 15.2104 25.848 15.4653C25.6202 15.7184 25.5 16.0514 25.5 16.389V23.9446H18.75C18.4005 23.9446 18.0774 24.0993 17.848 24.3541C17.6202 24.6073 17.5 24.9403 17.5 25.2779C17.5 25.6155 17.6202 25.9485 17.848 26.2016C18.0774 26.4565 18.4005 26.6112 18.75 26.6112H25.5V34.1668C25.5 34.5044 25.6202 34.8374 25.848 35.0905C26.0774 35.3454 26.4005 35.5001 26.75 35.5001C27.0995 35.5001 27.4226 35.3454 27.652 35.0905C27.8798 34.8374 28 34.5044 28 34.1668V26.6112H34.75C35.0995 26.6112 35.4226 26.4565 35.652 26.2016C35.8798 25.9485 36 25.6155 36 25.2779C36 24.9403 35.8798 24.6073 35.652 24.3541C35.4226 24.0993 35.0995 23.9446 34.75 23.9446H28V16.389C28 16.0514 27.8798 15.7184 27.652 15.4653Z" fill="white" stroke="white"/>
<path d="M49.2709 20.64H50.9669L55.3829 32H53.4949L52.2949 28.912H47.9109L46.7269 32H44.8229L49.2709 20.64ZM51.9429 27.584L50.1189 22.608L48.2309 27.584H51.9429ZM55.8014 27.824C55.8014 27.024 55.9614 26.2987 56.2814 25.648C56.6121 24.9867 57.0601 24.464 57.6254 24.08C58.1908 23.6853 58.8414 23.488 59.5774 23.488C60.2174 23.488 60.7934 23.6533 61.3054 23.984C61.8281 24.3147 62.2334 24.7253 62.5214 25.216V20.32H64.2814V30.016C64.2814 30.2187 64.3188 30.3627 64.3934 30.448C64.4681 30.5333 64.5908 30.5813 64.7614 30.592V32C64.4308 32.0533 64.1748 32.08 63.9934 32.08C63.6628 32.08 63.3801 31.984 63.1454 31.792C62.9214 31.6 62.8041 31.3707 62.7934 31.104L62.7774 30.48C62.4574 31.0133 62.0254 31.4293 61.4814 31.728C60.9374 32.016 60.3721 32.16 59.7854 32.16C59.2094 32.16 58.6761 32.048 58.1854 31.824C57.7054 31.6 57.2841 31.2853 56.9214 30.88C56.5694 30.4747 56.2921 30.0107 56.0894 29.488C55.8974 28.9653 55.8014 28.4107 55.8014 27.824ZM62.5214 28.992V26.8C62.4041 26.4587 62.2121 26.1547 61.9454 25.888C61.6894 25.6107 61.3961 25.392 61.0654 25.232C60.7454 25.072 60.4254 24.992 60.1054 24.992C59.7321 24.992 59.3908 25.072 59.0814 25.232C58.7828 25.392 58.5214 25.6053 58.2974 25.872C58.0841 26.1387 57.9188 26.4427 57.8014 26.784C57.6841 27.1253 57.6254 27.4827 57.6254 27.856C57.6254 28.24 57.6894 28.6027 57.8174 28.944C57.9454 29.2747 58.1268 29.5733 58.3614 29.84C58.6068 30.096 58.8841 30.2987 59.1934 30.448C59.5134 30.5867 59.8601 30.656 60.2334 30.656C60.4681 30.656 60.7028 30.6133 60.9374 30.528C61.1828 30.4427 61.4121 30.3253 61.6254 30.176C61.8494 30.0267 62.0361 29.8507 62.1854 29.648C62.3454 29.4453 62.4574 29.2267 62.5214 28.992ZM65.9889 27.824C65.9889 27.024 66.1489 26.2987 66.4689 25.648C66.7996 24.9867 67.2476 24.464 67.8129 24.08C68.3783 23.6853 69.0289 23.488 69.7649 23.488C70.4049 23.488 70.9809 23.6533 71.4929 23.984C72.0156 24.3147 72.4209 24.7253 72.7089 25.216V20.32H74.4689V30.016C74.4689 30.2187 74.5063 30.3627 74.5809 30.448C74.6556 30.5333 74.7783 30.5813 74.9489 30.592V32C74.6183 32.0533 74.3623 32.08 74.1809 32.08C73.8503 32.08 73.5676 31.984 73.3329 31.792C73.1089 31.6 72.9916 31.3707 72.9809 31.104L72.9649 30.48C72.6449 31.0133 72.2129 31.4293 71.6689 31.728C71.1249 32.016 70.5596 32.16 69.9729 32.16C69.3969 32.16 68.8636 32.048 68.3729 31.824C67.8929 31.6 67.4716 31.2853 67.1089 30.88C66.7569 30.4747 66.4796 30.0107 66.2769 29.488C66.0849 28.9653 65.9889 28.4107 65.9889 27.824ZM72.7089 28.992V26.8C72.5916 26.4587 72.3996 26.1547 72.1329 25.888C71.8769 25.6107 71.5836 25.392 71.2529 25.232C70.9329 25.072 70.6129 24.992 70.2929 24.992C69.9196 24.992 69.5783 25.072 69.2689 25.232C68.9703 25.392 68.7089 25.6053 68.4849 25.872C68.2716 26.1387 68.1063 26.4427 67.9889 26.784C67.8716 27.1253 67.8129 27.4827 67.8129 27.856C67.8129 28.24 67.8769 28.6027 68.0049 28.944C68.1329 29.2747 68.3143 29.5733 68.5489 29.84C68.7943 30.096 69.0716 30.2987 69.3809 30.448C69.7009 30.5867 70.0476 30.656 70.4209 30.656C70.6556 30.656 70.8903 30.6133 71.1249 30.528C71.3703 30.4427 71.5996 30.3253 71.8129 30.176C72.0369 30.0267 72.2236 29.8507 72.3729 29.648C72.5329 29.4453 72.6449 29.2267 72.7089 28.992ZM82.6736 23.968V32H80.8816V20.64H82.3536L88.7856 28.848V20.656H90.5936V32H89.0256L82.6736 23.968ZM96.5746 32.16C95.9239 32.16 95.3319 32.048 94.7986 31.824C94.2759 31.5893 93.8226 31.2747 93.4386 30.88C93.0546 30.4747 92.7559 30.016 92.5426 29.504C92.3399 28.9813 92.2386 28.4267 92.2386 27.84C92.2386 27.0507 92.4199 26.3307 92.7826 25.68C93.1452 25.0187 93.6519 24.4907 94.3026 24.096C94.9532 23.6907 95.7159 23.488 96.5906 23.488C97.4652 23.488 98.2172 23.6907 98.8466 24.096C99.4866 24.4907 99.9826 25.0133 100.335 25.664C100.687 26.3147 100.863 27.0133 100.863 27.76C100.863 27.888 100.857 28.0107 100.847 28.128C100.836 28.2347 100.825 28.3253 100.815 28.4H94.1106C94.1426 28.8907 94.2759 29.3227 94.5106 29.696C94.7559 30.0587 95.0652 30.3467 95.4386 30.56C95.8119 30.7627 96.2119 30.864 96.6386 30.864C97.1079 30.864 97.5506 30.7467 97.9666 30.512C98.3932 30.2773 98.6812 29.968 98.8306 29.584L100.335 30.016C100.153 30.4213 99.8759 30.7893 99.5026 31.12C99.1399 31.44 98.7079 31.696 98.2066 31.888C97.7052 32.0693 97.1612 32.16 96.5746 32.16ZM94.0626 27.232H99.1186C99.0866 26.752 98.9479 26.3307 98.7026 25.968C98.4679 25.5947 98.1639 25.3067 97.7906 25.104C97.4279 24.8907 97.0226 24.784 96.5746 24.784C96.1372 24.784 95.7319 24.8907 95.3586 25.104C94.9959 25.3067 94.6972 25.5947 94.4626 25.968C94.2279 26.3307 94.0946 26.752 94.0626 27.232ZM112.496 23.632H114.176L110.656 32H109.152L107.648 28.224L106.144 32H104.64L101.104 23.632H102.784L105.472 30.288L106.656 27.2L105.216 23.648H106.704L107.648 26.256L108.576 23.648H110.064L108.64 27.2L109.824 30.288L112.496 23.632ZM118.349 26.24C118.349 25.5467 118.472 24.8693 118.717 24.208C118.962 23.536 119.32 22.928 119.789 22.384C120.269 21.8293 120.85 21.392 121.533 21.072C122.216 20.7413 122.989 20.576 123.853 20.576C124.877 20.576 125.762 20.8107 126.509 21.28C127.256 21.7387 127.81 22.3307 128.173 23.056L126.765 24C126.552 23.5413 126.28 23.1787 125.949 22.912C125.629 22.6453 125.277 22.4587 124.893 22.352C124.52 22.2453 124.152 22.192 123.789 22.192C123.192 22.192 122.669 22.3147 122.221 22.56C121.773 22.7947 121.394 23.1093 121.085 23.504C120.786 23.8987 120.557 24.3413 120.397 24.832C120.248 25.3227 120.173 25.8133 120.173 26.304C120.173 26.848 120.264 27.376 120.445 27.888C120.626 28.3893 120.877 28.8373 121.197 29.232C121.528 29.616 121.917 29.92 122.365 30.144C122.813 30.368 123.304 30.48 123.837 30.48C124.2 30.48 124.578 30.416 124.973 30.288C125.368 30.16 125.73 29.9627 126.061 29.696C126.402 29.4187 126.669 29.056 126.861 28.608L128.349 29.456C128.114 30.0213 127.746 30.5013 127.245 30.896C126.754 31.2907 126.2 31.5893 125.581 31.792C124.973 31.9947 124.37 32.096 123.773 32.096C122.973 32.096 122.242 31.9307 121.581 31.6C120.92 31.2587 120.349 30.8107 119.869 30.256C119.389 29.6907 119.016 29.0613 118.749 28.368C118.482 27.664 118.349 26.9547 118.349 26.24ZM129.799 20.32H131.559V29.584C131.559 30.0107 131.623 30.2827 131.751 30.4C131.879 30.5173 132.039 30.576 132.231 30.576C132.444 30.576 132.641 30.5547 132.823 30.512C133.015 30.4693 133.18 30.416 133.319 30.352L133.575 31.744C133.319 31.8507 133.015 31.9413 132.663 32.016C132.311 32.0907 131.996 32.128 131.719 32.128C131.121 32.128 130.652 31.9627 130.311 31.632C129.969 31.2907 129.799 30.8213 129.799 30.224V20.32ZM134.595 32V23.632H136.355V32H134.595ZM134.595 22.256V20.32H136.355V22.256H134.595ZM142.262 32.16C141.611 32.16 141.019 32.048 140.486 31.824C139.963 31.5893 139.51 31.2747 139.126 30.88C138.742 30.4747 138.443 30.016 138.23 29.504C138.027 28.9813 137.926 28.4267 137.926 27.84C137.926 27.0507 138.107 26.3307 138.47 25.68C138.833 25.0187 139.339 24.4907 139.99 24.096C140.641 23.6907 141.403 23.488 142.278 23.488C143.153 23.488 143.905 23.6907 144.534 24.096C145.174 24.4907 145.67 25.0133 146.022 25.664C146.374 26.3147 146.55 27.0133 146.55 27.76C146.55 27.888 146.545 28.0107 146.534 28.128C146.523 28.2347 146.513 28.3253 146.502 28.4H139.798C139.83 28.8907 139.963 29.3227 140.198 29.696C140.443 30.0587 140.753 30.3467 141.126 30.56C141.499 30.7627 141.899 30.864 142.326 30.864C142.795 30.864 143.238 30.7467 143.654 30.512C144.081 30.2773 144.369 29.968 144.518 29.584L146.022 30.016C145.841 30.4213 145.563 30.7893 145.19 31.12C144.827 31.44 144.395 31.696 143.894 31.888C143.393 32.0693 142.849 32.16 142.262 32.16ZM139.75 27.232H144.806C144.774 26.752 144.635 26.3307 144.39 25.968C144.155 25.5947 143.851 25.3067 143.478 25.104C143.115 24.8907 142.71 24.784 142.262 24.784C141.825 24.784 141.419 24.8907 141.046 25.104C140.683 25.3067 140.385 25.5947 140.15 25.968C139.915 26.3307 139.782 26.752 139.75 27.232ZM155.49 32H153.73V27.312C153.73 26.5333 153.602 25.9627 153.346 25.6C153.1 25.2373 152.732 25.056 152.242 25.056C151.9 25.056 151.559 25.1413 151.218 25.312C150.887 25.4827 150.588 25.7173 150.322 26.016C150.055 26.304 149.863 26.64 149.746 27.024V32H147.986V23.632H149.586V25.312C149.799 24.9387 150.076 24.6187 150.418 24.352C150.77 24.0747 151.164 23.8613 151.602 23.712C152.039 23.5627 152.503 23.488 152.994 23.488C153.495 23.488 153.906 23.5787 154.226 23.76C154.556 23.9413 154.812 24.192 154.994 24.512C155.186 24.8213 155.314 25.184 155.378 25.6C155.452 26.0053 155.49 26.4373 155.49 26.896V32ZM162.126 31.568C161.977 31.6427 161.79 31.7227 161.566 31.808C161.342 31.8933 161.086 31.968 160.798 32.032C160.521 32.096 160.233 32.128 159.934 32.128C159.571 32.128 159.235 32.064 158.926 31.936C158.617 31.808 158.366 31.6053 158.174 31.328C157.993 31.04 157.902 30.672 157.902 30.224V24.992H156.798V23.632H157.902V20.88H159.662V23.632H161.486V24.992H159.662V29.664C159.683 29.952 159.774 30.1653 159.934 30.304C160.105 30.4427 160.313 30.512 160.558 30.512C160.803 30.512 161.038 30.4693 161.262 30.384C161.486 30.2987 161.651 30.2293 161.758 30.176L162.126 31.568Z" fill="white"/>
</svg>
