<svg width="53" height="52" viewBox="0 0 53 52" fill="none" xmlns="http://www.w3.org/2000/svg">
<rect x="0.5" y="0.5" width="52" height="51" rx="5.5" fill="white" stroke="#00AC4F"/>
<path d="M27.2526 16.0617C27.053 15.8621 26.7823 15.75 26.5 15.75M27.2526 16.0617L26.5 15.75M27.2526 16.0617C27.4522 16.2613 27.5643 16.532 27.5643 16.8143V24.4357M27.2526 16.0617L27.5643 24.4357M26.5 15.75C26.2177 15.75 25.947 15.8621 25.7474 16.0617C25.5478 16.2613 25.4357 16.532 25.4357 16.8143V24.4357H17.8143C17.532 24.4357 17.2613 24.5478 17.0617 24.7474C16.8621 24.947 16.75 25.2177 16.75 25.5C16.75 25.7823 16.8621 26.053 17.0617 26.2526C17.2613 26.4522 17.532 26.5643 17.8143 26.5643H25.4357V34.1857C25.4357 34.468 25.5478 34.7387 25.7474 34.9383C25.947 35.1379 26.2177 35.25 26.5 35.25C26.7823 35.25 27.053 35.1379 27.2526 34.9383C27.4522 34.7387 27.5643 34.468 27.5643 34.1857V26.5643H35.1857C35.468 26.5643 35.7387 26.4522 35.9383 26.2526C36.1379 26.053 36.25 25.7823 36.25 25.5C36.25 25.2177 36.1379 24.947 35.9383 24.7474C35.7387 24.5478 35.468 24.4357 35.1857 24.4357H27.5643M26.5 15.75L27.5643 24.4357" fill="#00AC4F" stroke="#00AC4F" stroke-width="0.5"/>
</svg>
