<svg width="146" height="50" viewBox="0 0 146 50" fill="none" xmlns="http://www.w3.org/2000/svg">
<rect x="0.25" y="0.25" width="145.5" height="49.5" rx="4.75" fill="white" stroke="#94A2BC" stroke-width="0.5"/>
<path d="M38.4996 16.0425C38.3113 15.8551 38.0562 15.75 37.7904 15.75C37.5246 15.75 37.2695 15.8551 37.0813 16.0425C36.893 16.2299 36.7869 16.4844 36.7869 16.75V23.75H29.7535C29.4877 23.75 29.2326 23.8551 29.0443 24.0425C28.856 24.2299 28.75 24.4844 28.75 24.75C28.75 25.0156 28.856 25.2701 29.0443 25.4575C29.2326 25.6449 29.4877 25.75 29.7535 25.75H36.7869V32.75C36.7869 33.0156 36.893 33.2701 37.0813 33.4575C37.2695 33.6449 37.5246 33.75 37.7904 33.75C38.0562 33.75 38.3113 33.6449 38.4996 33.4575C38.6879 33.2701 38.7939 33.0156 38.7939 32.75V25.75H45.8274C46.0931 25.75 46.3482 25.6449 46.5365 25.4575C46.7248 25.2701 46.8308 25.0156 46.8308 24.75C46.8308 24.4844 46.7248 24.2299 46.5365 24.0425C46.3482 23.8551 46.0931 23.75 45.8274 23.75H38.7939V16.75C38.7939 16.4844 38.6879 16.2299 38.4996 16.0425Z" fill="#333333" stroke="#333333" stroke-width="0.5"/>
<path d="M60.4981 20.48H61.7701L65.0821 29H63.6661L62.7661 26.684H59.4781L58.5901 29H57.1621L60.4981 20.48ZM62.5021 25.688L61.1341 21.956L59.7181 25.688H62.5021ZM65.396 25.868C65.396 25.268 65.516 24.724 65.756 24.236C66.004 23.74 66.34 23.348 66.764 23.06C67.188 22.764 67.676 22.616 68.228 22.616C68.708 22.616 69.14 22.74 69.524 22.988C69.916 23.236 70.22 23.544 70.436 23.912V20.24H71.756V27.512C71.756 27.664 71.784 27.772 71.84 27.836C71.896 27.9 71.988 27.936 72.116 27.944V29C71.868 29.04 71.676 29.06 71.54 29.06C71.292 29.06 71.08 28.988 70.904 28.844C70.736 28.7 70.648 28.528 70.64 28.328L70.628 27.86C70.388 28.26 70.064 28.572 69.656 28.796C69.248 29.012 68.824 29.12 68.384 29.12C67.952 29.12 67.552 29.036 67.184 28.868C66.824 28.7 66.508 28.464 66.236 28.16C65.972 27.856 65.764 27.508 65.612 27.116C65.468 26.724 65.396 26.308 65.396 25.868ZM70.436 26.744V25.1C70.348 24.844 70.204 24.616 70.004 24.416C69.812 24.208 69.592 24.044 69.344 23.924C69.104 23.804 68.864 23.744 68.624 23.744C68.344 23.744 68.088 23.804 67.856 23.924C67.632 24.044 67.436 24.204 67.268 24.404C67.108 24.604 66.984 24.832 66.896 25.088C66.808 25.344 66.764 25.612 66.764 25.892C66.764 26.18 66.812 26.452 66.908 26.708C67.004 26.956 67.14 27.18 67.316 27.38C67.5 27.572 67.708 27.724 67.94 27.836C68.18 27.94 68.44 27.992 68.72 27.992C68.896 27.992 69.072 27.96 69.248 27.896C69.432 27.832 69.604 27.744 69.764 27.632C69.932 27.52 70.072 27.388 70.184 27.236C70.304 27.084 70.388 26.92 70.436 26.744ZM73.0366 25.868C73.0366 25.268 73.1566 24.724 73.3966 24.236C73.6446 23.74 73.9806 23.348 74.4046 23.06C74.8286 22.764 75.3166 22.616 75.8686 22.616C76.3486 22.616 76.7806 22.74 77.1646 22.988C77.5566 23.236 77.8606 23.544 78.0766 23.912V20.24H79.3966V27.512C79.3966 27.664 79.4246 27.772 79.4806 27.836C79.5366 27.9 79.6286 27.936 79.7566 27.944V29C79.5086 29.04 79.3166 29.06 79.1806 29.06C78.9326 29.06 78.7206 28.988 78.5446 28.844C78.3766 28.7 78.2886 28.528 78.2806 28.328L78.2686 27.86C78.0286 28.26 77.7046 28.572 77.2966 28.796C76.8886 29.012 76.4646 29.12 76.0246 29.12C75.5926 29.12 75.1926 29.036 74.8246 28.868C74.4646 28.7 74.1486 28.464 73.8766 28.16C73.6126 27.856 73.4046 27.508 73.2526 27.116C73.1086 26.724 73.0366 26.308 73.0366 25.868ZM78.0766 26.744V25.1C77.9886 24.844 77.8446 24.616 77.6446 24.416C77.4526 24.208 77.2326 24.044 76.9846 23.924C76.7446 23.804 76.5046 23.744 76.2646 23.744C75.9846 23.744 75.7286 23.804 75.4966 23.924C75.2726 24.044 75.0766 24.204 74.9086 24.404C74.7486 24.604 74.6246 24.832 74.5366 25.088C74.4486 25.344 74.4046 25.612 74.4046 25.892C74.4046 26.18 74.4526 26.452 74.5486 26.708C74.6446 26.956 74.7806 27.18 74.9566 27.38C75.1406 27.572 75.3486 27.724 75.5806 27.836C75.8206 27.94 76.0806 27.992 76.3606 27.992C76.5366 27.992 76.7126 27.96 76.8886 27.896C77.0726 27.832 77.2446 27.744 77.4046 27.632C77.5726 27.52 77.7126 27.388 77.8246 27.236C77.9446 27.084 78.0286 26.92 78.0766 26.744ZM86.2911 20.48H87.5631L90.8751 29H89.4591L88.5591 26.684H85.2711L84.3831 29H82.9551L86.2911 20.48ZM88.2951 25.688L86.9271 21.956L85.5111 25.688H88.2951ZM93.899 29.12C93.371 29.12 92.871 29.036 92.399 28.868C91.927 28.692 91.523 28.432 91.187 28.088L91.679 27.2C92.039 27.52 92.399 27.752 92.759 27.896C93.127 28.04 93.491 28.112 93.851 28.112C94.219 28.112 94.519 28.044 94.751 27.908C94.983 27.764 95.099 27.556 95.099 27.284C95.099 27.084 95.039 26.936 94.919 26.84C94.799 26.744 94.623 26.66 94.391 26.588C94.167 26.516 93.895 26.436 93.575 26.348C93.127 26.212 92.751 26.072 92.447 25.928C92.143 25.776 91.915 25.592 91.763 25.376C91.611 25.16 91.535 24.884 91.535 24.548C91.535 24.14 91.639 23.792 91.847 23.504C92.055 23.216 92.343 22.996 92.711 22.844C93.087 22.692 93.519 22.616 94.007 22.616C94.463 22.616 94.883 22.688 95.267 22.832C95.659 22.968 96.003 23.184 96.299 23.48L95.735 24.356C95.455 24.1 95.167 23.912 94.871 23.792C94.583 23.672 94.271 23.612 93.935 23.612C93.743 23.612 93.559 23.636 93.383 23.684C93.207 23.724 93.059 23.804 92.939 23.924C92.827 24.036 92.771 24.196 92.771 24.404C92.771 24.572 92.819 24.708 92.915 24.812C93.011 24.916 93.155 25.004 93.347 25.076C93.539 25.148 93.775 25.228 94.055 25.316C94.543 25.46 94.959 25.604 95.303 25.748C95.647 25.884 95.911 26.064 96.095 26.288C96.287 26.504 96.383 26.804 96.383 27.188C96.383 27.796 96.155 28.272 95.699 28.616C95.251 28.952 94.651 29.12 93.899 29.12ZM99.7935 29.12C99.2655 29.12 98.7655 29.036 98.2935 28.868C97.8215 28.692 97.4175 28.432 97.0815 28.088L97.5735 27.2C97.9335 27.52 98.2935 27.752 98.6535 27.896C99.0215 28.04 99.3855 28.112 99.7455 28.112C100.114 28.112 100.414 28.044 100.646 27.908C100.878 27.764 100.994 27.556 100.994 27.284C100.994 27.084 100.934 26.936 100.814 26.84C100.694 26.744 100.518 26.66 100.286 26.588C100.062 26.516 99.7895 26.436 99.4695 26.348C99.0215 26.212 98.6455 26.072 98.3415 25.928C98.0375 25.776 97.8095 25.592 97.6575 25.376C97.5055 25.16 97.4295 24.884 97.4295 24.548C97.4295 24.14 97.5335 23.792 97.7415 23.504C97.9495 23.216 98.2375 22.996 98.6055 22.844C98.9815 22.692 99.4135 22.616 99.9015 22.616C100.358 22.616 100.778 22.688 101.162 22.832C101.554 22.968 101.898 23.184 102.194 23.48L101.63 24.356C101.35 24.1 101.062 23.912 100.766 23.792C100.478 23.672 100.166 23.612 99.8295 23.612C99.6375 23.612 99.4535 23.636 99.2775 23.684C99.1015 23.724 98.9535 23.804 98.8335 23.924C98.7215 24.036 98.6655 24.196 98.6655 24.404C98.6655 24.572 98.7135 24.708 98.8095 24.812C98.9055 24.916 99.0495 25.004 99.2415 25.076C99.4335 25.148 99.6695 25.228 99.9495 25.316C100.438 25.46 100.854 25.604 101.198 25.748C101.542 25.884 101.806 26.064 101.99 26.288C102.182 26.504 102.278 26.804 102.278 27.188C102.278 27.796 102.05 28.272 101.594 28.616C101.146 28.952 100.546 29.12 99.7935 29.12ZM106.3 29.12C105.812 29.12 105.368 29.036 104.968 28.868C104.576 28.692 104.236 28.456 103.948 28.16C103.66 27.856 103.436 27.512 103.276 27.128C103.124 26.736 103.048 26.32 103.048 25.88C103.048 25.288 103.184 24.748 103.456 24.26C103.728 23.764 104.108 23.368 104.596 23.072C105.084 22.768 105.656 22.616 106.312 22.616C106.968 22.616 107.532 22.768 108.004 23.072C108.484 23.368 108.856 23.76 109.12 24.248C109.384 24.736 109.516 25.26 109.516 25.82C109.516 25.916 109.512 26.008 109.504 26.096C109.496 26.176 109.488 26.244 109.48 26.3H104.452C104.476 26.668 104.576 26.992 104.752 27.272C104.936 27.544 105.168 27.76 105.448 27.92C105.728 28.072 106.028 28.148 106.348 28.148C106.7 28.148 107.032 28.06 107.344 27.884C107.664 27.708 107.88 27.476 107.992 27.188L109.12 27.512C108.984 27.816 108.776 28.092 108.496 28.34C108.224 28.58 107.9 28.772 107.524 28.916C107.148 29.052 106.74 29.12 106.3 29.12ZM104.416 25.424H108.208C108.184 25.064 108.08 24.748 107.896 24.476C107.72 24.196 107.492 23.98 107.212 23.828C106.94 23.668 106.636 23.588 106.3 23.588C105.972 23.588 105.668 23.668 105.388 23.828C105.116 23.98 104.892 24.196 104.716 24.476C104.54 24.748 104.44 25.064 104.416 25.424ZM114.026 28.676C113.914 28.732 113.774 28.792 113.606 28.856C113.438 28.92 113.246 28.976 113.03 29.024C112.822 29.072 112.606 29.096 112.382 29.096C112.11 29.096 111.858 29.048 111.626 28.952C111.394 28.856 111.206 28.704 111.062 28.496C110.926 28.28 110.858 28.004 110.858 27.668V23.744H110.03V22.724H110.858V20.66H112.178V22.724H113.546V23.744H112.178V27.248C112.194 27.464 112.262 27.624 112.382 27.728C112.51 27.832 112.666 27.884 112.85 27.884C113.034 27.884 113.21 27.852 113.378 27.788C113.546 27.724 113.67 27.672 113.75 27.632L114.026 28.676Z" fill="#333333"/>
</svg>
