<svg width="16" height="16" viewBox="0 0 16 16" fill="none" xmlns="http://www.w3.org/2000/svg">
<path d="M8.1527 1.414L7.37249 0.707L8.1527 0L8.93291 0.707L8.1527 1.414ZM9.25625 10.414C9.25625 10.6792 9.13998 10.9336 8.93302 11.1211C8.72607 11.3086 8.44538 11.414 8.1527 11.414C7.86002 11.414 7.57932 11.3086 7.37237 11.1211C7.16541 10.9336 7.04915 10.6792 7.04915 10.414H9.25625ZM1.85474 5.707L7.37249 0.707L8.93291 2.121L3.41516 7.121L1.85474 5.707ZM8.93291 0.707L14.4507 5.707L12.8902 7.121L7.37249 2.121L8.93291 0.707ZM9.25625 1.414V10.414H7.04915V1.414H9.25625Z" fill="#333333"/>
<path d="M0.427979 12.4141V13.4141C0.427979 13.9445 0.660511 14.4532 1.07442 14.8283C1.48833 15.2033 2.04972 15.4141 2.63508 15.4141H13.6706C14.2559 15.4141 14.8173 15.2033 15.2312 14.8283C15.6451 14.4532 15.8777 13.9445 15.8777 13.4141V12.4141" fill="#333333"/>
</svg>
