<svg width="126" height="46" viewBox="0 0 126 46" fill="none" xmlns="http://www.w3.org/2000/svg">
<rect x="0.25" y="0.25" width="125.5" height="45.5" rx="3.75" fill="white" stroke="#C4C4C4" stroke-width="0.5"/>
<ellipse cx="1.5" cy="1.32398" rx="1.5" ry="1.32398" transform="matrix(1 0 0 -1 68 33.6479)" fill="#A9ABAD"/>
<path d="M40.7756 20V12.9H43.2956C44.0623 12.9 44.7023 13.06 45.2156 13.38C45.7289 13.6933 46.1123 14.12 46.3656 14.66C46.6256 15.1933 46.7556 15.7867 46.7556 16.44C46.7556 17.16 46.6123 17.7867 46.3256 18.32C46.0456 18.8533 45.6456 19.2667 45.1256 19.56C44.6056 19.8533 43.9956 20 43.2956 20H40.7756ZM45.6156 16.44C45.6156 15.94 45.5223 15.5 45.3356 15.12C45.1556 14.7333 44.8923 14.4333 44.5456 14.22C44.2056 14 43.7889 13.89 43.2956 13.89H41.8956V19.01H43.2956C43.7956 19.01 44.2156 18.8967 44.5556 18.67C44.9023 18.4433 45.1656 18.1367 45.3456 17.75C45.5256 17.3633 45.6156 16.9267 45.6156 16.44ZM50.1638 20.1C49.7571 20.1 49.3871 20.03 49.0538 19.89C48.7271 19.7433 48.4438 19.5467 48.2038 19.3C47.9638 19.0467 47.7771 18.76 47.6438 18.44C47.5171 18.1133 47.4538 17.7667 47.4538 17.4C47.4538 16.9067 47.5671 16.4567 47.7938 16.05C48.0205 15.6367 48.3371 15.3067 48.7438 15.06C49.1505 14.8067 49.6271 14.68 50.1738 14.68C50.7205 14.68 51.1905 14.8067 51.5838 15.06C51.9838 15.3067 52.2938 15.6333 52.5138 16.04C52.7338 16.4467 52.8438 16.8833 52.8438 17.35C52.8438 17.43 52.8405 17.5067 52.8338 17.58C52.8271 17.6467 52.8205 17.7033 52.8138 17.75H48.6238C48.6438 18.0567 48.7271 18.3267 48.8738 18.56C49.0271 18.7867 49.2205 18.9667 49.4538 19.1C49.6871 19.2267 49.9371 19.29 50.2038 19.29C50.4971 19.29 50.7738 19.2167 51.0338 19.07C51.3005 18.9233 51.4805 18.73 51.5738 18.49L52.5138 18.76C52.4005 19.0133 52.2271 19.2433 51.9938 19.45C51.7671 19.65 51.4971 19.81 51.1838 19.93C50.8705 20.0433 50.5305 20.1 50.1638 20.1ZM48.5938 17.02H51.7538C51.7338 16.72 51.6471 16.4567 51.4938 16.23C51.3471 15.9967 51.1571 15.8167 50.9238 15.69C50.6971 15.5567 50.4438 15.49 50.1638 15.49C49.8905 15.49 49.6371 15.5567 49.4038 15.69C49.1771 15.8167 48.9905 15.9967 48.8438 16.23C48.6971 16.4567 48.6138 16.72 48.5938 17.02ZM55.6011 20.1C55.1611 20.1 54.7444 20.03 54.3511 19.89C53.9577 19.7433 53.6211 19.5267 53.3411 19.24L53.7511 18.5C54.0511 18.7667 54.3511 18.96 54.6511 19.08C54.9577 19.2 55.2611 19.26 55.5611 19.26C55.8677 19.26 56.1177 19.2033 56.3111 19.09C56.5044 18.97 56.6011 18.7967 56.6011 18.57C56.6011 18.4033 56.5511 18.28 56.4511 18.2C56.3511 18.12 56.2044 18.05 56.0111 17.99C55.8244 17.93 55.5977 17.8633 55.3311 17.79C54.9577 17.6767 54.6444 17.56 54.3911 17.44C54.1377 17.3133 53.9477 17.16 53.8211 16.98C53.6944 16.8 53.6311 16.57 53.6311 16.29C53.6311 15.95 53.7177 15.66 53.8911 15.42C54.0644 15.18 54.3044 14.9967 54.6111 14.87C54.9244 14.7433 55.2844 14.68 55.6911 14.68C56.0711 14.68 56.4211 14.74 56.7411 14.86C57.0677 14.9733 57.3544 15.1533 57.6011 15.4L57.1311 16.13C56.8977 15.9167 56.6577 15.76 56.4111 15.66C56.1711 15.56 55.9111 15.51 55.6311 15.51C55.4711 15.51 55.3177 15.53 55.1711 15.57C55.0244 15.6033 54.9011 15.67 54.8011 15.77C54.7077 15.8633 54.6611 15.9967 54.6611 16.17C54.6611 16.31 54.7011 16.4233 54.7811 16.51C54.8611 16.5967 54.9811 16.67 55.1411 16.73C55.3011 16.79 55.4977 16.8567 55.7311 16.93C56.1377 17.05 56.4844 17.17 56.7711 17.29C57.0577 17.4033 57.2777 17.5533 57.4311 17.74C57.5911 17.92 57.6711 18.17 57.6711 18.49C57.6711 18.9967 57.4811 19.3933 57.1011 19.68C56.7277 19.96 56.2277 20.1 55.6011 20.1ZM58.6532 20V14.77H59.7532V20H58.6532ZM58.6532 13.91V12.7H59.7532V13.91H58.6532ZM63.145 20.05C62.7917 20.05 62.4684 19.98 62.175 19.84C61.8817 19.6933 61.6284 19.4967 61.415 19.25C61.2084 19.0033 61.045 18.72 60.925 18.4C60.8117 18.08 60.755 17.7433 60.755 17.39C60.755 17.0167 60.815 16.6667 60.935 16.34C61.055 16.0133 61.2217 15.7267 61.435 15.48C61.655 15.2267 61.9117 15.03 62.205 14.89C62.4984 14.75 62.825 14.68 63.185 14.68C63.605 14.68 63.9717 14.78 64.285 14.98C64.605 15.18 64.8684 15.44 65.075 15.76V14.77H66.045V19.85C66.045 20.3567 65.9217 20.7867 65.675 21.14C65.435 21.4933 65.105 21.7633 64.685 21.95C64.265 22.1367 63.7917 22.23 63.265 22.23C62.685 22.23 62.205 22.13 61.825 21.93C61.445 21.73 61.1217 21.4567 60.855 21.11L61.475 20.53C61.675 20.81 61.9317 21.0233 62.245 21.17C62.565 21.3167 62.905 21.39 63.265 21.39C63.565 21.39 63.8417 21.3333 64.095 21.22C64.355 21.1133 64.5617 20.9433 64.715 20.71C64.8684 20.4833 64.945 20.1967 64.945 19.85V19.05C64.7584 19.3633 64.5017 19.61 64.175 19.79C63.8484 19.9633 63.505 20.05 63.145 20.05ZM63.505 19.16C63.6717 19.16 63.8317 19.1333 63.985 19.08C64.1384 19.02 64.2784 18.9433 64.405 18.85C64.5384 18.75 64.6517 18.64 64.745 18.52C64.8384 18.3933 64.905 18.26 64.945 18.12V16.75C64.8584 16.5233 64.735 16.3267 64.575 16.16C64.415 15.9867 64.235 15.8533 64.035 15.76C63.835 15.6667 63.6317 15.62 63.425 15.62C63.185 15.62 62.9684 15.6733 62.775 15.78C62.5884 15.88 62.4284 16.0167 62.295 16.19C62.1617 16.3567 62.0584 16.5467 61.985 16.76C61.9117 16.9733 61.875 17.1933 61.875 17.42C61.875 17.66 61.915 17.8833 61.995 18.09C62.0817 18.2967 62.1984 18.4833 62.345 18.65C62.4917 18.81 62.665 18.9367 62.865 19.03C63.065 19.1167 63.2784 19.16 63.505 19.16ZM72.0541 20H70.9541V17.07C70.9541 16.5833 70.8741 16.2267 70.7141 16C70.5608 15.7733 70.3308 15.66 70.0241 15.66C69.8108 15.66 69.5974 15.7133 69.3841 15.82C69.1774 15.9267 68.9908 16.0733 68.8241 16.26C68.6574 16.44 68.5374 16.65 68.4641 16.89V20H67.3641V14.77H68.3641V15.82C68.4974 15.5867 68.6708 15.3867 68.8841 15.22C69.1041 15.0467 69.3508 14.9133 69.6241 14.82C69.8974 14.7267 70.1874 14.68 70.4941 14.68C70.8074 14.68 71.0641 14.7367 71.2641 14.85C71.4708 14.9633 71.6308 15.12 71.7441 15.32C71.8641 15.5133 71.9441 15.74 71.9841 16C72.0308 16.2533 72.0541 16.5233 72.0541 16.81V20ZM78.6216 20.1C78.2216 20.1 77.8583 20.0067 77.5316 19.82C77.2116 19.6267 76.9583 19.37 76.7716 19.05V20H75.8016V12.7H76.9016V15.76C77.1083 15.4267 77.3649 15.1633 77.6716 14.97C77.9849 14.7767 78.3516 14.68 78.7716 14.68C79.1183 14.68 79.4349 14.7533 79.7216 14.9C80.0083 15.0467 80.2516 15.2467 80.4516 15.5C80.6583 15.7533 80.8149 16.0433 80.9216 16.37C81.0349 16.6967 81.0916 17.0433 81.0916 17.41C81.0916 17.7767 81.0283 18.1233 80.9016 18.45C80.7816 18.7767 80.6083 19.0633 80.3816 19.31C80.1549 19.5567 79.8916 19.75 79.5916 19.89C79.2983 20.03 78.9749 20.1 78.6216 20.1ZM78.3316 19.16C78.5716 19.16 78.7916 19.1133 78.9916 19.02C79.1916 18.92 79.3649 18.79 79.5116 18.63C79.6583 18.47 79.7683 18.2833 79.8416 18.07C79.9216 17.8567 79.9616 17.6367 79.9616 17.41C79.9616 17.0967 79.8949 16.8033 79.7616 16.53C79.6349 16.2567 79.4549 16.0367 79.2216 15.87C78.9883 15.7033 78.7183 15.62 78.4116 15.62C78.1916 15.62 77.9849 15.6733 77.7916 15.78C77.5983 15.88 77.4249 16.0167 77.2716 16.19C77.1249 16.3567 77.0016 16.5433 76.9016 16.75V18.13C76.9416 18.2833 77.0116 18.4233 77.1116 18.55C77.2116 18.67 77.3283 18.7767 77.4616 18.87C77.5949 18.9567 77.7383 19.0267 77.8916 19.08C78.0449 19.1333 78.1916 19.16 78.3316 19.16ZM85.0209 15.72C84.5942 15.7267 84.2142 15.8233 83.8809 16.01C83.5542 16.1967 83.3209 16.46 83.1809 16.8V20H82.0809V14.77H83.1009V15.94C83.2809 15.58 83.5176 15.2933 83.8109 15.08C84.1042 14.86 84.4142 14.74 84.7409 14.72C84.8076 14.72 84.8609 14.72 84.9009 14.72C84.9476 14.72 84.9876 14.7233 85.0209 14.73V15.72ZM85.8211 20V14.77H86.9211V20H85.8211ZM85.8211 13.91V12.7H86.9211V13.91H85.8211ZM90.613 20.1C90.2063 20.1 89.8363 20.03 89.503 19.89C89.1763 19.7433 88.893 19.5467 88.653 19.3C88.413 19.0467 88.2263 18.76 88.093 18.44C87.9663 18.1133 87.903 17.7667 87.903 17.4C87.903 16.9067 88.0163 16.4567 88.243 16.05C88.4697 15.6367 88.7863 15.3067 89.193 15.06C89.5997 14.8067 90.0763 14.68 90.623 14.68C91.1697 14.68 91.6397 14.8067 92.033 15.06C92.433 15.3067 92.743 15.6333 92.963 16.04C93.183 16.4467 93.293 16.8833 93.293 17.35C93.293 17.43 93.2897 17.5067 93.283 17.58C93.2763 17.6467 93.2697 17.7033 93.263 17.75H89.073C89.093 18.0567 89.1763 18.3267 89.323 18.56C89.4763 18.7867 89.6697 18.9667 89.903 19.1C90.1363 19.2267 90.3863 19.29 90.653 19.29C90.9463 19.29 91.223 19.2167 91.483 19.07C91.7497 18.9233 91.9297 18.73 92.023 18.49L92.963 18.76C92.8497 19.0133 92.6763 19.2433 92.443 19.45C92.2163 19.65 91.9463 19.81 91.633 19.93C91.3197 20.0433 90.9797 20.1 90.613 20.1ZM89.043 17.02H92.203C92.183 16.72 92.0963 16.4567 91.943 16.23C91.7963 15.9967 91.6063 15.8167 91.373 15.69C91.1463 15.5567 90.893 15.49 90.613 15.49C90.3397 15.49 90.0863 15.5567 89.853 15.69C89.6263 15.8167 89.4397 15.9967 89.293 16.23C89.1463 16.4567 89.063 16.72 89.043 17.02ZM94.4414 20V15.75H93.7414V14.9H94.4414V14.69C94.4414 14.2633 94.5081 13.8933 94.6414 13.58C94.7814 13.2667 94.9748 13.0267 95.2214 12.86C95.4748 12.6867 95.7714 12.6 96.1114 12.6C96.3248 12.6 96.5348 12.63 96.7414 12.69C96.9481 12.7433 97.1448 12.82 97.3314 12.92L97.0914 13.74C96.9914 13.6733 96.8714 13.6233 96.7314 13.59C96.5981 13.55 96.4681 13.53 96.3414 13.53C96.0881 13.53 95.8914 13.6267 95.7514 13.82C95.6114 14.0133 95.5414 14.2933 95.5414 14.66V14.9H96.8814V15.75H95.5414V20H94.4414ZM97.2946 20V18.72H98.2046V20H97.2946ZM102.443 20.1C102.023 20.1 101.653 20 101.333 19.8C101.013 19.6 100.76 19.34 100.573 19.02V22.13H99.4735V14.77H100.443V15.71C100.643 15.3967 100.903 15.1467 101.223 14.96C101.543 14.7733 101.9 14.68 102.293 14.68C102.653 14.68 102.983 14.7533 103.283 14.9C103.583 15.04 103.843 15.2367 104.063 15.49C104.283 15.7433 104.453 16.0333 104.573 16.36C104.7 16.68 104.763 17.02 104.763 17.38C104.763 17.88 104.663 18.3367 104.463 18.75C104.27 19.1633 103.997 19.4933 103.643 19.74C103.297 19.98 102.897 20.1 102.443 20.1ZM102.083 19.16C102.317 19.16 102.527 19.11 102.713 19.01C102.907 18.91 103.07 18.7767 103.203 18.61C103.343 18.4433 103.45 18.2533 103.523 18.04C103.597 17.8267 103.633 17.6067 103.633 17.38C103.633 17.14 103.593 16.9133 103.513 16.7C103.433 16.4867 103.317 16.3 103.163 16.14C103.017 15.98 102.843 15.8533 102.643 15.76C102.45 15.6667 102.237 15.62 102.003 15.62C101.863 15.62 101.717 15.6467 101.563 15.7C101.41 15.7533 101.267 15.8267 101.133 15.92C101 16.0133 100.883 16.1233 100.783 16.25C100.683 16.3767 100.613 16.51 100.573 16.65V18.02C100.667 18.2333 100.79 18.4267 100.943 18.6C101.097 18.7667 101.273 18.9033 101.473 19.01C101.673 19.11 101.877 19.16 102.083 19.16ZM105.423 17.39C105.423 16.89 105.523 16.4367 105.723 16.03C105.929 15.6167 106.209 15.29 106.563 15.05C106.916 14.8033 107.323 14.68 107.783 14.68C108.183 14.68 108.543 14.7833 108.863 14.99C109.189 15.1967 109.443 15.4533 109.623 15.76V12.7H110.723V18.76C110.723 18.8867 110.746 18.9767 110.793 19.03C110.839 19.0833 110.916 19.1133 111.023 19.12V20C110.816 20.0333 110.656 20.05 110.543 20.05C110.336 20.05 110.159 19.99 110.013 19.87C109.873 19.75 109.799 19.6067 109.793 19.44L109.783 19.05C109.583 19.3833 109.313 19.6433 108.973 19.83C108.633 20.01 108.279 20.1 107.913 20.1C107.553 20.1 107.219 20.03 106.913 19.89C106.613 19.75 106.349 19.5533 106.123 19.3C105.903 19.0467 105.729 18.7567 105.603 18.43C105.483 18.1033 105.423 17.7567 105.423 17.39ZM109.623 18.12V16.75C109.549 16.5367 109.429 16.3467 109.263 16.18C109.103 16.0067 108.919 15.87 108.713 15.77C108.513 15.67 108.313 15.62 108.113 15.62C107.879 15.62 107.666 15.67 107.473 15.77C107.286 15.87 107.123 16.0033 106.983 16.17C106.849 16.3367 106.746 16.5267 106.673 16.74C106.599 16.9533 106.563 17.1767 106.563 17.41C106.563 17.65 106.603 17.8767 106.683 18.09C106.763 18.2967 106.876 18.4833 107.023 18.65C107.176 18.81 107.349 18.9367 107.543 19.03C107.743 19.1167 107.959 19.16 108.193 19.16C108.339 19.16 108.486 19.1333 108.633 19.08C108.786 19.0267 108.929 18.9533 109.063 18.86C109.203 18.7667 109.319 18.6567 109.413 18.53C109.513 18.4033 109.583 18.2667 109.623 18.12ZM112.42 20V15.75H111.72V14.9H112.42V14.69C112.42 14.2633 112.487 13.8933 112.62 13.58C112.76 13.2667 112.953 13.0267 113.2 12.86C113.453 12.6867 113.75 12.6 114.09 12.6C114.303 12.6 114.513 12.63 114.72 12.69C114.927 12.7433 115.123 12.82 115.31 12.92L115.07 13.74C114.97 13.6733 114.85 13.6233 114.71 13.59C114.577 13.55 114.447 13.53 114.32 13.53C114.067 13.53 113.87 13.6267 113.73 13.82C113.59 14.0133 113.52 14.2933 113.52 14.66V14.9H114.86V15.75H113.52V20H112.42Z" fill="#333333"/>
<path d="M41.9158 34.36V35H39.0438V34.36H40.1798V31.24C40.1318 31.304 40.0571 31.3733 39.9558 31.448C39.8545 31.5173 39.7398 31.584 39.6118 31.648C39.4838 31.712 39.3558 31.7653 39.2278 31.808C39.0998 31.8453 38.9825 31.864 38.8758 31.864V31.192C38.9931 31.192 39.1211 31.16 39.2598 31.096C39.4038 31.0267 39.5425 30.9467 39.6758 30.856C39.8091 30.7653 39.9211 30.68 40.0118 30.6C40.1078 30.52 40.1638 30.464 40.1798 30.432H40.8998V34.36H41.9158ZM42.6214 35V34.104H43.2134V35H42.6214ZM45.8226 36.192C45.4172 36.192 45.0519 36.096 44.7266 35.904C44.4012 35.712 44.1559 35.456 43.9906 35.136L44.4306 34.752C44.5799 34.9973 44.7772 35.1947 45.0226 35.344C45.2732 35.4933 45.5426 35.568 45.8306 35.568C46.0759 35.568 46.2946 35.5147 46.4866 35.408C46.6786 35.3013 46.8306 35.1547 46.9426 34.968C47.0546 34.776 47.1106 34.5573 47.1106 34.312C47.1106 34.072 47.0546 33.8613 46.9426 33.68C46.8359 33.4987 46.6892 33.3573 46.5026 33.256C46.3212 33.1547 46.1159 33.104 45.8866 33.104C45.6572 33.104 45.4412 33.1547 45.2386 33.256C45.0412 33.3573 44.8786 33.5013 44.7506 33.688H44.1186L44.7586 30.432H47.5186V31.08H45.2786L44.9346 32.888C45.0519 32.7653 45.1986 32.6693 45.3746 32.6C45.5559 32.5253 45.7559 32.488 45.9746 32.488C46.3266 32.488 46.6412 32.5653 46.9186 32.72C47.2012 32.8747 47.4226 33.088 47.5826 33.36C47.7479 33.632 47.8306 33.9467 47.8306 34.304C47.8306 34.6773 47.7399 35.0053 47.5586 35.288C47.3826 35.576 47.1426 35.7973 46.8386 35.952C46.5346 36.112 46.1959 36.192 45.8226 36.192ZM55.7248 35V30.664L53.8528 34H53.4128L51.5328 30.664V35H50.8128V29.32H51.5728L53.6288 33.008L55.6928 29.32H56.4448V35H55.7248ZM62.165 33.536C62.165 33.8293 62.0903 34.0853 61.941 34.304C61.7917 34.5227 61.589 34.6933 61.333 34.816C61.0823 34.9387 60.805 35 60.501 35H57.805V29.32H60.629C60.8957 29.32 61.125 29.392 61.317 29.536C61.5143 29.6747 61.6637 29.856 61.765 30.08C61.8717 30.2987 61.925 30.528 61.925 30.768C61.925 31.0453 61.853 31.3067 61.709 31.552C61.5703 31.792 61.3703 31.9707 61.109 32.088C61.4343 32.184 61.6903 32.3627 61.877 32.624C62.069 32.88 62.165 33.184 62.165 33.536ZM61.437 33.408C61.437 33.232 61.397 33.0693 61.317 32.92C61.2423 32.7707 61.1383 32.6507 61.005 32.56C60.877 32.4693 60.7277 32.424 60.557 32.424H58.525V34.376H60.501C60.677 34.376 60.8343 34.3307 60.973 34.24C61.117 34.1493 61.229 34.032 61.309 33.888C61.3943 33.7387 61.437 33.5787 61.437 33.408ZM58.525 29.944V31.84H60.333C60.5037 31.84 60.653 31.7973 60.781 31.712C60.9143 31.6267 61.0183 31.512 61.093 31.368C61.173 31.224 61.213 31.0667 61.213 30.896C61.213 30.7147 61.1757 30.5547 61.101 30.416C61.0317 30.272 60.933 30.1573 60.805 30.072C60.6823 29.9867 60.541 29.944 60.381 29.944H58.525Z" fill="#A9ABAD"/>
<path d="M78.5784 35V29.32H80.5464C81.1544 29.32 81.6611 29.448 82.0664 29.704C82.4771 29.9547 82.7838 30.296 82.9864 30.728C83.1891 31.1547 83.2904 31.6293 83.2904 32.152C83.2904 32.728 83.1784 33.2293 82.9544 33.656C82.7304 34.0827 82.4131 34.4133 82.0024 34.648C81.5918 34.8827 81.1064 35 80.5464 35H78.5784ZM82.5624 32.152C82.5624 31.7253 82.4824 31.3467 82.3224 31.016C82.1678 30.6853 81.9411 30.4267 81.6424 30.24C81.3438 30.0533 80.9784 29.96 80.5464 29.96H79.2984V34.36H80.5464C80.9838 34.36 81.3518 34.264 81.6504 34.072C81.9491 33.8747 82.1758 33.6107 82.3304 33.28C82.4851 32.944 82.5624 32.568 82.5624 32.152ZM86.017 35.08C85.7023 35.08 85.417 35.024 85.161 34.912C84.905 34.7947 84.6837 34.6373 84.497 34.44C84.3103 34.2373 84.1663 34.0053 84.065 33.744C83.9637 33.4827 83.913 33.208 83.913 32.92C83.913 32.6267 83.9637 32.3493 84.065 32.088C84.1663 31.8267 84.3103 31.5973 84.497 31.4C84.6837 31.1973 84.905 31.04 85.161 30.928C85.4223 30.8107 85.7077 30.752 86.017 30.752C86.3317 30.752 86.617 30.8107 86.873 30.928C87.129 31.04 87.3503 31.1973 87.537 31.4C87.729 31.5973 87.8757 31.8267 87.977 32.088C88.0783 32.3493 88.129 32.6267 88.129 32.92C88.129 33.208 88.0783 33.4827 87.977 33.744C87.8757 34.0053 87.7317 34.2373 87.545 34.44C87.3583 34.6373 87.1343 34.7947 86.873 34.912C86.617 35.024 86.3317 35.08 86.017 35.08ZM84.633 32.928C84.633 33.216 84.6943 33.4773 84.817 33.712C84.945 33.9467 85.113 34.1333 85.321 34.272C85.529 34.4053 85.761 34.472 86.017 34.472C86.273 34.472 86.505 34.4027 86.713 34.264C86.9263 34.1253 87.0943 33.9387 87.217 33.704C87.345 33.464 87.409 33.2 87.409 32.912C87.409 32.624 87.345 32.3627 87.217 32.128C87.0943 31.8933 86.9263 31.7067 86.713 31.568C86.505 31.4293 86.273 31.36 86.017 31.36C85.761 31.36 85.529 31.432 85.321 31.576C85.113 31.7147 84.945 31.9013 84.817 32.136C84.6943 32.3707 84.633 32.6347 84.633 32.928ZM94.0734 30.824H94.7534L92.9774 35H92.3614L91.5534 33.032L90.7534 35H90.1374L88.3614 30.824H89.0334L90.4734 34.304L91.1454 32.592L90.4414 30.832H91.0574L91.5534 32.16L92.0494 30.832H92.6654L91.9694 32.592L92.6414 34.304L94.0734 30.824ZM99.0358 35H98.3318V32.664C98.3318 32.2213 98.2624 31.8987 98.1238 31.696C97.9904 31.488 97.7851 31.384 97.5078 31.384C97.3158 31.384 97.1238 31.432 96.9318 31.528C96.7451 31.624 96.5771 31.7547 96.4278 31.92C96.2838 32.08 96.1798 32.2667 96.1158 32.48V35H95.4118V30.824H96.0518V31.72C96.1638 31.5227 96.3078 31.352 96.4838 31.208C96.6598 31.064 96.8598 30.952 97.0838 30.872C97.3078 30.792 97.5424 30.752 97.7878 30.752C98.0278 30.752 98.2278 30.7973 98.3878 30.888C98.5531 30.9733 98.6811 31.096 98.7718 31.256C98.8678 31.4107 98.9344 31.5947 98.9718 31.808C99.0144 32.0213 99.0358 32.2533 99.0358 32.504V35ZM100.147 29.16H100.851V33.92C100.851 34.1493 100.883 34.2907 100.947 34.344C101.011 34.3973 101.088 34.424 101.179 34.424C101.291 34.424 101.397 34.4133 101.499 34.392C101.6 34.3653 101.685 34.3387 101.755 34.312L101.867 34.888C101.749 34.936 101.611 34.976 101.451 35.008C101.291 35.04 101.149 35.056 101.027 35.056C100.755 35.056 100.539 34.9787 100.379 34.824C100.224 34.6693 100.147 34.4533 100.147 34.176V29.16ZM104.244 35.08C103.929 35.08 103.644 35.024 103.388 34.912C103.132 34.7947 102.91 34.6373 102.724 34.44C102.537 34.2373 102.393 34.0053 102.292 33.744C102.19 33.4827 102.14 33.208 102.14 32.92C102.14 32.6267 102.19 32.3493 102.292 32.088C102.393 31.8267 102.537 31.5973 102.724 31.4C102.91 31.1973 103.132 31.04 103.388 30.928C103.649 30.8107 103.934 30.752 104.244 30.752C104.558 30.752 104.844 30.8107 105.1 30.928C105.356 31.04 105.577 31.1973 105.764 31.4C105.956 31.5973 106.102 31.8267 106.204 32.088C106.305 32.3493 106.356 32.6267 106.356 32.92C106.356 33.208 106.305 33.4827 106.204 33.744C106.102 34.0053 105.958 34.2373 105.772 34.44C105.585 34.6373 105.361 34.7947 105.1 34.912C104.844 35.024 104.558 35.08 104.244 35.08ZM102.86 32.928C102.86 33.216 102.921 33.4773 103.044 33.712C103.172 33.9467 103.34 34.1333 103.548 34.272C103.756 34.4053 103.988 34.472 104.244 34.472C104.5 34.472 104.732 34.4027 104.94 34.264C105.153 34.1253 105.321 33.9387 105.444 33.704C105.572 33.464 105.636 33.2 105.636 32.912C105.636 32.624 105.572 32.3627 105.444 32.128C105.321 31.8933 105.153 31.7067 104.94 31.568C104.732 31.4293 104.5 31.36 104.244 31.36C103.988 31.36 103.756 31.432 103.548 31.576C103.34 31.7147 103.172 31.9013 103.044 32.136C102.921 32.3707 102.86 32.6347 102.86 32.928ZM106.881 33.792C106.881 33.5253 106.955 33.296 107.105 33.104C107.259 32.9067 107.47 32.7547 107.737 32.648C108.003 32.5413 108.313 32.488 108.665 32.488C108.851 32.488 109.049 32.504 109.257 32.536C109.465 32.5627 109.649 32.6053 109.809 32.664V32.36C109.809 32.04 109.713 31.7893 109.521 31.608C109.329 31.4213 109.057 31.328 108.705 31.328C108.475 31.328 108.254 31.3707 108.041 31.456C107.833 31.536 107.611 31.6533 107.377 31.808L107.121 31.312C107.393 31.1253 107.665 30.9867 107.937 30.896C108.209 30.8 108.491 30.752 108.785 30.752C109.318 30.752 109.739 30.9013 110.049 31.2C110.358 31.4933 110.513 31.904 110.513 32.432V34.2C110.513 34.2853 110.529 34.3493 110.561 34.392C110.598 34.4293 110.657 34.4507 110.737 34.456V35C110.667 35.0107 110.606 35.0187 110.553 35.024C110.505 35.0293 110.465 35.032 110.433 35.032C110.267 35.032 110.142 34.9867 110.057 34.896C109.977 34.8053 109.931 34.7093 109.921 34.608L109.905 34.344C109.723 34.5787 109.486 34.76 109.193 34.888C108.899 35.016 108.609 35.08 108.321 35.08C108.043 35.08 107.795 35.024 107.577 34.912C107.358 34.7947 107.187 34.64 107.065 34.448C106.942 34.2507 106.881 34.032 106.881 33.792ZM109.601 34.088C109.665 34.0133 109.715 33.9387 109.753 33.864C109.79 33.784 109.809 33.7173 109.809 33.664V33.144C109.643 33.08 109.47 33.032 109.289 33C109.107 32.9627 108.929 32.944 108.753 32.944C108.395 32.944 108.105 33.016 107.881 33.16C107.662 33.2987 107.553 33.4907 107.553 33.736C107.553 33.8693 107.587 34 107.657 34.128C107.731 34.2507 107.838 34.352 107.977 34.432C108.121 34.512 108.297 34.552 108.505 34.552C108.723 34.552 108.931 34.5093 109.129 34.424C109.326 34.3333 109.483 34.2213 109.601 34.088ZM111.366 32.92C111.366 32.5253 111.446 32.1653 111.606 31.84C111.772 31.5093 111.996 31.2453 112.278 31.048C112.566 30.8507 112.894 30.752 113.262 30.752C113.598 30.752 113.9 30.84 114.166 31.016C114.433 31.192 114.641 31.4053 114.79 31.656V29.16H115.494V34.2C115.494 34.2853 115.51 34.3493 115.542 34.392C115.58 34.4293 115.638 34.4507 115.718 34.456V35C115.585 35.0213 115.481 35.032 115.406 35.032C115.268 35.032 115.145 34.984 115.038 34.888C114.937 34.792 114.886 34.6853 114.886 34.568V34.216C114.721 34.4827 114.5 34.6933 114.222 34.848C113.945 35.0027 113.657 35.08 113.358 35.08C113.07 35.08 112.804 35.024 112.558 34.912C112.318 34.7947 112.108 34.6347 111.926 34.432C111.75 34.2293 111.612 34 111.51 33.744C111.414 33.4827 111.366 33.208 111.366 32.92ZM114.79 33.536V32.336C114.726 32.1547 114.622 31.992 114.478 31.848C114.334 31.6987 114.172 31.5813 113.99 31.496C113.814 31.4053 113.638 31.36 113.462 31.36C113.254 31.36 113.065 31.4053 112.894 31.496C112.729 31.5813 112.585 31.6987 112.462 31.848C112.345 31.992 112.254 32.1573 112.19 32.344C112.126 32.5307 112.094 32.7253 112.094 32.928C112.094 33.136 112.129 33.3333 112.198 33.52C112.273 33.7067 112.374 33.872 112.502 34.016C112.636 34.16 112.788 34.272 112.958 34.352C113.134 34.432 113.324 34.472 113.526 34.472C113.654 34.472 113.785 34.448 113.918 34.4C114.057 34.352 114.188 34.2853 114.31 34.2C114.433 34.1147 114.537 34.016 114.622 33.904C114.708 33.7867 114.764 33.664 114.79 33.536Z" fill="#A9ABAD"/>
<rect x="8.25" y="7.25" width="23.5" height="32.5" rx="3.75" fill="white" stroke="#E72828" stroke-width="0.5"/>
<path d="M27.7314 25.234C27.2574 24.729 26.2889 24.437 24.9164 24.437C24.1819 24.437 23.3329 24.51 22.4084 24.682C21.8434 24.1247 21.3292 23.5181 20.8719 22.8695C20.5179 22.3775 20.2079 21.8565 19.9239 21.3435C20.4654 19.651 20.7284 18.2705 20.7284 17.276C20.7284 16.1615 20.3249 15 19.1684 15C18.8114 15 18.4574 15.216 18.2674 15.534C17.7464 16.4715 17.9809 18.529 18.8794 20.56C18.5368 21.5961 18.1589 22.6202 17.7464 23.6305C17.3562 24.5575 16.9279 25.4679 16.4624 26.3595C13.8609 27.417 12.1759 28.6485 12.0199 29.6175C11.9494 29.982 12.0694 30.3155 12.3244 30.5835C12.4129 30.6565 12.7464 30.9455 13.3114 30.9455C15.0379 30.9455 16.8559 28.094 17.7829 26.3725C18.4914 26.133 19.2024 25.914 19.9104 25.6955C20.6586 25.4888 21.4165 25.3192 22.1814 25.1875C24.0044 26.857 25.6109 27.12 26.4184 27.12C27.4134 27.12 27.7674 26.7085 27.8874 26.3725C28.0749 25.9375 27.9344 25.4585 27.7209 25.211L27.7339 25.237L27.7314 25.234ZM26.8094 25.937C26.7389 26.299 26.3824 26.541 25.8849 26.541C25.7444 26.541 25.6244 26.515 25.4814 26.494C24.5749 26.275 23.7264 25.8145 22.8799 25.0875C23.5365 24.977 24.2011 24.9213 24.8669 24.921C25.3589 24.921 25.7864 24.9445 26.0724 25.0175C26.4004 25.088 26.9214 25.309 26.8044 25.9395H26.8174L26.8094 25.937ZM21.7939 24.799C21.1351 24.9335 20.4803 25.0872 19.8304 25.26C19.2652 25.4136 18.705 25.5855 18.1509 25.7755C18.4385 25.2057 18.7068 24.6263 18.9554 24.0385C19.2419 23.359 19.4764 22.6585 19.7134 22.007C19.9454 22.416 20.2054 22.8275 20.4659 23.1945C20.8929 23.775 21.3384 24.3275 21.7864 24.809V24.796L21.7939 24.799ZM18.6919 15.8095C18.7336 15.7242 18.7979 15.6519 18.8777 15.6005C18.9576 15.5491 19.05 15.5206 19.1449 15.518C19.6424 15.518 19.7359 16.096 19.7359 16.5595C19.7359 17.338 19.4989 18.5205 19.0954 19.8695C18.3869 17.9895 18.3404 16.4165 18.6944 15.8095H18.6919ZM16.0904 27.075C14.8849 29.1035 13.7259 30.3615 13.0149 30.3615C12.8769 30.3615 12.7569 30.312 12.6634 30.2415C12.5204 30.0955 12.4499 29.9265 12.4969 29.7335C12.6399 29.007 13.9889 27.9915 16.0934 27.0745L16.0904 27.075Z" fill="#E72828"/>
</svg>
