<svg width="31" height="34" viewBox="0 0 31 34" fill="none" xmlns="http://www.w3.org/2000/svg">
<path d="M26.35 3.4H23.25V1.7C23.25 1.24913 23.0867 0.81673 22.796 0.497918C22.5053 0.179107 22.1111 0 21.7 0C21.2889 0 20.8947 0.179107 20.604 0.497918C20.3133 0.81673 20.15 1.24913 20.15 1.7V3.4H10.85V1.7C10.85 1.24913 10.6867 0.81673 10.396 0.497918C10.1053 0.179107 9.71108 0 9.3 0C8.88891 0 8.49467 0.179107 8.20398 0.497918C7.9133 0.81673 7.75 1.24913 7.75 1.7V3.4H4.65C3.41674 3.4 2.234 3.93732 1.36195 4.89376C0.489909 5.85019 0 7.1474 0 8.5V28.9C0 30.2526 0.489909 31.5498 1.36195 32.5062C2.234 33.4627 3.41674 34 4.65 34H26.35C27.5833 34 28.766 33.4627 29.638 32.5062C30.5101 31.5498 31 30.2526 31 28.9V8.5C31 7.1474 30.5101 5.85019 29.638 4.89376C28.766 3.93732 27.5833 3.4 26.35 3.4ZM27.9 28.9C27.9 29.3509 27.7367 29.7833 27.446 30.1021C27.1553 30.4209 26.7611 30.6 26.35 30.6H4.65C4.23891 30.6 3.84467 30.4209 3.55398 30.1021C3.2633 29.7833 3.1 29.3509 3.1 28.9V17H27.9V28.9ZM27.9 13.6H3.1V8.5C3.1 8.04913 3.2633 7.61673 3.55398 7.29792C3.84467 6.97911 4.23891 6.8 4.65 6.8H7.75V8.5C7.75 8.95087 7.9133 9.38327 8.20398 9.70208C8.49467 10.0209 8.88891 10.2 9.3 10.2C9.71108 10.2 10.1053 10.0209 10.396 9.70208C10.6867 9.38327 10.85 8.95087 10.85 8.5V6.8H20.15V8.5C20.15 8.95087 20.3133 9.38327 20.604 9.70208C20.8947 10.0209 21.2889 10.2 21.7 10.2C22.1111 10.2 22.5053 10.0209 22.796 9.70208C23.0867 9.38327 23.25 8.95087 23.25 8.5V6.8H26.35C26.7611 6.8 27.1553 6.97911 27.446 7.29792C27.7367 7.61673 27.9 8.04913 27.9 8.5V13.6Z" fill="#CBCBCB"/>
</svg>
