<svg width="19" height="11" viewBox="0 0 19 11" fill="none" xmlns="http://www.w3.org/2000/svg">
<path d="M10.0407 10.0574L17.6922 2.73632C17.8191 2.61607 17.9199 2.47301 17.9886 2.31539C18.0574 2.15776 18.0928 1.9887 18.0928 1.81794C18.0928 1.64719 18.0574 1.47812 17.9886 1.3205C17.9199 1.16288 17.8191 1.01982 17.6922 0.899572C17.4385 0.65866 17.0952 0.523437 16.7374 0.523437C16.3797 0.523437 16.0364 0.65866 15.7827 0.899572L9.01146 7.3023L2.30793 0.899571C2.0542 0.658659 1.71096 0.523437 1.35319 0.523437C0.995417 0.523437 0.65218 0.658659 0.398445 0.899571C0.270485 1.01937 0.168686 1.16223 0.0989456 1.31987C0.0292072 1.47751 -0.00708394 1.64681 -0.00782782 1.81794C-0.00708396 1.98908 0.0292072 2.15837 0.0989455 2.31602C0.168686 2.47366 0.270485 2.61652 0.398445 2.73631L8.04994 10.0574C8.17676 10.1887 8.33067 10.2935 8.50198 10.3652C8.67329 10.4368 8.85829 10.4738 9.04532 10.4738C9.23234 10.4738 9.41734 10.4368 9.58865 10.3652C9.75996 10.2935 9.91387 10.1887 10.0407 10.0574Z" fill="#5250F9"/>
</svg>
