<svg width="341" height="156" viewBox="0 0 341 156" fill="none" xmlns="http://www.w3.org/2000/svg">
<path d="M0 45.1261H340.308" stroke="#E2E7E7" stroke-width="1.09073" stroke-dasharray="3.27 6.54"/>
<path d="M0 1.49683H340.308" stroke="#E2E7E7" stroke-width="1.09073" stroke-dasharray="3.27 6.54"/>
<path d="M0 88.7552H340.308" stroke="#E2E7E7" stroke-width="1.09073" stroke-dasharray="3.27 6.54"/>
<path d="M0 132.385H340.308" stroke="#E2E7E7" stroke-width="1.09073"/>
<path opacity="0.5" d="M21.3311 149.776C21.3311 150.48 21.1991 151.108 20.9351 151.66C20.6712 152.204 20.3112 152.632 19.8553 152.944C19.3994 153.256 18.8795 153.412 18.2955 153.412C17.7116 153.412 17.1917 153.256 16.7358 152.944C16.2799 152.632 15.9199 152.204 15.656 151.66C15.392 151.108 15.26 150.48 15.26 149.776C15.26 149.073 15.392 148.449 15.656 147.905C15.9199 147.353 16.2799 146.921 16.7358 146.609C17.1917 146.289 17.7116 146.129 18.2955 146.129C18.8795 146.129 19.3994 146.289 19.8553 146.609C20.3112 146.921 20.6712 147.353 20.9351 147.905C21.1991 148.449 21.3311 149.073 21.3311 149.776ZM20.2632 149.776C20.2632 149.249 20.1792 148.785 20.0113 148.385C19.8433 147.985 19.6113 147.673 19.3154 147.449C19.0194 147.225 18.6795 147.113 18.2955 147.113C17.9036 147.113 17.5597 147.225 17.2637 147.449C16.9678 147.673 16.7358 147.985 16.5678 148.385C16.3999 148.785 16.3159 149.249 16.3159 149.776C16.3159 150.304 16.3999 150.768 16.5678 151.168C16.7358 151.56 16.9678 151.868 17.2637 152.092C17.5597 152.316 17.9036 152.428 18.2955 152.428C18.6795 152.428 19.0194 152.316 19.3154 152.092C19.6113 151.868 19.8433 151.56 20.0113 151.168C20.1792 150.768 20.2632 150.304 20.2632 149.776ZM27.6386 152.332V153.292H23.3313V152.332H25.035V147.653C24.963 147.749 24.851 147.853 24.699 147.965C24.5471 148.069 24.3751 148.169 24.1831 148.265C23.9912 148.361 23.7992 148.441 23.6072 148.505C23.4153 148.561 23.2393 148.589 23.0793 148.589V147.581C23.2553 147.581 23.4473 147.533 23.6552 147.437C23.8712 147.333 24.0792 147.213 24.2791 147.077C24.4791 146.941 24.6471 146.813 24.783 146.693C24.927 146.573 25.011 146.489 25.035 146.441H26.1148V152.332H27.6386Z" fill="#737B8B"/>
<path opacity="0.5" d="M80.13 149.776C80.13 150.48 79.998 151.108 79.734 151.66C79.4701 152.204 79.1101 152.632 78.6542 152.944C78.1983 153.256 77.6784 153.412 77.0945 153.412C76.5106 153.412 75.9906 153.256 75.5347 152.944C75.0788 152.632 74.7188 152.204 74.4549 151.66C74.1909 151.108 74.059 150.48 74.059 149.776C74.059 149.073 74.1909 148.449 74.4549 147.905C74.7188 147.353 75.0788 146.921 75.5347 146.609C75.9906 146.289 76.5106 146.129 77.0945 146.129C77.6784 146.129 78.1983 146.289 78.6542 146.609C79.1101 146.921 79.4701 147.353 79.734 147.905C79.998 148.449 80.13 149.073 80.13 149.776ZM79.0621 149.776C79.0621 149.249 78.9782 148.785 78.8102 148.385C78.6422 147.985 78.4102 147.673 78.1143 147.449C77.8183 147.225 77.4784 147.113 77.0945 147.113C76.7025 147.113 76.3586 147.225 76.0626 147.449C75.7667 147.673 75.5347 147.985 75.3667 148.385C75.1988 148.785 75.1148 149.249 75.1148 149.776C75.1148 150.304 75.1988 150.768 75.3667 151.168C75.5347 151.56 75.7667 151.868 76.0626 152.092C76.3586 152.316 76.7025 152.428 77.0945 152.428C77.4784 152.428 77.8183 152.316 78.1143 152.092C78.4102 151.868 78.6422 151.56 78.8102 151.168C78.9782 150.768 79.0621 150.304 79.0621 149.776ZM81.8422 153.292C81.8422 152.972 81.8662 152.672 81.9142 152.392C81.9702 152.112 82.0662 151.844 82.2022 151.588C82.3461 151.332 82.5461 151.088 82.8021 150.856C83.058 150.616 83.39 150.384 83.7979 150.16C84.0379 150.024 84.2778 149.896 84.5178 149.776C84.7658 149.656 84.9937 149.528 85.2017 149.393C85.4176 149.257 85.5896 149.109 85.7176 148.949C85.8456 148.781 85.9096 148.589 85.9096 148.373C85.9096 148.189 85.8536 148.013 85.7416 147.845C85.6376 147.669 85.4776 147.529 85.2617 147.425C85.0537 147.313 84.7937 147.257 84.4818 147.257C84.2418 147.257 84.0219 147.289 83.8219 147.353C83.6299 147.417 83.454 147.501 83.294 147.605C83.142 147.701 83.006 147.805 82.8861 147.917C82.7741 148.021 82.6781 148.117 82.5981 148.205L81.9382 147.461C82.0022 147.389 82.1102 147.293 82.2622 147.173C82.4141 147.045 82.6061 146.917 82.8381 146.789C83.07 146.661 83.338 146.553 83.6419 146.465C83.9539 146.369 84.2938 146.321 84.6618 146.321C85.1577 146.321 85.5816 146.409 85.9336 146.585C86.2935 146.753 86.5695 146.985 86.7614 147.281C86.9534 147.569 87.0494 147.893 87.0494 148.253C87.0494 148.565 86.9814 148.837 86.8454 149.069C86.7174 149.301 86.5495 149.504 86.3415 149.68C86.1415 149.856 85.9296 150.008 85.7056 150.136C85.4896 150.256 85.2937 150.36 85.1177 150.448C84.7578 150.624 84.4498 150.784 84.1938 150.928C83.9379 151.072 83.7259 151.216 83.558 151.36C83.398 151.496 83.266 151.64 83.162 151.792C83.066 151.944 82.994 152.124 82.9461 152.332H87.1814V153.292H81.8422Z" fill="#737B8B"/>
<path opacity="0.5" d="M141.091 149.776C141.091 150.48 140.959 151.108 140.695 151.66C140.431 152.204 140.071 152.632 139.615 152.944C139.159 153.256 138.639 153.412 138.055 153.412C137.471 153.412 136.952 153.256 136.496 152.944C136.04 152.632 135.68 152.204 135.416 151.66C135.152 151.108 135.02 150.48 135.02 149.776C135.02 149.073 135.152 148.449 135.416 147.905C135.68 147.353 136.04 146.921 136.496 146.609C136.952 146.289 137.471 146.129 138.055 146.129C138.639 146.129 139.159 146.289 139.615 146.609C140.071 146.921 140.431 147.353 140.695 147.905C140.959 148.449 141.091 149.073 141.091 149.776ZM140.023 149.776C140.023 149.249 139.939 148.785 139.771 148.385C139.603 147.985 139.371 147.673 139.075 147.449C138.779 147.225 138.439 147.113 138.055 147.113C137.663 147.113 137.32 147.225 137.024 147.449C136.728 147.673 136.496 147.985 136.328 148.385C136.16 148.785 136.076 149.249 136.076 149.776C136.076 150.304 136.16 150.768 136.328 151.168C136.496 151.56 136.728 151.868 137.024 152.092C137.32 152.316 137.663 152.428 138.055 152.428C138.439 152.428 138.779 152.316 139.075 152.092C139.371 151.868 139.603 151.56 139.771 151.168C139.939 150.768 140.023 150.304 140.023 149.776ZM146.583 150.46C146.926 150.516 147.222 150.644 147.47 150.844C147.718 151.036 147.91 151.284 148.046 151.588C148.182 151.884 148.25 152.22 148.25 152.596C148.25 153.084 148.13 153.512 147.89 153.88C147.658 154.256 147.326 154.544 146.895 154.744C146.463 154.952 145.959 155.056 145.383 155.056C144.775 155.056 144.239 154.94 143.775 154.708C143.319 154.484 142.963 154.164 142.707 153.748L143.415 153.04C143.599 153.36 143.847 153.616 144.159 153.808C144.479 154 144.887 154.096 145.383 154.096C145.935 154.096 146.367 153.968 146.679 153.712C146.998 153.464 147.158 153.092 147.158 152.596C147.158 152.092 146.986 151.692 146.643 151.396C146.307 151.092 145.815 150.94 145.167 150.94H144.855V150.052H145.191C145.767 150.052 146.207 149.912 146.511 149.632C146.823 149.353 146.978 149.005 146.978 148.589C146.978 148.301 146.911 148.065 146.775 147.881C146.639 147.697 146.455 147.561 146.223 147.473C145.991 147.377 145.723 147.329 145.419 147.329C144.979 147.329 144.591 147.425 144.255 147.617C143.927 147.801 143.671 148.061 143.487 148.397L142.839 147.725C142.983 147.453 143.187 147.217 143.451 147.017C143.723 146.817 144.035 146.661 144.387 146.549C144.747 146.437 145.127 146.381 145.527 146.381C146.031 146.381 146.475 146.469 146.859 146.645C147.25 146.821 147.554 147.069 147.77 147.389C147.986 147.709 148.094 148.085 148.094 148.517C148.094 148.829 148.034 149.125 147.914 149.405C147.794 149.676 147.618 149.908 147.386 150.1C147.162 150.284 146.895 150.404 146.583 150.46Z" fill="#737B8B"/>
<path opacity="0.5" d="M200.976 149.776C200.976 150.48 200.844 151.108 200.58 151.66C200.316 152.204 199.956 152.632 199.5 152.944C199.044 153.256 198.524 153.412 197.94 153.412C197.356 153.412 196.836 153.256 196.38 152.944C195.925 152.632 195.565 152.204 195.301 151.66C195.037 151.108 194.905 150.48 194.905 149.776C194.905 149.073 195.037 148.449 195.301 147.905C195.565 147.353 195.925 146.921 196.38 146.609C196.836 146.289 197.356 146.129 197.94 146.129C198.524 146.129 199.044 146.289 199.5 146.609C199.956 146.921 200.316 147.353 200.58 147.905C200.844 148.449 200.976 149.073 200.976 149.776ZM199.908 149.776C199.908 149.249 199.824 148.785 199.656 148.385C199.488 147.985 199.256 147.673 198.96 147.449C198.664 147.225 198.324 147.113 197.94 147.113C197.548 147.113 197.204 147.225 196.908 147.449C196.612 147.673 196.38 147.985 196.212 148.385C196.044 148.785 195.961 149.249 195.961 149.776C195.961 150.304 196.044 150.768 196.212 151.168C196.38 151.56 196.612 151.868 196.908 152.092C197.204 152.316 197.548 152.428 197.94 152.428C198.324 152.428 198.664 152.316 198.96 152.092C199.256 151.868 199.488 151.56 199.656 151.168C199.824 150.768 199.908 150.304 199.908 149.776ZM206.311 154.816V152.788H202.46V151.852L206.647 146.441H207.367V151.828H208.423V152.788H207.367V154.816H206.311ZM203.552 151.828H206.419V148.073L203.552 151.828Z" fill="#737B8B"/>
<path opacity="0.5" d="M261.025 149.776C261.025 150.48 260.893 151.108 260.629 151.66C260.365 152.204 260.005 152.632 259.549 152.944C259.093 153.256 258.573 153.412 257.989 153.412C257.405 153.412 256.885 153.256 256.429 152.944C255.973 152.632 255.613 152.204 255.349 151.66C255.085 151.108 254.953 150.48 254.953 149.776C254.953 149.073 255.085 148.449 255.349 147.905C255.613 147.353 255.973 146.921 256.429 146.609C256.885 146.289 257.405 146.129 257.989 146.129C258.573 146.129 259.093 146.289 259.549 146.609C260.005 146.921 260.365 147.353 260.629 147.905C260.893 148.449 261.025 149.073 261.025 149.776ZM259.957 149.776C259.957 149.249 259.873 148.785 259.705 148.385C259.537 147.985 259.305 147.673 259.009 147.449C258.713 147.225 258.373 147.113 257.989 147.113C257.597 147.113 257.253 147.225 256.957 147.449C256.661 147.673 256.429 147.985 256.261 148.385C256.093 148.785 256.009 149.249 256.009 149.776C256.009 150.304 256.093 150.768 256.261 151.168C256.429 151.56 256.661 151.868 256.957 152.092C257.253 152.316 257.597 152.428 257.989 152.428C258.373 152.428 258.713 152.316 259.009 152.092C259.305 151.868 259.537 151.56 259.705 151.168C259.873 150.768 259.957 150.304 259.957 149.776ZM265.364 155.08C264.756 155.08 264.209 154.936 263.721 154.648C263.233 154.36 262.865 153.976 262.617 153.496L263.277 152.92C263.501 153.288 263.797 153.584 264.165 153.808C264.54 154.032 264.944 154.144 265.376 154.144C265.744 154.144 266.072 154.064 266.36 153.904C266.648 153.744 266.876 153.524 267.044 153.244C267.212 152.956 267.296 152.628 267.296 152.26C267.296 151.9 267.212 151.584 267.044 151.312C266.884 151.04 266.664 150.828 266.384 150.676C266.112 150.524 265.804 150.448 265.46 150.448C265.116 150.448 264.792 150.524 264.488 150.676C264.193 150.828 263.949 151.044 263.757 151.324H262.809L263.769 146.441H267.908V147.413H264.548L264.033 150.124C264.209 149.94 264.428 149.796 264.692 149.692C264.964 149.58 265.264 149.524 265.592 149.524C266.12 149.524 266.592 149.64 267.008 149.872C267.432 150.104 267.764 150.424 268.004 150.832C268.252 151.24 268.376 151.712 268.376 152.248C268.376 152.808 268.24 153.3 267.968 153.724C267.704 154.156 267.344 154.488 266.888 154.72C266.432 154.96 265.924 155.08 265.364 155.08Z" fill="#737B8B"/>
<path opacity="0.5" d="M320.163 149.776C320.163 150.48 320.031 151.108 319.767 151.66C319.503 152.204 319.143 152.632 318.687 152.944C318.232 153.256 317.712 153.412 317.128 153.412C316.544 153.412 316.024 153.256 315.568 152.944C315.112 152.632 314.752 152.204 314.488 151.66C314.224 151.108 314.092 150.48 314.092 149.776C314.092 149.073 314.224 148.449 314.488 147.905C314.752 147.353 315.112 146.921 315.568 146.609C316.024 146.289 316.544 146.129 317.128 146.129C317.712 146.129 318.232 146.289 318.687 146.609C319.143 146.921 319.503 147.353 319.767 147.905C320.031 148.449 320.163 149.073 320.163 149.776ZM319.095 149.776C319.095 149.249 319.011 148.785 318.843 148.385C318.675 147.985 318.444 147.673 318.148 147.449C317.852 147.225 317.512 147.113 317.128 147.113C316.736 147.113 316.392 147.225 316.096 147.449C315.8 147.673 315.568 147.985 315.4 148.385C315.232 148.785 315.148 149.249 315.148 149.776C315.148 150.304 315.232 150.768 315.4 151.168C315.568 151.56 315.8 151.868 316.096 152.092C316.392 152.316 316.736 152.428 317.128 152.428C317.512 152.428 317.852 152.316 318.148 152.092C318.444 151.868 318.675 151.56 318.843 151.168C319.011 150.768 319.095 150.304 319.095 149.776ZM328.102 150.472C328.102 151.016 327.967 151.512 327.695 151.96C327.431 152.4 327.067 152.752 326.603 153.016C326.147 153.28 325.631 153.412 325.055 153.412C324.447 153.412 323.911 153.268 323.447 152.98C322.983 152.684 322.619 152.26 322.355 151.708C322.099 151.156 321.971 150.5 321.971 149.74C321.971 148.621 322.103 147.689 322.367 146.945C322.631 146.201 323.003 145.645 323.483 145.277C323.963 144.901 324.523 144.713 325.163 144.713C325.715 144.713 326.215 144.849 326.663 145.121C327.119 145.385 327.475 145.753 327.731 146.225L327.083 146.861C326.907 146.485 326.647 146.189 326.303 145.973C325.959 145.749 325.575 145.637 325.151 145.637C324.719 145.637 324.339 145.769 324.011 146.033C323.683 146.297 323.427 146.677 323.243 147.173C323.067 147.669 322.975 148.269 322.967 148.973C323.087 148.693 323.255 148.453 323.471 148.253C323.687 148.045 323.939 147.885 324.227 147.773C324.523 147.661 324.835 147.605 325.163 147.605C325.715 147.605 326.211 147.733 326.651 147.989C327.099 148.245 327.451 148.589 327.707 149.021C327.971 149.452 328.102 149.936 328.102 150.472ZM325.067 152.5C325.435 152.5 325.771 152.408 326.075 152.224C326.387 152.04 326.635 151.796 326.819 151.492C327.003 151.18 327.095 150.84 327.095 150.472C327.095 150.104 327.003 149.768 326.819 149.464C326.635 149.161 326.387 148.917 326.075 148.733C325.771 148.549 325.435 148.457 325.067 148.457C324.699 148.457 324.359 148.549 324.047 148.733C323.743 148.917 323.499 149.161 323.315 149.464C323.131 149.768 323.039 150.104 323.039 150.472C323.039 150.84 323.131 151.18 323.315 151.492C323.499 151.796 323.743 152.04 324.047 152.224C324.359 152.408 324.699 152.5 325.067 152.5Z" fill="#737B8B"/>
</svg>
