<svg width="64" height="26" viewBox="0 0 64 26" fill="none" xmlns="http://www.w3.org/2000/svg">
<rect x="0.295317" y="0.291411" width="63.4172" height="25.4172" rx="5.53681" fill="#F3F4F8" stroke="#94A2BC" stroke-width="0.582822"/>
<path d="M30.8139 13.4C30.8139 12.9667 30.8905 12.5433 31.0439 12.13C31.1972 11.71 31.4205 11.33 31.7139 10.99C32.0139 10.6433 32.3772 10.37 32.8039 10.17C33.2305 9.96333 33.7139 9.86 34.2539 9.86C34.8939 9.86 35.4472 10.0067 35.9139 10.3C36.3805 10.5867 36.7272 10.9567 36.9539 11.41L36.0739 12C35.9405 11.7133 35.7705 11.4867 35.5639 11.32C35.3639 11.1533 35.1439 11.0367 34.9039 10.97C34.6705 10.9033 34.4405 10.87 34.2139 10.87C33.8405 10.87 33.5139 10.9467 33.2339 11.1C32.9539 11.2467 32.7172 11.4433 32.5239 11.69C32.3372 11.9367 32.1939 12.2133 32.0939 12.52C32.0005 12.8267 31.9539 13.1333 31.9539 13.44C31.9539 13.78 32.0105 14.11 32.1239 14.43C32.2372 14.7433 32.3939 15.0233 32.5939 15.27C32.8005 15.51 33.0439 15.7 33.3239 15.84C33.6039 15.98 33.9105 16.05 34.2439 16.05C34.4705 16.05 34.7072 16.01 34.9539 15.93C35.2005 15.85 35.4272 15.7267 35.6339 15.56C35.8472 15.3867 36.0139 15.16 36.1339 14.88L37.0639 15.41C36.9172 15.7633 36.6872 16.0633 36.3739 16.31C36.0672 16.5567 35.7205 16.7433 35.3339 16.87C34.9539 16.9967 34.5772 17.06 34.2039 17.06C33.7039 17.06 33.2472 16.9567 32.8339 16.75C32.4205 16.5367 32.0639 16.2567 31.7639 15.91C31.4639 15.5567 31.2305 15.1633 31.0639 14.73C30.8972 14.29 30.8139 13.8467 30.8139 13.4ZM42.6498 17H41.5498V14.07C41.5498 13.5967 41.4631 13.2433 41.2898 13.01C41.1165 12.7767 40.8731 12.66 40.5598 12.66C40.3665 12.66 40.1665 12.7133 39.9598 12.82C39.7531 12.9267 39.5698 13.0733 39.4098 13.26C39.2498 13.44 39.1331 13.65 39.0598 13.89V17H37.9598V9.7H39.0598V12.82C39.2598 12.4667 39.5331 12.19 39.8798 11.99C40.2265 11.7833 40.5998 11.68 40.9998 11.68C41.3265 11.68 41.5965 11.7367 41.8098 11.85C42.0231 11.9633 42.1898 12.12 42.3098 12.32C42.4365 12.5133 42.5231 12.74 42.5698 13C42.6231 13.2533 42.6498 13.5233 42.6498 13.81V17ZM43.5466 15.47C43.5466 15.1367 43.6399 14.8467 43.8266 14.6C44.0199 14.3467 44.2833 14.1533 44.6166 14.02C44.9499 13.88 45.3366 13.81 45.7766 13.81C46.0099 13.81 46.2466 13.8267 46.4866 13.86C46.7333 13.8933 46.9499 13.9467 47.1366 14.02V13.69C47.1366 13.3233 47.0266 13.0367 46.8066 12.83C46.5866 12.6233 46.2699 12.52 45.8566 12.52C45.5633 12.52 45.2866 12.5733 45.0266 12.68C44.7666 12.78 44.4899 12.9233 44.1966 13.11L43.8266 12.37C44.1733 12.1367 44.5199 11.9633 44.8666 11.85C45.2199 11.7367 45.5899 11.68 45.9766 11.68C46.6766 11.68 47.2266 11.8667 47.6266 12.24C48.0333 12.6067 48.2366 13.13 48.2366 13.81V15.76C48.2366 15.8867 48.2566 15.9767 48.2966 16.03C48.3433 16.0833 48.4199 16.1133 48.5266 16.12V17C48.4266 17.02 48.3366 17.0333 48.2566 17.04C48.1766 17.0467 48.1099 17.05 48.0566 17.05C47.8233 17.05 47.6466 16.9933 47.5266 16.88C47.4066 16.7667 47.3366 16.6333 47.3166 16.48L47.2866 16.18C47.0599 16.4733 46.7699 16.7 46.4166 16.86C46.0633 17.02 45.7066 17.1 45.3466 17.1C44.9999 17.1 44.6899 17.03 44.4166 16.89C44.1433 16.7433 43.9299 16.5467 43.7766 16.3C43.6233 16.0533 43.5466 15.7767 43.5466 15.47ZM46.8766 15.79C46.9566 15.7033 47.0199 15.6167 47.0666 15.53C47.1133 15.4433 47.1366 15.3667 47.1366 15.3V14.7C46.9499 14.6267 46.7533 14.5733 46.5466 14.54C46.3399 14.5 46.1366 14.48 45.9366 14.48C45.5366 14.48 45.2099 14.56 44.9566 14.72C44.7099 14.88 44.5866 15.1 44.5866 15.38C44.5866 15.5333 44.6266 15.68 44.7066 15.82C44.7933 15.96 44.9133 16.0733 45.0666 16.16C45.2266 16.2467 45.4233 16.29 45.6566 16.29C45.8966 16.29 46.1266 16.2433 46.3466 16.15C46.5666 16.0567 46.7433 15.9367 46.8766 15.79ZM52.4421 16.73C52.3487 16.7767 52.2321 16.8267 52.0921 16.88C51.9521 16.9333 51.7921 16.98 51.6121 17.02C51.4387 17.06 51.2587 17.08 51.0721 17.08C50.8454 17.08 50.6354 17.04 50.4421 16.96C50.2487 16.88 50.0921 16.7533 49.9721 16.58C49.8587 16.4 49.8021 16.17 49.8021 15.89V12.62H49.1121V11.77H49.8021V10.05H50.9021V11.77H52.0421V12.62H50.9021V15.54C50.9154 15.72 50.9721 15.8533 51.0721 15.94C51.1787 16.0267 51.3087 16.07 51.4621 16.07C51.6154 16.07 51.7621 16.0433 51.9021 15.99C52.0421 15.9367 52.1454 15.8933 52.2121 15.86L52.4421 16.73Z" fill="#333333"/>
<path d="M18.2279 18.2836C18.7905 18.2451 19.3484 18.1552 19.8946 18.0151C20.5692 18.2179 21.2813 18.2638 21.9764 18.1493C22.0041 18.1459 22.032 18.1439 22.0599 18.1431C22.3079 18.1431 22.6332 18.2853 23.1079 18.5849V18.0924C23.1081 18.0067 23.1313 17.9225 23.1751 17.8487C23.2189 17.7749 23.2816 17.7142 23.3568 17.6729C23.5636 17.5561 23.7547 17.4249 23.9301 17.2791C24.6217 16.7013 25.0119 15.9298 25.0119 15.1138C25.0119 14.8444 24.9692 14.576 24.8848 14.32C25.0939 13.9361 25.2619 13.5312 25.3861 13.112C25.7861 13.7031 26.0012 14.4009 26.0039 15.1138C26.0039 16.2231 25.4812 17.2578 24.5755 18.0142C24.4238 18.1404 24.2652 18.2566 24.0999 18.3627V19.5164C24.0999 19.9129 23.6359 20.1413 23.3088 19.9049C22.9989 19.6768 22.6785 19.4633 22.3488 19.2649C22.2535 19.21 22.155 19.161 22.0537 19.1182C21.7785 19.159 21.5007 19.1795 21.2226 19.1796C20.0937 19.1796 19.0501 18.8444 18.2279 18.2836ZM12.2537 15.9769C10.8279 14.7831 10.0039 13.1556 10.0039 11.4116C10.0039 7.84889 13.4101 5 17.5692 5C21.7292 5 25.1364 7.848 25.1364 11.4116C25.1364 14.9751 21.7292 17.8222 17.5692 17.8222C17.1064 17.8227 16.6443 17.787 16.187 17.7156C15.9915 17.7609 15.2075 18.2204 14.0786 19.0338C13.6697 19.3289 13.0901 19.0444 13.0901 18.5476V16.5804C12.7973 16.3995 12.5181 16.1974 12.2546 15.976M16.2146 16.5022C16.2489 16.5022 16.2836 16.5049 16.3186 16.5102C16.7275 16.5778 17.1444 16.6119 17.5692 16.6124C21.083 16.6124 23.8946 14.2613 23.8946 11.4107C23.8946 8.56089 21.083 6.21067 17.5701 6.21067C14.0572 6.21067 11.2439 8.56089 11.2439 11.4107C11.2439 12.7884 11.9017 14.0862 13.0626 15.0578C13.3553 15.3019 13.6741 15.5212 14.019 15.7156C14.1126 15.7675 14.1907 15.8433 14.2453 15.9353C14.3 16.0273 14.3293 16.1321 14.3301 16.2391V17.3733C15.2235 16.7822 15.811 16.5022 16.2146 16.5022Z" fill="url(#paint0_linear_856_4676)"/>
<path d="M14.5034 12.5005C14.7686 12.5005 15.023 12.3951 15.2105 12.2076C15.3981 12.0201 15.5034 11.7657 15.5034 11.5005C15.5034 11.2353 15.3981 10.9809 15.2105 10.7934C15.023 10.6058 14.7686 10.5005 14.5034 10.5005C14.2382 10.5005 13.9838 10.6058 13.7963 10.7934C13.6088 10.9809 13.5034 11.2353 13.5034 11.5005C13.5034 11.7657 13.6088 12.0201 13.7963 12.2076C13.9838 12.3951 14.2382 12.5005 14.5034 12.5005Z" fill="url(#paint1_linear_856_4676)"/>
<path d="M17.7544 12.5005C18.0196 12.5005 18.274 12.3951 18.4615 12.2076C18.649 12.0201 18.7544 11.7657 18.7544 11.5005C18.7544 11.2353 18.649 10.9809 18.4615 10.7934C18.274 10.6058 18.0196 10.5005 17.7544 10.5005C17.4892 10.5005 17.2348 10.6058 17.0473 10.7934C16.8598 10.9809 16.7544 11.2353 16.7544 11.5005C16.7544 11.7657 16.8598 12.0201 17.0473 12.2076C17.2348 12.3951 17.4892 12.5005 17.7544 12.5005Z" fill="url(#paint2_linear_856_4676)"/>
<path d="M21.0039 12.5005C21.2691 12.5005 21.5235 12.3951 21.711 12.2076C21.8986 12.0201 22.0039 11.7657 22.0039 11.5005C22.0039 11.2353 21.8986 10.9809 21.711 10.7934C21.5235 10.6058 21.2691 10.5005 21.0039 10.5005C20.7387 10.5005 20.4843 10.6058 20.2968 10.7934C20.1093 10.9809 20.0039 11.2353 20.0039 11.5005C20.0039 11.7657 20.1093 12.0201 20.2968 12.2076C20.4843 12.3951 20.7387 12.5005 21.0039 12.5005Z" fill="url(#paint3_linear_856_4676)"/>
<defs>
<linearGradient id="paint0_linear_856_4676" x1="18.0039" y1="5" x2="18.0039" y2="20.0009" gradientUnits="userSpaceOnUse">
<stop stop-color="#1BC9FA"/>
<stop offset="1" stop-color="#1778F0"/>
</linearGradient>
<linearGradient id="paint1_linear_856_4676" x1="18.0039" y1="5.00004" x2="18.0039" y2="20.0009" gradientUnits="userSpaceOnUse">
<stop stop-color="#1BC9FA"/>
<stop offset="1" stop-color="#1778F0"/>
</linearGradient>
<linearGradient id="paint2_linear_856_4676" x1="18.0042" y1="5.00004" x2="18.0042" y2="20.0009" gradientUnits="userSpaceOnUse">
<stop stop-color="#1BC9FA"/>
<stop offset="1" stop-color="#1778F0"/>
</linearGradient>
<linearGradient id="paint3_linear_856_4676" x1="18.0039" y1="4.99915" x2="18.0039" y2="20" gradientUnits="userSpaceOnUse">
<stop stop-color="#1BC9FA"/>
<stop offset="1" stop-color="#1778F0"/>
</linearGradient>
</defs>
</svg>
