<svg width="37" height="37" viewBox="0 0 37 37" fill="none" xmlns="http://www.w3.org/2000/svg">
<path fill-rule="evenodd" clip-rule="evenodd" d="M14.7864 23.4441C20.4736 23.4441 25.3344 24.3059 25.3344 27.7484C25.3344 31.191 20.5059 32.0774 14.7864 32.0774C9.09761 32.0774 4.23828 31.2233 4.23828 27.7793C4.23828 24.3352 9.06524 23.4441 14.7864 23.4441Z" stroke="#CBCBCB" stroke-width="2.92748" stroke-linecap="round" stroke-linejoin="round"/>
<path fill-rule="evenodd" clip-rule="evenodd" d="M14.7862 18.5307C11.0522 18.5307 8.02441 15.5044 8.02441 11.7705C8.02441 8.03655 11.0522 5.01025 14.7862 5.01025C18.5185 5.01025 21.5464 8.03655 21.5464 11.7705C21.5602 15.4905 18.554 18.5168 14.834 18.5307H14.7862Z" stroke="#CBCBCB" stroke-width="2.92748" stroke-linecap="round" stroke-linejoin="round"/>
<path d="M25.4102 16.7756C27.8784 16.4288 29.7792 14.3105 29.7839 11.7467C29.7839 9.21993 27.9416 7.12326 25.5258 6.72705" stroke="#CBCBCB" stroke-width="2.92748" stroke-linecap="round" stroke-linejoin="round"/>
<path d="M28.666 22.7124C31.0571 23.0685 32.7268 23.9072 32.7268 25.6339C32.7268 26.8225 31.9405 27.5933 30.6702 28.0759" stroke="#CBCBCB" stroke-width="2.92748" stroke-linecap="round" stroke-linejoin="round"/>
</svg>
