<svg width="37" height="37" viewBox="0 0 37 37" fill="none" xmlns="http://www.w3.org/2000/svg">
<path fill-rule="evenodd" clip-rule="evenodd" d="M28.2646 23.7059C27.44 23.7059 26.275 23.8199 25.0621 23.986C24.4955 24.0636 24.0634 24.4957 23.9858 25.0623C23.8197 26.2752 23.7057 27.4402 23.7057 28.2648C23.7057 29.0893 23.8197 30.2544 23.9858 31.4673C24.0634 32.0339 24.4955 32.4659 25.0621 32.5435C26.275 32.7096 27.44 32.8236 28.2646 32.8236C29.0892 32.8236 30.2543 32.7096 31.4671 32.5435C32.0338 32.4659 32.4658 32.0339 32.5434 31.4673C32.7095 30.2544 32.8235 29.0893 32.8235 28.2648C32.8235 27.4402 32.7095 26.2752 32.5434 25.0623C32.4658 24.4957 32.0338 24.0636 31.4671 23.986C30.2543 23.8199 29.0892 23.7059 28.2646 23.7059ZM24.5672 20.3727C22.3791 20.6723 20.6721 22.3794 20.3724 24.5674C20.2005 25.8224 20.0586 27.1855 20.0586 28.2648C20.0586 29.344 20.2005 30.7071 20.3724 31.9621C20.6721 34.1502 22.3791 35.8572 24.5672 36.1569C25.8222 36.3288 27.1854 36.4707 28.2646 36.4707C29.3439 36.4707 30.707 36.3288 31.962 36.1569C34.1501 35.8572 35.8572 34.1502 36.1568 31.9621C36.3287 30.7071 36.4706 29.344 36.4706 28.2648C36.4706 27.1855 36.3287 25.8224 36.1568 24.5674C35.8572 22.3794 34.1501 20.6723 31.962 20.3727C30.707 20.2008 29.3439 20.0588 28.2646 20.0588C27.1854 20.0588 25.8222 20.2008 24.5672 20.3727Z" fill="#CBCBCB"/>
<path fill-rule="evenodd" clip-rule="evenodd" d="M8.20602 23.7059C7.38144 23.7059 6.21638 23.8199 5.00351 23.986C4.43687 24.0636 4.00481 24.4957 3.92721 25.0623C3.7611 26.2752 3.64712 27.4402 3.64712 28.2648C3.64712 29.0893 3.7611 30.2544 3.92721 31.4673C4.00481 32.0339 4.43687 32.4659 5.00351 32.5435C6.21638 32.7096 7.38144 32.8236 8.20602 32.8236C9.0306 32.8236 10.1957 32.7096 11.4085 32.5435C11.9752 32.4659 12.4072 32.0339 12.4848 31.4673C12.6509 30.2544 12.7649 29.0893 12.7649 28.2648C12.7649 27.4402 12.6509 26.2752 12.4848 25.0623C12.4072 24.4957 11.9752 24.0636 11.4085 23.986C10.1957 23.8199 9.0306 23.7059 8.20602 23.7059ZM4.50864 20.3727C2.32054 20.6723 0.613488 22.3794 0.31382 24.5674C0.141943 25.8224 0 27.1855 0 28.2648C0 29.344 0.141943 30.7071 0.31382 31.9621C0.613488 34.1502 2.32054 35.8572 4.50864 36.1569C5.76363 36.3288 7.12677 36.4707 8.20602 36.4707C9.28528 36.4707 10.6484 36.3288 11.9034 36.1569C14.0915 35.8572 15.7986 34.1502 16.0982 31.9621C16.2701 30.7071 16.412 29.344 16.412 28.2648C16.412 27.1855 16.2701 25.8224 16.0982 24.5674C15.7986 22.3794 14.0915 20.6723 11.9034 20.3727C10.6484 20.2008 9.28528 20.0588 8.20602 20.0588C7.12677 20.0588 5.76363 20.2008 4.50864 20.3727Z" fill="#CBCBCB"/>
<path fill-rule="evenodd" clip-rule="evenodd" d="M28.2646 3.64708C27.44 3.64708 26.275 3.76106 25.0621 3.92717C24.4955 4.00477 24.0634 4.43683 23.9858 5.00345C23.8197 6.21632 23.7057 7.38137 23.7057 8.20594C23.7057 9.03051 23.8197 10.1956 23.9858 11.4084C24.0634 11.975 24.4955 12.4071 25.0621 12.4847C26.275 12.6508 27.44 12.7648 28.2646 12.7648C29.0892 12.7648 30.2543 12.6508 31.4671 12.4847C32.0338 12.4071 32.4658 11.975 32.5434 11.4084C32.7095 10.1956 32.8235 9.03051 32.8235 8.20594C32.8235 7.38137 32.7095 6.21632 32.5434 5.00345C32.4658 4.43683 32.0338 4.00477 31.4671 3.92717C30.2543 3.76106 29.0892 3.64708 28.2646 3.64708ZM24.5672 0.313816C22.3791 0.613482 20.6721 2.32052 20.3724 4.50859C20.2005 5.76357 20.0586 7.12669 20.0586 8.20594C20.0586 9.28518 20.2005 10.6483 20.3724 11.9033C20.6721 14.0914 22.3791 15.7984 24.5672 16.0981C25.8222 16.2699 27.1854 16.4119 28.2646 16.4119C29.3439 16.4119 30.707 16.2699 31.962 16.0981C34.1501 15.7984 35.8572 14.0914 36.1568 11.9033C36.3287 10.6483 36.4706 9.28518 36.4706 8.20594C36.4706 7.12669 36.3287 5.76357 36.1568 4.50859C35.8572 2.32052 34.1501 0.613482 31.962 0.313816C30.707 0.141942 29.3439 0 28.2646 0C27.1854 0 25.8222 0.141942 24.5672 0.313816Z" fill="#CBCBCB"/>
<path fill-rule="evenodd" clip-rule="evenodd" d="M8.20602 3.64708C7.38144 3.64708 6.21638 3.76106 5.00351 3.92717C4.43687 4.00477 4.00481 4.43683 3.92721 5.00345C3.7611 6.21632 3.64712 7.38137 3.64712 8.20594C3.64712 9.03051 3.7611 10.1956 3.92721 11.4084C4.00481 11.975 4.43687 12.4071 5.00351 12.4847C6.21638 12.6508 7.38144 12.7648 8.20602 12.7648C9.0306 12.7648 10.1957 12.6508 11.4085 12.4847C11.9752 12.4071 12.4072 11.975 12.4848 11.4084C12.6509 10.1956 12.7649 9.03051 12.7649 8.20594C12.7649 7.38137 12.6509 6.21632 12.4848 5.00345C12.4072 4.43683 11.9752 4.00477 11.4085 3.92717C10.1957 3.76106 9.0306 3.64708 8.20602 3.64708ZM4.50864 0.313816C2.32054 0.613482 0.613488 2.32052 0.31382 4.50859C0.141943 5.76357 0 7.12669 0 8.20594C0 9.28518 0.141943 10.6483 0.31382 11.9033C0.613488 14.0914 2.32054 15.7984 4.50864 16.0981C5.76363 16.2699 7.12677 16.4119 8.20602 16.4119C9.28528 16.4119 10.6484 16.2699 11.9034 16.0981C14.0915 15.7984 15.7986 14.0914 16.0982 11.9033C16.2701 10.6483 16.412 9.28518 16.412 8.20594C16.412 7.12669 16.2701 5.76357 16.0982 4.50859C15.7986 2.32052 14.0915 0.613482 11.9034 0.313816C10.6484 0.141942 9.28528 0 8.20602 0C7.12677 0 5.76363 0.141942 4.50864 0.313816Z" fill="#CBCBCB"/>
</svg>
