<svg width="27" height="23" viewBox="0 0 27 23" fill="none" xmlns="http://www.w3.org/2000/svg">
<rect x="0.709263" y="0.205357" width="25.8003" height="22.5893" rx="6.36607" fill="#F3F4F8" stroke="#C4C4C4" stroke-width="0.410714"/>
<path fill-rule="evenodd" clip-rule="evenodd" d="M19.1445 6.57148L18.3947 17.7569C18.3668 18.1753 18.1576 18.5685 17.8101 18.8561C17.4626 19.1436 17.0029 19.3037 16.5253 19.3036H9.75912C9.28147 19.3037 8.82184 19.1436 8.47432 18.8561C8.12679 18.5685 7.91766 18.1753 7.88971 17.7569L7.14177 6.57148H5.1853V5.75005C5.1853 5.64112 5.23462 5.53666 5.32239 5.45963C5.41017 5.38261 5.52922 5.33934 5.65336 5.33934H20.6311C20.7552 5.33934 20.8742 5.38261 20.962 5.45963C21.0498 5.53666 21.0991 5.64112 21.0991 5.75005V6.57148H19.1445ZM11.27 3.28577H15.0144C15.1386 3.28577 15.2576 3.32904 15.3454 3.40606C15.4332 3.48309 15.4825 3.58755 15.4825 3.69648V4.51791H10.8019V3.69648C10.8019 3.58755 10.8513 3.48309 10.939 3.40606C11.0268 3.32904 11.1459 3.28577 11.27 3.28577ZM10.3339 8.62505L10.8019 16.0179H12.2061L11.8317 8.62505H10.3339ZM14.5464 8.62505L14.0783 16.0179H15.4825L15.9505 8.62505H14.5464Z" fill="#E2E2E2"/>
</svg>
