<svg width="223" height="259" viewBox="0 0 223 259" fill="none" xmlns="http://www.w3.org/2000/svg">
<path d="M111.5 243.893C173.08 243.893 223 193.973 223 132.393C223 70.8136 173.08 20.8933 111.5 20.8933C49.9202 20.8933 0 70.8136 0 132.393C0 193.973 49.9202 243.893 111.5 243.893Z" fill="url(#paint0_linear_1081_2372)"/>
<g filter="url(#filter0_d_1081_2372)">
<path d="M175.427 84.8198H47.574C43.4686 84.8198 40.1406 88.1478 40.1406 92.2532V248.353C40.1406 252.458 43.4686 255.786 47.574 255.786H175.427C179.533 255.786 182.861 252.458 182.861 248.353V92.2532C182.861 88.1478 179.533 84.8198 175.427 84.8198Z" fill="white"/>
</g>
<path d="M96.6329 107.12H57.9795C55.5163 107.12 53.5195 109.117 53.5195 111.58C53.5195 114.043 55.5163 116.04 57.9795 116.04H96.6329C99.0961 116.04 101.093 114.043 101.093 111.58C101.093 109.117 99.0961 107.12 96.6329 107.12Z" fill="#B4DAFF"/>
<path d="M123.393 126.447H57.9795C55.5163 126.447 53.5195 128.443 53.5195 130.907C53.5195 133.37 55.5163 135.367 57.9795 135.367H123.393C125.856 135.367 127.853 133.37 127.853 130.907C127.853 128.443 125.856 126.447 123.393 126.447Z" fill="#DFEAFB"/>
<path d="M96.6329 147.26H57.9795C55.5163 147.26 53.5195 149.257 53.5195 151.72C53.5195 154.183 55.5163 156.18 57.9795 156.18H96.6329C99.0961 156.18 101.093 154.183 101.093 151.72C101.093 149.257 99.0961 147.26 96.6329 147.26Z" fill="#B4DAFF"/>
<path d="M123.393 166.587H57.9795C55.5163 166.587 53.5195 168.583 53.5195 171.047C53.5195 173.51 55.5163 175.507 57.9795 175.507H123.393C125.856 175.507 127.853 173.51 127.853 171.047C127.853 168.583 125.856 166.587 123.393 166.587Z" fill="#DFEAFB"/>
<path d="M96.6329 187.4H57.9795C55.5163 187.4 53.5195 189.397 53.5195 191.86C53.5195 194.323 55.5163 196.32 57.9795 196.32H96.6329C99.0961 196.32 101.093 194.323 101.093 191.86C101.093 189.397 99.0961 187.4 96.6329 187.4Z" fill="#B4DAFF"/>
<path d="M123.393 206.727H57.9795C55.5163 206.727 53.5195 208.724 53.5195 211.187C53.5195 213.65 55.5163 215.647 57.9795 215.647H123.393C125.856 215.647 127.853 213.65 127.853 211.187C127.853 208.724 125.856 206.727 123.393 206.727Z" fill="#DFEAFB"/>
<g filter="url(#filter1_d_1081_2372)">
<path d="M175.427 9H47.574C43.4686 9 40.1406 12.328 40.1406 16.4333V61.0333C40.1406 65.1386 43.4686 68.4667 47.574 68.4667H175.427C179.533 68.4667 182.861 65.1386 182.861 61.0333V16.4333C182.861 12.328 179.533 9 175.427 9Z" fill="#1485FD"/>
</g>
<path d="M96.6368 25.3535H57.9834C55.5202 25.3535 53.5234 27.3503 53.5234 29.8135C53.5234 32.2767 55.5202 34.2735 57.9834 34.2735H96.6368C99.1 34.2735 101.097 32.2767 101.097 29.8135C101.097 27.3503 99.1 25.3535 96.6368 25.3535Z" fill="#B4DAFF"/>
<path d="M123.397 44.6802H57.9834C55.5202 44.6802 53.5234 46.677 53.5234 49.1402C53.5234 51.6034 55.5202 53.6002 57.9834 53.6002H123.397C125.86 53.6002 127.857 51.6034 127.857 49.1402C127.857 46.677 125.86 44.6802 123.397 44.6802Z" fill="white"/>
<defs>
<filter id="filter0_d_1081_2372" x="34.1406" y="75.8198" width="154.719" height="182.967" filterUnits="userSpaceOnUse" color-interpolation-filters="sRGB">
<feFlood flood-opacity="0" result="BackgroundImageFix"/>
<feColorMatrix in="SourceAlpha" type="matrix" values="0 0 0 0 0 0 0 0 0 0 0 0 0 0 0 0 0 0 127 0" result="hardAlpha"/>
<feOffset dy="-3"/>
<feGaussianBlur stdDeviation="3"/>
<feColorMatrix type="matrix" values="0 0 0 0 0.788235 0 0 0 0 0.803922 0 0 0 0 0.85098 0 0 0 0.349 0"/>
<feBlend mode="normal" in2="BackgroundImageFix" result="effect1_dropShadow_1081_2372"/>
<feBlend mode="normal" in="SourceGraphic" in2="effect1_dropShadow_1081_2372" result="shape"/>
</filter>
<filter id="filter1_d_1081_2372" x="34.1406" y="0" width="154.719" height="71.4666" filterUnits="userSpaceOnUse" color-interpolation-filters="sRGB">
<feFlood flood-opacity="0" result="BackgroundImageFix"/>
<feColorMatrix in="SourceAlpha" type="matrix" values="0 0 0 0 0 0 0 0 0 0 0 0 0 0 0 0 0 0 127 0" result="hardAlpha"/>
<feOffset dy="-3"/>
<feGaussianBlur stdDeviation="3"/>
<feColorMatrix type="matrix" values="0 0 0 0 0.788235 0 0 0 0 0.803922 0 0 0 0 0.85098 0 0 0 0.349 0"/>
<feBlend mode="normal" in2="BackgroundImageFix" result="effect1_dropShadow_1081_2372"/>
<feBlend mode="normal" in="SourceGraphic" in2="effect1_dropShadow_1081_2372" result="shape"/>
</filter>
<linearGradient id="paint0_linear_1081_2372" x1="111.5" y1="20.8933" x2="111.5" y2="243.893" gradientUnits="userSpaceOnUse">
<stop stop-color="#E8F0FE"/>
<stop offset="1" stop-color="#E8F0FE"/>
</linearGradient>
</defs>
</svg>
