<svg width="337" height="175" viewBox="0 0 337 175" fill="none" xmlns="http://www.w3.org/2000/svg">
<path d="M275.4 0H68.5031C58.9809 0 51.2617 5.59644 51.2617 12.5V162.5C51.2617 169.404 58.9809 175 68.5031 175H275.4C284.922 175 292.641 169.404 292.641 162.5V12.5C292.641 5.59644 284.922 0 275.4 0Z" fill="url(#paint0_linear_1066_4797)"/>
<g filter="url(#filter0_d_1066_4797)">
<path d="M88.8139 26.7861H321.727C324.015 26.7861 326.209 27.695 327.827 29.3127C329.445 30.9305 330.354 33.1247 330.354 35.4125V78.5444C330.354 80.8322 329.445 83.0264 327.827 84.6441C326.209 86.2619 324.015 87.1707 321.727 87.1707H88.8139C86.5261 87.1707 84.3319 86.2619 82.7141 84.6441C81.0964 83.0264 80.1875 80.8322 80.1875 78.5444V35.4125C80.1875 33.1247 81.0964 30.9305 82.7141 29.3127C84.3319 27.695 86.5261 26.7861 88.8139 26.7861V26.7861Z" fill="white"/>
</g>
<path d="M216.482 40.5879H171.625C168.767 40.5879 166.449 42.9052 166.449 45.7637C166.449 48.6222 168.767 50.9395 171.625 50.9395H216.482C219.341 50.9395 221.658 48.6222 221.658 45.7637C221.658 42.9052 219.341 40.5879 216.482 40.5879Z" fill="#B4DAFF"/>
<path d="M247.538 63.0161H171.625C168.767 63.0161 166.449 65.3334 166.449 68.1919C166.449 71.0505 168.767 73.3678 171.625 73.3678H247.538C250.396 73.3678 252.713 71.0505 252.713 68.1919C252.713 65.3334 250.396 63.0161 247.538 63.0161Z" fill="#DEE9FC"/>
<path d="M132.804 73.3691C141.856 73.3691 149.194 66.031 149.194 56.979C149.194 47.927 141.856 40.5889 132.804 40.5889C123.752 40.5889 116.414 47.927 116.414 56.979C116.414 66.031 123.752 73.3691 132.804 73.3691Z" fill="#1485FD"/>
<path d="M128.746 57.666H129.53L127.71 52.843H126.905L125.085 57.666H125.876L126.338 56.462H128.284L128.746 57.666ZM127.311 53.774L128.032 55.797H126.59L127.311 53.774ZM132.13 53.529C132.655 53.529 132.872 53.97 132.872 54.376C132.872 54.789 132.634 55.216 132.102 55.216H130.954V53.529H132.13ZM130.205 57.666H130.954V55.895H132.144C133.18 55.895 133.614 55.139 133.614 54.376C133.614 53.613 133.18 52.843 132.144 52.843H130.205V57.666Z" fill="white"/>
<g filter="url(#filter1_d_1066_4797)">
<path d="M14.6264 100.972H247.54C249.828 100.972 252.022 101.881 253.64 103.499C255.257 105.117 256.166 107.311 256.166 109.599V152.73C256.166 155.018 255.257 157.212 253.64 158.83C252.022 160.448 249.828 161.357 247.54 161.357H14.6264C12.3386 161.357 10.1444 160.448 8.52662 158.83C6.90885 157.212 6 155.018 6 152.73V109.599C6 107.311 6.90885 105.117 8.52662 103.499C10.1444 101.881 12.3386 100.972 14.6264 100.972V100.972Z" fill="white"/>
</g>
<path d="M142.291 114.775H97.4337C94.5751 114.775 92.2578 117.092 92.2578 119.951C92.2578 122.809 94.5751 125.127 97.4337 125.127H142.291C145.15 125.127 147.467 122.809 147.467 119.951C147.467 117.092 145.15 114.775 142.291 114.775Z" fill="#B4DAFF"/>
<path d="M173.346 137.203H97.4337C94.5751 137.203 92.2578 139.52 92.2578 142.379C92.2578 145.237 94.5751 147.555 97.4337 147.555H173.346C176.205 147.555 178.522 145.237 178.522 142.379C178.522 139.52 176.205 137.203 173.346 137.203Z" fill="#DEE9FC"/>
<path d="M36.191 147.555C45.243 147.555 52.5812 140.217 52.5812 131.165C52.5812 122.113 45.243 114.775 36.191 114.775C27.1389 114.775 19.8008 122.113 19.8008 131.165C19.8008 140.217 27.1389 147.555 36.191 147.555Z" fill="#1485FD"/>
<path d="M30.0792 131.758C31.1713 131.758 31.5843 131.037 31.5843 130.183V125.304H30.8633V130.183C30.8633 130.659 30.6463 131.065 30.0792 131.065C30.0232 131.065 29.7082 131.051 29.5892 131.009L29.5192 131.681C29.7012 131.723 29.9462 131.758 30.0792 131.758ZM34.2994 130.197C35.2724 130.197 35.9304 129.56 35.9304 128.755C35.9304 128.048 35.4194 127.607 34.6074 127.404L33.9984 127.25C33.3894 127.096 33.3404 126.774 33.3404 126.62C33.3404 126.179 33.7464 125.906 34.2014 125.906C34.6984 125.906 35.0554 126.214 35.0554 126.669H35.7694C35.7694 125.794 35.0904 125.248 34.2224 125.248C33.3684 125.248 32.6194 125.787 32.6194 126.634C32.6194 127.033 32.7874 127.642 33.8164 127.901L34.4324 128.055C34.8244 128.16 35.2094 128.363 35.2094 128.79C35.2094 129.189 34.8734 129.539 34.2994 129.539C33.6974 129.539 33.3124 129.14 33.2984 128.727H32.5844C32.5844 129.504 33.2704 130.197 34.2994 130.197Z" fill="white"/>
<defs>
<filter id="filter0_d_1066_4797" x="74.1875" y="23.7861" width="262.168" height="72.3848" filterUnits="userSpaceOnUse" color-interpolation-filters="sRGB">
<feFlood flood-opacity="0" result="BackgroundImageFix"/>
<feColorMatrix in="SourceAlpha" type="matrix" values="0 0 0 0 0 0 0 0 0 0 0 0 0 0 0 0 0 0 127 0" result="hardAlpha"/>
<feOffset dy="3"/>
<feGaussianBlur stdDeviation="3"/>
<feColorMatrix type="matrix" values="0 0 0 0 0 0 0 0 0 0 0 0 0 0 0 0 0 0 0.161 0"/>
<feBlend mode="normal" in2="BackgroundImageFix" result="effect1_dropShadow_1066_4797"/>
<feBlend mode="normal" in="SourceGraphic" in2="effect1_dropShadow_1066_4797" result="shape"/>
</filter>
<filter id="filter1_d_1066_4797" x="0" y="97.9722" width="262.168" height="72.3848" filterUnits="userSpaceOnUse" color-interpolation-filters="sRGB">
<feFlood flood-opacity="0" result="BackgroundImageFix"/>
<feColorMatrix in="SourceAlpha" type="matrix" values="0 0 0 0 0 0 0 0 0 0 0 0 0 0 0 0 0 0 127 0" result="hardAlpha"/>
<feOffset dy="3"/>
<feGaussianBlur stdDeviation="3"/>
<feColorMatrix type="matrix" values="0 0 0 0 0 0 0 0 0 0 0 0 0 0 0 0 0 0 0.161 0"/>
<feBlend mode="normal" in2="BackgroundImageFix" result="effect1_dropShadow_1066_4797"/>
<feBlend mode="normal" in="SourceGraphic" in2="effect1_dropShadow_1066_4797" result="shape"/>
</filter>
<linearGradient id="paint0_linear_1066_4797" x1="171.951" y1="0" x2="171.951" y2="175" gradientUnits="userSpaceOnUse">
<stop stop-color="#E8F0FE"/>
<stop offset="1" stop-color="#E8F0FE"/>
</linearGradient>
</defs>
</svg>
