<svg width="163" height="50" viewBox="0 0 163 50" fill="none" xmlns="http://www.w3.org/2000/svg">
<rect x="0.5" y="0.5" width="162" height="49" rx="4.5" fill="#F3F4F8" stroke="#94A2BC"/>
<path d="M58.7126 30.0825V31.6665H50.9206V20.3065H58.5686V21.8905H52.7126V25.1225H57.7846V26.6105H52.7126V30.0825H58.7126ZM61.3293 23.2985L63.3133 26.1625L63.4573 26.4345L63.6013 26.1625L65.5693 23.2985H67.4733L64.4653 27.4905L67.5052 31.6665H65.6013L63.6013 28.8185L63.4573 28.5625L63.3133 28.8185L61.3133 31.6665H59.4093L62.4493 27.5065L59.4413 23.2985H61.3293ZM73.4486 31.8265C72.7766 31.8265 72.1846 31.6665 71.6726 31.3465C71.1606 31.0265 70.7553 30.6105 70.4566 30.0985V35.0745H68.6966V23.2985H70.2486V24.8025C70.5686 24.3012 70.9846 23.9012 71.4966 23.6025C72.0086 23.3038 72.5793 23.1545 73.2086 23.1545C73.7846 23.1545 74.3126 23.2718 74.7926 23.5065C75.2726 23.7305 75.6886 24.0452 76.0406 24.4505C76.3926 24.8558 76.6646 25.3198 76.8566 25.8425C77.0593 26.3545 77.1606 26.8985 77.1606 27.4745C77.1606 28.2745 77.0006 29.0052 76.6806 29.6665C76.3713 30.3278 75.934 30.8558 75.3686 31.2505C74.814 31.6345 74.174 31.8265 73.4486 31.8265ZM72.8726 30.3225C73.246 30.3225 73.582 30.2425 73.8806 30.0825C74.19 29.9225 74.4513 29.7092 74.6646 29.4425C74.8886 29.1758 75.0593 28.8718 75.1766 28.5305C75.294 28.1892 75.3526 27.8372 75.3526 27.4745C75.3526 27.0905 75.2886 26.7278 75.1606 26.3865C75.0326 26.0452 74.846 25.7465 74.6006 25.4905C74.366 25.2345 74.0886 25.0318 73.7686 24.8825C73.4593 24.7332 73.118 24.6585 72.7446 24.6585C72.5206 24.6585 72.286 24.7012 72.0406 24.7865C71.7953 24.8718 71.566 24.9892 71.3526 25.1385C71.1393 25.2878 70.9526 25.4638 70.7926 25.6665C70.6326 25.8692 70.5206 26.0825 70.4566 26.3065V28.4985C70.606 28.8398 70.8033 29.1492 71.0486 29.4265C71.294 29.6932 71.5766 29.9118 71.8966 30.0825C72.2166 30.2425 72.542 30.3225 72.8726 30.3225ZM82.5035 31.8265C81.8422 31.8265 81.2502 31.7145 80.7275 31.4905C80.2048 31.2558 79.7515 30.9358 79.3675 30.5305C78.9942 30.1252 78.7062 29.6665 78.5035 29.1545C78.3008 28.6318 78.1995 28.0772 78.1995 27.4905C78.1995 26.9038 78.3008 26.3492 78.5035 25.8265C78.7062 25.3038 78.9942 24.8452 79.3675 24.4505C79.7515 24.0452 80.2048 23.7305 80.7275 23.5065C81.2608 23.2718 81.8528 23.1545 82.5035 23.1545C83.1542 23.1545 83.7408 23.2718 84.2635 23.5065C84.7968 23.7305 85.2502 24.0452 85.6235 24.4505C86.0075 24.8452 86.3008 25.3038 86.5035 25.8265C86.7062 26.3492 86.8075 26.9038 86.8075 27.4905C86.8075 28.0772 86.7062 28.6318 86.5035 29.1545C86.3008 29.6665 86.0075 30.1252 85.6235 30.5305C85.2502 30.9358 84.7968 31.2558 84.2635 31.4905C83.7408 31.7145 83.1542 31.8265 82.5035 31.8265ZM80.0075 27.5065C80.0075 28.0398 80.1195 28.5198 80.3435 28.9465C80.5675 29.3732 80.8662 29.7092 81.2395 29.9545C81.6128 30.1998 82.0342 30.3225 82.5035 30.3225C82.9622 30.3225 83.3782 30.1998 83.7515 29.9545C84.1355 29.6985 84.4395 29.3572 84.6635 28.9305C84.8875 28.4932 84.9995 28.0132 84.9995 27.4905C84.9995 26.9572 84.8875 26.4772 84.6635 26.0505C84.4395 25.6238 84.1355 25.2878 83.7515 25.0425C83.3782 24.7865 82.9622 24.6585 82.5035 24.6585C82.0342 24.6585 81.6128 24.7865 81.2395 25.0425C80.8662 25.2985 80.5675 25.6398 80.3435 26.0665C80.1195 26.4825 80.0075 26.9625 80.0075 27.5065ZM93.0725 24.8185C92.3898 24.8292 91.7818 24.9838 91.2485 25.2825C90.7258 25.5812 90.3525 26.0025 90.1285 26.5465V31.6665H88.3685V23.2985H90.0005V25.1705C90.2885 24.5945 90.6672 24.1358 91.1365 23.7945C91.6058 23.4425 92.1018 23.2505 92.6245 23.2185C92.7312 23.2185 92.8165 23.2185 92.8805 23.2185C92.9552 23.2185 93.0192 23.2238 93.0725 23.2345V24.8185ZM99.0089 31.2345C98.8595 31.3092 98.6729 31.3892 98.4489 31.4745C98.2249 31.5598 97.9689 31.6345 97.6809 31.6985C97.4035 31.7625 97.1155 31.7945 96.8169 31.7945C96.4542 31.7945 96.1182 31.7305 95.8089 31.6025C95.4995 31.4745 95.2489 31.2718 95.0569 30.9945C94.8755 30.7065 94.7849 30.3385 94.7849 29.8905V24.6585H93.6809V23.2985H94.7849V20.5465H96.5449V23.2985H98.3689V24.6585H96.5449V29.3305C96.5662 29.6185 96.6569 29.8318 96.8169 29.9705C96.9875 30.1092 97.1955 30.1785 97.4409 30.1785C97.6862 30.1785 97.9209 30.1358 98.1449 30.0505C98.3689 29.9652 98.5342 29.8958 98.6409 29.8425L99.0089 31.2345ZM104.405 31.6665V20.3065H108.437C109.664 20.3065 110.688 20.5625 111.509 21.0745C112.33 21.5758 112.944 22.2585 113.349 23.1225C113.765 23.9758 113.973 24.9252 113.973 25.9705C113.973 27.1225 113.744 28.1252 113.285 28.9785C112.837 29.8318 112.197 30.4932 111.365 30.9625C110.533 31.4318 109.557 31.6665 108.437 31.6665H104.405ZM112.149 25.9705C112.149 25.1705 112 24.4665 111.701 23.8585C111.413 23.2398 110.992 22.7598 110.437 22.4185C109.893 22.0665 109.226 21.8905 108.437 21.8905H106.197V30.0825H108.437C109.237 30.0825 109.909 29.9012 110.453 29.5385C111.008 29.1758 111.429 28.6852 111.717 28.0665C112.005 27.4478 112.149 26.7492 112.149 25.9705ZM114.932 29.2185C114.932 28.6852 115.082 28.2212 115.38 27.8265C115.69 27.4212 116.111 27.1118 116.644 26.8985C117.178 26.6745 117.796 26.5625 118.5 26.5625C118.874 26.5625 119.252 26.5892 119.636 26.6425C120.031 26.6958 120.378 26.7812 120.676 26.8985V26.3705C120.676 25.7838 120.5 25.3252 120.148 24.9945C119.796 24.6638 119.29 24.4985 118.628 24.4985C118.159 24.4985 117.716 24.5838 117.3 24.7545C116.884 24.9145 116.442 25.1438 115.972 25.4425L115.38 24.2585C115.935 23.8852 116.49 23.6078 117.044 23.4265C117.61 23.2452 118.202 23.1545 118.82 23.1545C119.94 23.1545 120.82 23.4532 121.46 24.0505C122.111 24.6372 122.436 25.4745 122.436 26.5625V29.6825C122.436 29.8852 122.468 30.0292 122.532 30.1145C122.607 30.1998 122.73 30.2478 122.9 30.2585V31.6665C122.74 31.6985 122.596 31.7198 122.468 31.7305C122.34 31.7412 122.234 31.7465 122.148 31.7465C121.775 31.7465 121.492 31.6558 121.3 31.4745C121.108 31.2932 120.996 31.0798 120.964 30.8345L120.916 30.3545C120.554 30.8238 120.09 31.1865 119.524 31.4425C118.959 31.6985 118.388 31.8265 117.812 31.8265C117.258 31.8265 116.762 31.7145 116.324 31.4905C115.887 31.2558 115.546 30.9412 115.3 30.5465C115.055 30.1518 114.932 29.7092 114.932 29.2185ZM120.26 29.7305C120.388 29.5918 120.49 29.4532 120.564 29.3145C120.639 29.1758 120.676 29.0532 120.676 28.9465V27.9865C120.378 27.8692 120.063 27.7838 119.732 27.7305C119.402 27.6665 119.076 27.6345 118.756 27.6345C118.116 27.6345 117.594 27.7625 117.188 28.0185C116.794 28.2745 116.596 28.6265 116.596 29.0745C116.596 29.3198 116.66 29.5545 116.788 29.7785C116.927 30.0025 117.119 30.1838 117.364 30.3225C117.62 30.4612 117.935 30.5305 118.308 30.5305C118.692 30.5305 119.06 30.4558 119.412 30.3065C119.764 30.1572 120.047 29.9652 120.26 29.7305ZM129.165 31.2345C129.016 31.3092 128.829 31.3892 128.605 31.4745C128.381 31.5598 128.125 31.6345 127.837 31.6985C127.56 31.7625 127.272 31.7945 126.973 31.7945C126.61 31.7945 126.274 31.7305 125.965 31.6025C125.656 31.4745 125.405 31.2718 125.213 30.9945C125.032 30.7065 124.941 30.3385 124.941 29.8905V24.6585H123.837V23.2985H124.941V20.5465H126.701V23.2985H128.525V24.6585H126.701V29.3305C126.722 29.6185 126.813 29.8318 126.973 29.9705C127.144 30.1092 127.352 30.1785 127.597 30.1785C127.842 30.1785 128.077 30.1358 128.301 30.0505C128.525 29.9652 128.69 29.8958 128.797 29.8425L129.165 31.2345ZM129.776 29.2185C129.776 28.6852 129.925 28.2212 130.224 27.8265C130.533 27.4212 130.955 27.1118 131.488 26.8985C132.021 26.6745 132.64 26.5625 133.344 26.5625C133.717 26.5625 134.096 26.5892 134.48 26.6425C134.875 26.6958 135.221 26.7812 135.52 26.8985V26.3705C135.52 25.7838 135.344 25.3252 134.992 24.9945C134.64 24.6638 134.133 24.4985 133.472 24.4985C133.003 24.4985 132.56 24.5838 132.144 24.7545C131.728 24.9145 131.285 25.1438 130.816 25.4425L130.224 24.2585C130.779 23.8852 131.333 23.6078 131.888 23.4265C132.453 23.2452 133.045 23.1545 133.664 23.1545C134.784 23.1545 135.664 23.4532 136.304 24.0505C136.955 24.6372 137.28 25.4745 137.28 26.5625V29.6825C137.28 29.8852 137.312 30.0292 137.376 30.1145C137.451 30.1998 137.573 30.2478 137.744 30.2585V31.6665C137.584 31.6985 137.44 31.7198 137.312 31.7305C137.184 31.7412 137.077 31.7465 136.992 31.7465C136.619 31.7465 136.336 31.6558 136.144 31.4745C135.952 31.2932 135.84 31.0798 135.808 30.8345L135.76 30.3545C135.397 30.8238 134.933 31.1865 134.368 31.4425C133.803 31.6985 133.232 31.8265 132.656 31.8265C132.101 31.8265 131.605 31.7145 131.168 31.4905C130.731 31.2558 130.389 30.9412 130.144 30.5465C129.899 30.1518 129.776 29.7092 129.776 29.2185ZM135.104 29.7305C135.232 29.5918 135.333 29.4532 135.408 29.3145C135.483 29.1758 135.52 29.0532 135.52 28.9465V27.9865C135.221 27.8692 134.907 27.7838 134.576 27.7305C134.245 27.6665 133.92 27.6345 133.6 27.6345C132.96 27.6345 132.437 27.7625 132.032 28.0185C131.637 28.2745 131.44 28.6265 131.44 29.0745C131.44 29.3198 131.504 29.5545 131.632 29.7785C131.771 30.0025 131.963 30.1838 132.208 30.3225C132.464 30.4612 132.779 30.5305 133.152 30.5305C133.536 30.5305 133.904 30.4558 134.256 30.3065C134.608 30.1572 134.891 29.9652 135.104 29.7305Z" fill="#333333"/>
<path d="M31 18.2376L30.293 17.4521L31 16.6665L31.707 17.4521L31 18.2376ZM32 28.2376C32 28.5323 31.8946 28.8149 31.7071 29.0233C31.5195 29.2317 31.2652 29.3487 31 29.3487C30.7348 29.3487 30.4804 29.2317 30.2929 29.0233C30.1053 28.8149 30 28.5323 30 28.2376H32ZM25.293 23.0076L30.293 17.4521L31.707 19.0232L26.707 24.5787L25.293 23.0076ZM31.707 17.4521L36.707 23.0076L35.293 24.5787L30.293 19.0232L31.707 17.4521ZM32 18.2376V28.2376H30V18.2376H32Z" fill="#94A2BC"/>
<path d="M24 30.46V31.5711C24 32.1604 24.2107 32.7257 24.5858 33.1424C24.9609 33.5592 25.4696 33.7933 26 33.7933H36C36.5304 33.7933 37.0391 33.5592 37.4142 33.1424C37.7893 32.7257 38 32.1604 38 31.5711V30.46" fill="#94A2BC"/>
</svg>
