<svg width="179" height="50" viewBox="0 0 179 50" fill="none" xmlns="http://www.w3.org/2000/svg">
<rect x="0.25" y="0.25" width="178.322" height="49.5" rx="4.75" fill="white" stroke="#94A2BC" stroke-width="0.5"/>
<path d="M71.0595 26.812V28H65.2155V19.48H70.9515V20.668H66.5595V23.092H70.3635V24.208H66.5595V26.812H71.0595ZM73.022 21.724L74.51 23.872L74.618 24.076L74.726 23.872L76.202 21.724H77.63L75.374 24.868L77.654 28H76.226L74.726 25.864L74.618 25.672L74.51 25.864L73.01 28H71.582L73.862 24.88L71.606 21.724H73.022ZM82.1115 28.12C81.6075 28.12 81.1635 28 80.7795 27.76C80.3955 27.52 80.0915 27.208 79.8675 26.824V30.556H78.5475V21.724H79.7115V22.852C79.9515 22.476 80.2635 22.176 80.6475 21.952C81.0315 21.728 81.4595 21.616 81.9315 21.616C82.3635 21.616 82.7595 21.704 83.1195 21.88C83.4795 22.048 83.7915 22.284 84.0555 22.588C84.3195 22.892 84.5235 23.24 84.6675 23.632C84.8195 24.016 84.8955 24.424 84.8955 24.856C84.8955 25.456 84.7755 26.004 84.5355 26.5C84.3035 26.996 83.9755 27.392 83.5515 27.688C83.1355 27.976 82.6555 28.12 82.1115 28.12ZM81.6795 26.992C81.9595 26.992 82.2115 26.932 82.4355 26.812C82.6675 26.692 82.8635 26.532 83.0235 26.332C83.1915 26.132 83.3195 25.904 83.4075 25.648C83.4955 25.392 83.5395 25.128 83.5395 24.856C83.5395 24.568 83.4915 24.296 83.3955 24.04C83.2995 23.784 83.1595 23.56 82.9755 23.368C82.7995 23.176 82.5915 23.024 82.3515 22.912C82.1195 22.8 81.8635 22.744 81.5835 22.744C81.4155 22.744 81.2395 22.776 81.0555 22.84C80.8715 22.904 80.6995 22.992 80.5395 23.104C80.3795 23.216 80.2395 23.348 80.1195 23.5C79.9995 23.652 79.9155 23.812 79.8675 23.98V25.624C79.9795 25.88 80.1275 26.112 80.3115 26.32C80.4955 26.52 80.7075 26.684 80.9475 26.812C81.1875 26.932 81.4315 26.992 81.6795 26.992ZM88.9026 28.12C88.4066 28.12 87.9626 28.036 87.5706 27.868C87.1786 27.692 86.8386 27.452 86.5506 27.148C86.2706 26.844 86.0546 26.5 85.9026 26.116C85.7506 25.724 85.6746 25.308 85.6746 24.868C85.6746 24.428 85.7506 24.012 85.9026 23.62C86.0546 23.228 86.2706 22.884 86.5506 22.588C86.8386 22.284 87.1786 22.048 87.5706 21.88C87.9706 21.704 88.4146 21.616 88.9026 21.616C89.3906 21.616 89.8306 21.704 90.2226 21.88C90.6226 22.048 90.9626 22.284 91.2426 22.588C91.5306 22.884 91.7506 23.228 91.9026 23.62C92.0546 24.012 92.1306 24.428 92.1306 24.868C92.1306 25.308 92.0546 25.724 91.9026 26.116C91.7506 26.5 91.5306 26.844 91.2426 27.148C90.9626 27.452 90.6226 27.692 90.2226 27.868C89.8306 28.036 89.3906 28.12 88.9026 28.12ZM87.0306 24.88C87.0306 25.28 87.1146 25.64 87.2826 25.96C87.4506 26.28 87.6746 26.532 87.9546 26.716C88.2346 26.9 88.5506 26.992 88.9026 26.992C89.2466 26.992 89.5586 26.9 89.8386 26.716C90.1266 26.524 90.3546 26.268 90.5226 25.948C90.6906 25.62 90.7746 25.26 90.7746 24.868C90.7746 24.468 90.6906 24.108 90.5226 23.788C90.3546 23.468 90.1266 23.216 89.8386 23.032C89.5586 22.84 89.2466 22.744 88.9026 22.744C88.5506 22.744 88.2346 22.84 87.9546 23.032C87.6746 23.224 87.4506 23.48 87.2826 23.8C87.1146 24.112 87.0306 24.472 87.0306 24.88ZM96.8294 22.864C96.3174 22.872 95.8614 22.988 95.4614 23.212C95.0694 23.436 94.7894 23.752 94.6214 24.16V28H93.3014V21.724H94.5254V23.128C94.7414 22.696 95.0254 22.352 95.3774 22.096C95.7294 21.832 96.1014 21.688 96.4934 21.664C96.5734 21.664 96.6374 21.664 96.6854 21.664C96.7414 21.664 96.7894 21.668 96.8294 21.676V22.864ZM101.282 27.676C101.17 27.732 101.03 27.792 100.862 27.856C100.694 27.92 100.502 27.976 100.286 28.024C100.078 28.072 99.8617 28.096 99.6377 28.096C99.3657 28.096 99.1137 28.048 98.8817 27.952C98.6497 27.856 98.4617 27.704 98.3177 27.496C98.1817 27.28 98.1137 27.004 98.1137 26.668V22.744H97.2857V21.724H98.1137V19.66H99.4337V21.724H100.802V22.744H99.4337V26.248C99.4497 26.464 99.5177 26.624 99.6377 26.728C99.7657 26.832 99.9217 26.884 100.106 26.884C100.29 26.884 100.466 26.852 100.634 26.788C100.802 26.724 100.926 26.672 101.006 26.632L101.282 27.676ZM105.329 28V19.48H108.353C109.273 19.48 110.041 19.672 110.657 20.056C111.273 20.432 111.733 20.944 112.037 21.592C112.349 22.232 112.505 22.944 112.505 23.728C112.505 24.592 112.333 25.344 111.989 25.984C111.653 26.624 111.173 27.12 110.549 27.472C109.925 27.824 109.193 28 108.353 28H105.329ZM111.137 23.728C111.137 23.128 111.025 22.6 110.801 22.144C110.585 21.68 110.269 21.32 109.853 21.064C109.445 20.8 108.945 20.668 108.353 20.668H106.673V26.812H108.353C108.953 26.812 109.457 26.676 109.865 26.404C110.281 26.132 110.597 25.764 110.813 25.3C111.029 24.836 111.137 24.312 111.137 23.728ZM113.224 26.164C113.224 25.764 113.336 25.416 113.56 25.12C113.792 24.816 114.108 24.584 114.508 24.424C114.908 24.256 115.372 24.172 115.9 24.172C116.18 24.172 116.464 24.192 116.752 24.232C117.048 24.272 117.308 24.336 117.532 24.424V24.028C117.532 23.588 117.4 23.244 117.136 22.996C116.872 22.748 116.492 22.624 115.996 22.624C115.644 22.624 115.312 22.688 115 22.816C114.688 22.936 114.356 23.108 114.004 23.332L113.56 22.444C113.976 22.164 114.392 21.956 114.808 21.82C115.232 21.684 115.676 21.616 116.14 21.616C116.98 21.616 117.64 21.84 118.12 22.288C118.608 22.728 118.852 23.356 118.852 24.172V26.512C118.852 26.664 118.876 26.772 118.924 26.836C118.98 26.9 119.072 26.936 119.2 26.944V28C119.08 28.024 118.972 28.04 118.876 28.048C118.78 28.056 118.7 28.06 118.636 28.06C118.356 28.06 118.144 27.992 118 27.856C117.856 27.72 117.772 27.56 117.748 27.376L117.712 27.016C117.44 27.368 117.092 27.64 116.668 27.832C116.244 28.024 115.816 28.12 115.384 28.12C114.968 28.12 114.596 28.036 114.268 27.868C113.94 27.692 113.684 27.456 113.5 27.16C113.316 26.864 113.224 26.532 113.224 26.164ZM117.22 26.548C117.316 26.444 117.392 26.34 117.448 26.236C117.504 26.132 117.532 26.04 117.532 25.96V25.24C117.308 25.152 117.072 25.088 116.824 25.048C116.576 25 116.332 24.976 116.092 24.976C115.612 24.976 115.22 25.072 114.916 25.264C114.62 25.456 114.472 25.72 114.472 26.056C114.472 26.24 114.52 26.416 114.616 26.584C114.72 26.752 114.864 26.888 115.048 26.992C115.24 27.096 115.476 27.148 115.756 27.148C116.044 27.148 116.32 27.092 116.584 26.98C116.848 26.868 117.06 26.724 117.22 26.548ZM123.899 27.676C123.787 27.732 123.647 27.792 123.479 27.856C123.311 27.92 123.119 27.976 122.903 28.024C122.695 28.072 122.479 28.096 122.255 28.096C121.983 28.096 121.731 28.048 121.499 27.952C121.267 27.856 121.079 27.704 120.935 27.496C120.799 27.28 120.731 27.004 120.731 26.668V22.744H119.903V21.724H120.731V19.66H122.051V21.724H123.419V22.744H122.051V26.248C122.067 26.464 122.135 26.624 122.255 26.728C122.383 26.832 122.539 26.884 122.723 26.884C122.907 26.884 123.083 26.852 123.251 26.788C123.419 26.724 123.543 26.672 123.623 26.632L123.899 27.676ZM124.357 26.164C124.357 25.764 124.469 25.416 124.693 25.12C124.925 24.816 125.241 24.584 125.641 24.424C126.041 24.256 126.505 24.172 127.033 24.172C127.313 24.172 127.597 24.192 127.885 24.232C128.181 24.272 128.441 24.336 128.665 24.424V24.028C128.665 23.588 128.533 23.244 128.269 22.996C128.005 22.748 127.625 22.624 127.129 22.624C126.777 22.624 126.445 22.688 126.133 22.816C125.821 22.936 125.489 23.108 125.137 23.332L124.693 22.444C125.109 22.164 125.525 21.956 125.941 21.82C126.365 21.684 126.809 21.616 127.273 21.616C128.113 21.616 128.773 21.84 129.253 22.288C129.741 22.728 129.985 23.356 129.985 24.172V26.512C129.985 26.664 130.009 26.772 130.057 26.836C130.113 26.9 130.205 26.936 130.333 26.944V28C130.213 28.024 130.105 28.04 130.009 28.048C129.913 28.056 129.833 28.06 129.769 28.06C129.489 28.06 129.277 27.992 129.133 27.856C128.989 27.72 128.905 27.56 128.881 27.376L128.845 27.016C128.573 27.368 128.225 27.64 127.801 27.832C127.377 28.024 126.949 28.12 126.517 28.12C126.101 28.12 125.729 28.036 125.401 27.868C125.073 27.692 124.817 27.456 124.633 27.16C124.449 26.864 124.357 26.532 124.357 26.164ZM128.353 26.548C128.449 26.444 128.525 26.34 128.581 26.236C128.637 26.132 128.665 26.04 128.665 25.96V25.24C128.441 25.152 128.205 25.088 127.957 25.048C127.709 25 127.465 24.976 127.225 24.976C126.745 24.976 126.353 25.072 126.049 25.264C125.753 25.456 125.605 25.72 125.605 26.056C125.605 26.24 125.653 26.416 125.749 26.584C125.853 26.752 125.997 26.888 126.181 26.992C126.373 27.096 126.609 27.148 126.889 27.148C127.177 27.148 127.453 27.092 127.717 26.98C127.981 26.868 128.193 26.724 128.353 26.548Z" fill="#333333"/>
<path d="M39.1534 18.414L38.3732 17.707L39.1534 17L39.9336 17.707L39.1534 18.414ZM40.257 27.414C40.257 27.6792 40.1407 27.9336 39.9338 28.1211C39.7268 28.3086 39.4461 28.414 39.1534 28.414C38.8607 28.414 38.5801 28.3086 38.3731 28.1211C38.1661 27.9336 38.0499 27.6792 38.0499 27.414H40.257ZM32.8555 22.707L38.3732 17.707L39.9336 19.121L34.4159 24.121L32.8555 22.707ZM39.9336 17.707L45.4514 22.707L43.891 24.121L38.3732 19.121L39.9336 17.707ZM40.257 18.414V27.414H38.0499V18.414H40.257Z" fill="#333333"/>
<path d="M31.4297 29.4141V30.4141C31.4297 30.9445 31.6622 31.4532 32.0761 31.8283C32.49 32.2033 33.0514 32.4141 33.6368 32.4141H44.6723C45.2576 32.4141 45.819 32.2033 46.2329 31.8283C46.6469 31.4532 46.8794 30.9445 46.8794 30.4141V29.4141" fill="#333333"/>
</svg>
