<svg width="28" height="28" viewBox="0 0 28 28" fill="none" xmlns="http://www.w3.org/2000/svg">
<path d="M4.1471 16.0297C5.11461 11.3696 9.15912 8.05843 13.7087 8.05843C18.2568 8.05843 22.3013 11.3696 23.2702 16.0297C23.3086 16.2146 23.4186 16.3766 23.5761 16.4802C23.7336 16.5837 23.9257 16.6203 24.11 16.5818C24.2944 16.5433 24.456 16.4329 24.5592 16.2749C24.6624 16.1169 24.6989 15.9243 24.6605 15.7394C23.5582 10.439 18.9477 6.6355 13.7087 6.6355C8.46967 6.6355 3.85912 10.439 2.75685 15.7394C2.71847 15.9243 2.7549 16.1169 2.85813 16.2749C2.96135 16.4329 3.12292 16.5433 3.30727 16.5818C3.49163 16.6203 3.68369 16.5837 3.84119 16.4802C3.99868 16.3766 4.10873 16.2146 4.1471 16.0297ZM13.6945 10.9043C15.0113 10.9043 16.2742 11.429 17.2054 12.363C18.1366 13.2969 18.6597 14.5637 18.6597 15.8845C18.6597 17.2054 18.1366 18.4721 17.2054 19.4061C16.2742 20.3401 15.0113 20.8648 13.6945 20.8648C12.3776 20.8648 11.1147 20.3401 10.1835 19.4061C9.25239 18.4721 8.72927 17.2054 8.72927 15.8845C8.72927 14.5637 9.25239 13.2969 10.1835 12.363C11.1147 11.429 12.3776 10.9043 13.6945 10.9043Z" fill="#C2C2C2"/>
</svg>
