<svg width="33" height="32" viewBox="0 0 33 32" fill="none" xmlns="http://www.w3.org/2000/svg">
<path d="M16.394 22.1649C17.8899 22.1649 19.1025 23.3231 19.1025 24.7519C19.1025 26.1806 17.8899 27.3388 16.394 27.3388C14.8981 27.3388 13.6855 26.1806 13.6855 24.7519C13.6855 23.3231 14.8981 22.1649 16.394 22.1649ZM25.8738 22.1649C27.3697 22.1649 28.5823 23.3231 28.5823 24.7519C28.5823 26.1806 27.3697 27.3388 25.8738 27.3388C24.3779 27.3388 23.1653 26.1806 23.1653 24.7519C23.1653 23.3231 24.3779 22.1649 25.8738 22.1649ZM6.91431 22.1649C8.41017 22.1649 9.6228 23.3231 9.6228 24.7519C9.6228 26.1806 8.41017 27.3388 6.91431 27.3388C5.41844 27.3388 4.20581 26.1806 4.20581 24.7519C4.20581 23.3231 5.41844 22.1649 6.91431 22.1649ZM16.394 13.1105C17.8899 13.1105 19.1025 14.2687 19.1025 15.6975C19.1025 17.1263 17.8899 18.2844 16.394 18.2844C14.8981 18.2844 13.6855 17.1263 13.6855 15.6975C13.6855 14.2687 14.8981 13.1105 16.394 13.1105ZM25.8738 13.1105C27.3697 13.1105 28.5823 14.2687 28.5823 15.6975C28.5823 17.1263 27.3697 18.2844 25.8738 18.2844C24.3779 18.2844 23.1653 17.1263 23.1653 15.6975C23.1653 14.2687 24.3779 13.1105 25.8738 13.1105ZM6.91431 13.1105C8.41017 13.1105 9.6228 14.2687 9.6228 15.6975C9.6228 17.1263 8.41017 18.2844 6.91431 18.2844C5.41844 18.2844 4.20581 17.1263 4.20581 15.6975C4.20581 14.2687 5.41844 13.1105 6.91431 13.1105ZM16.394 4.05615C17.8899 4.05615 19.1025 5.21437 19.1025 6.64311C19.1025 8.07186 17.8899 9.23008 16.394 9.23008C14.8981 9.23008 13.6855 8.07186 13.6855 6.64311C13.6855 5.21437 14.8981 4.05615 16.394 4.05615ZM25.8738 4.05615C27.3697 4.05615 28.5823 5.21437 28.5823 6.64311C28.5823 8.07186 27.3697 9.23008 25.8738 9.23008C24.3779 9.23008 23.1653 8.07186 23.1653 6.64311C23.1653 5.21437 24.3779 4.05615 25.8738 4.05615ZM6.91431 4.05615C8.41017 4.05615 9.6228 5.21437 9.6228 6.64311C9.6228 8.07186 8.41017 9.23008 6.91431 9.23008C5.41844 9.23008 4.20581 8.07186 4.20581 6.64311C4.20581 5.21437 5.41844 4.05615 6.91431 4.05615Z" fill="#333333"/>
</svg>
