<svg width="115" height="42" viewBox="0 0 115 42" fill="none" xmlns="http://www.w3.org/2000/svg">
<rect x="0.726356" y="0.629188" width="112.881" height="39.9074" rx="19.9537" fill="white" stroke="#FFB017" stroke-width="1.14021"/>
<path d="M29.367 17.3271L30.21 16.5178C30.3845 16.3485 30.4825 16.1188 30.4825 15.8794C30.4825 15.6399 30.3845 15.4102 30.21 15.2409C30.0356 15.0716 29.799 14.9765 29.5523 14.9765C29.3056 14.9765 29.069 15.0716 28.8945 15.2409L28.0607 16.0592C26.7624 15.0843 25.1674 14.5554 23.5259 14.5554C21.8844 14.5554 20.2894 15.0843 18.9911 16.0592L18.148 15.2319C17.9724 15.0626 17.7346 14.968 17.487 14.9688C17.2394 14.9696 17.0023 15.0659 16.8279 15.2364C16.6534 15.4069 16.5559 15.6377 16.5568 15.878C16.5577 16.1183 16.6568 16.3485 16.8325 16.5178L17.6848 17.3361C16.6685 18.5927 16.1171 20.1446 16.1192 21.7421C16.1161 22.889 16.3957 24.0199 16.9344 25.0406C17.4732 26.0613 18.2556 26.9422 19.2164 27.6098C20.1771 28.2774 21.2884 28.7123 22.4576 28.8783C23.6267 29.0444 24.8198 28.9367 25.9373 28.5642C27.0549 28.1918 28.0645 27.5654 28.8819 26.7373C29.6994 25.9092 30.301 24.9034 30.6366 23.8038C30.9723 22.7042 31.0321 21.5426 30.8113 20.4159C30.5904 19.2893 30.0952 18.2302 29.367 17.3271ZM23.5305 27.1373C22.4312 27.1373 21.3565 26.8209 20.4424 26.2281C19.5283 25.6352 18.8158 24.7926 18.3951 23.8068C17.9744 22.8209 17.8643 21.7361 18.0788 20.6896C18.2933 19.643 18.8227 18.6817 19.6001 17.9272C20.3774 17.1726 21.3679 16.6588 22.4461 16.4506C23.5244 16.2424 24.642 16.3493 25.6577 16.7576C26.6734 17.166 27.5415 17.8575 28.1523 18.7447C28.7631 19.632 29.0891 20.6751 29.0891 21.7421C29.0891 23.173 28.5034 24.5453 27.461 25.5571C26.4186 26.5689 25.0048 27.1373 23.5305 27.1373ZM21.6777 13.6493H25.3834C25.6291 13.6493 25.8647 13.5546 26.0385 13.386C26.2122 13.2173 26.3098 12.9886 26.3098 12.7501C26.3098 12.5117 26.2122 12.283 26.0385 12.1143C25.8647 11.9457 25.6291 11.851 25.3834 11.851H21.6777C21.432 11.851 21.1964 11.9457 21.0226 12.1143C20.8489 12.283 20.7513 12.5117 20.7513 12.7501C20.7513 12.9886 20.8489 13.2173 21.0226 13.386C21.1964 13.5546 21.432 13.6493 21.6777 13.6493ZM24.457 19.0445C24.457 18.8061 24.3594 18.5773 24.1856 18.4087C24.0119 18.2401 23.7762 18.1453 23.5305 18.1453C23.2848 18.1453 23.0492 18.2401 22.8755 18.4087C22.7017 18.5773 22.6041 18.8061 22.6041 19.0445V20.744C22.3943 20.9261 22.2465 21.1658 22.1801 21.4312C22.1137 21.6967 22.132 21.9754 22.2324 22.2306C22.3328 22.4858 22.5107 22.7054 22.7425 22.8603C22.9743 23.0152 23.2491 23.0981 23.5305 23.0981C23.812 23.0981 24.0868 23.0152 24.3186 22.8603C24.5504 22.7054 24.7283 22.4858 24.8287 22.2306C24.9291 21.9754 24.9473 21.6967 24.881 21.4312C24.8146 21.1658 24.6667 20.9261 24.457 20.744V19.0445Z" fill="#FFB017"/>
<path d="M36.569 26.1313V17.2263H37.6978V26.1313H36.569ZM45.3332 26.1313H44.2295V22.469C44.2295 21.775 44.1208 21.2691 43.9034 20.9514C43.6943 20.6253 43.3724 20.4622 42.9376 20.4622C42.6366 20.4622 42.3356 20.5375 42.0345 20.688C41.7419 20.8385 41.4785 21.0433 41.2444 21.3026C41.0186 21.5534 40.8556 21.8461 40.7552 22.1805V26.1313H39.6515V19.5843H40.6549V20.989C40.8305 20.6796 41.0562 20.412 41.3322 20.1863C41.6081 19.9605 41.9217 19.7849 42.2728 19.6595C42.624 19.5341 42.9919 19.4714 43.3766 19.4714C43.7528 19.4714 44.0664 19.5424 44.3172 19.6846C44.5765 19.8184 44.7771 20.0107 44.9193 20.2615C45.0698 20.504 45.1743 20.7925 45.2328 21.127C45.2997 21.4614 45.3332 21.8251 45.3332 22.2181V26.1313ZM50.3974 26.1313V17.2263H54.11C54.503 17.2263 54.8625 17.3099 55.1886 17.4771C55.5147 17.636 55.799 17.8534 56.0415 18.1293C56.284 18.3969 56.4721 18.7021 56.6059 19.0449C56.7397 19.3794 56.8066 19.7222 56.8066 20.0734C56.8066 20.5584 56.6979 21.0224 56.4805 21.4656C56.2631 21.9004 55.9579 22.2558 55.5649 22.5317C55.1719 22.7993 54.712 22.9331 54.1852 22.9331H51.5262V26.1313H50.3974ZM51.5262 21.9297H54.1225C54.4319 21.9297 54.6995 21.8461 54.9252 21.6788C55.1593 21.5116 55.3391 21.2858 55.4645 21.0015C55.5983 20.7172 55.6652 20.4079 55.6652 20.0734C55.6652 19.7222 55.59 19.4087 55.4394 19.1327C55.2889 18.8484 55.0924 18.6269 54.85 18.468C54.6075 18.3091 54.3399 18.2297 54.0473 18.2297H51.5262V21.9297ZM61.498 20.55C60.9461 20.5584 60.457 20.7005 60.0305 20.9765C59.6125 21.244 59.3156 21.6161 59.14 22.0927V26.1313H58.0363V19.5843H59.0648V21.1019C59.2905 20.6504 59.5874 20.2866 59.9553 20.0107C60.3315 19.7264 60.7245 19.5675 61.1343 19.5341C61.2179 19.5341 61.2889 19.5341 61.3475 19.5341C61.406 19.5341 61.4562 19.5383 61.498 19.5466V20.55ZM65.2931 26.2568C64.7998 26.2568 64.3524 26.169 63.9511 25.9934C63.5497 25.8094 63.2027 25.5628 62.9101 25.2534C62.6174 24.9356 62.3917 24.5719 62.2328 24.1622C62.0739 23.7525 61.9945 23.3219 61.9945 22.8703C61.9945 22.4105 62.0739 21.9757 62.2328 21.5659C62.3917 21.1562 62.6174 20.7967 62.9101 20.4873C63.2027 20.1696 63.5497 19.9229 63.9511 19.7473C64.3608 19.5633 64.8081 19.4714 65.2931 19.4714C65.7864 19.4714 66.2338 19.5633 66.6351 19.7473C67.0365 19.9229 67.3835 20.1696 67.6762 20.4873C67.9772 20.7967 68.2071 21.1562 68.366 21.5659C68.5249 21.9757 68.6043 22.4105 68.6043 22.8703C68.6043 23.3219 68.5249 23.7525 68.366 24.1622C68.2071 24.5719 67.9814 24.9356 67.6887 25.2534C67.396 25.5628 67.0449 25.8094 66.6351 25.9934C66.2338 26.169 65.7864 26.2568 65.2931 26.2568ZM63.1233 22.8829C63.1233 23.3344 63.2194 23.7441 63.4118 24.112C63.6124 24.4799 63.8758 24.7726 64.2019 24.99C64.528 25.199 64.8918 25.3036 65.2931 25.3036C65.6945 25.3036 66.0582 25.1949 66.3843 24.9775C66.7188 24.7601 66.9821 24.4674 67.1745 24.0995C67.3751 23.7232 67.4755 23.3093 67.4755 22.8578C67.4755 22.4063 67.3751 21.9966 67.1745 21.6287C66.9821 21.2607 66.7188 20.9681 66.3843 20.7507C66.0582 20.5333 65.6945 20.4246 65.2931 20.4246C64.8918 20.4246 64.528 20.5375 64.2019 20.7632C63.8758 20.9806 63.6124 21.2733 63.4118 21.6412C63.2194 22.0091 63.1233 22.423 63.1233 22.8829ZM72.5505 26.2066C72.1074 26.2066 71.6976 26.1188 71.3214 25.9432C70.9535 25.7593 70.6357 25.5126 70.3682 25.2032C70.1006 24.8855 69.8915 24.5259 69.741 24.1246C69.5989 23.7232 69.5278 23.3051 69.5278 22.8703C69.5278 22.4105 69.5989 21.9757 69.741 21.5659C69.8915 21.1562 70.1006 20.7967 70.3682 20.4873C70.6441 20.1696 70.966 19.9229 71.3339 19.7473C71.7018 19.5633 72.1115 19.4714 72.5631 19.4714C73.1066 19.4714 73.579 19.6052 73.9803 19.8727C74.3901 20.1403 74.7329 20.4789 75.0088 20.8887V19.5843H75.9871V26.0561C75.9871 26.6748 75.8366 27.1974 75.5356 27.6239C75.2429 28.0503 74.8416 28.3722 74.3315 28.5896C73.8298 28.8154 73.2696 28.9283 72.6509 28.9283C71.915 28.9283 71.313 28.7987 70.8448 28.5395C70.3765 28.2803 69.9877 27.9291 69.6783 27.4859L70.318 26.9215C70.5772 27.3061 70.9117 27.5946 71.3214 27.7869C71.7394 27.9793 72.1826 28.0754 72.6509 28.0754C73.0522 28.0754 73.4201 28.0002 73.7546 27.8496C74.0974 27.7075 74.3692 27.4859 74.5698 27.1849C74.7789 26.8839 74.8834 26.5076 74.8834 26.0561V24.9022C74.6409 25.3036 74.3064 25.6213 73.88 25.8554C73.4619 26.0895 73.0188 26.2066 72.5505 26.2066ZM72.8892 25.3036C73.1233 25.3036 73.349 25.2617 73.5664 25.1781C73.7838 25.0945 73.9845 24.9858 74.1685 24.852C74.3524 24.7099 74.5071 24.551 74.6325 24.3754C74.758 24.1998 74.8416 24.0201 74.8834 23.8361V21.9548C74.7663 21.6537 74.5991 21.3903 74.3817 21.1646C74.1643 20.9305 73.9176 20.7507 73.6417 20.6253C73.3658 20.4915 73.0815 20.4246 72.7888 20.4246C72.4544 20.4246 72.1533 20.4957 71.8858 20.6378C71.6266 20.78 71.405 20.9723 71.221 21.2148C71.0371 21.4489 70.8949 21.7123 70.7946 22.0049C70.6943 22.2976 70.6441 22.5944 70.6441 22.8954C70.6441 23.2215 70.7026 23.5309 70.8197 23.8236C70.9367 24.1079 71.0956 24.3629 71.2963 24.5886C71.497 24.8144 71.7353 24.99 72.0112 25.1154C72.2871 25.2408 72.5798 25.3036 72.8892 25.3036ZM81.2301 20.55C80.6782 20.5584 80.1891 20.7005 79.7626 20.9765C79.3446 21.244 79.0477 21.6161 78.8721 22.0927V26.1313H77.7684V19.5843H78.7969V21.1019C79.0227 20.6504 79.3195 20.2866 79.6874 20.0107C80.0637 19.7264 80.4567 19.5675 80.8664 19.5341C80.95 19.5341 81.0211 19.5341 81.0796 19.5341C81.1381 19.5341 81.1883 19.5383 81.2301 19.5466V20.55ZM85.0629 26.2568C84.5695 26.2568 84.118 26.169 83.7083 25.9934C83.3069 25.8094 82.9557 25.5628 82.6547 25.2534C82.3621 24.9356 82.1321 24.5719 81.9649 24.1622C81.806 23.7525 81.7266 23.3177 81.7266 22.8578C81.7266 22.239 81.8687 21.6746 82.153 21.1646C82.4373 20.6545 82.8303 20.2448 83.332 19.9354C83.8421 19.6261 84.4232 19.4714 85.0754 19.4714C85.736 19.4714 86.3087 19.6302 86.7937 19.948C87.287 20.2574 87.6675 20.6671 87.9351 21.1771C88.211 21.6788 88.349 22.2223 88.349 22.8076C88.349 22.8912 88.3448 22.9749 88.3364 23.0585C88.3364 23.1337 88.3322 23.1923 88.3239 23.2341H82.893C82.9265 23.6605 83.0435 24.041 83.2442 24.3754C83.4533 24.7015 83.7208 24.9607 84.0469 25.153C84.373 25.337 84.7242 25.429 85.1005 25.429C85.5018 25.429 85.8781 25.3286 86.2293 25.128C86.5888 24.9273 86.8355 24.6639 86.9693 24.3378L87.9225 24.6012C87.7804 24.9189 87.5671 25.2032 87.2829 25.4541C87.0069 25.7049 86.6766 25.9014 86.292 26.0436C85.9157 26.1857 85.506 26.2568 85.0629 26.2568ZM82.8554 22.469H87.3205C87.287 22.0425 87.1658 21.6663 86.9568 21.3402C86.7477 21.0141 86.4801 20.7591 86.154 20.5751C85.8279 20.3911 85.4684 20.2992 85.0754 20.2992C84.6908 20.2992 84.3354 20.3911 84.0093 20.5751C83.6832 20.7591 83.4156 21.0141 83.2066 21.3402C83.0059 21.6663 82.8889 22.0425 82.8554 22.469ZM91.8209 26.2568C91.2774 26.2568 90.7674 26.169 90.2908 25.9934C89.8142 25.8094 89.4044 25.5377 89.0616 25.1781L89.488 24.4005C89.8643 24.7517 90.2406 25.0025 90.6169 25.153C90.9931 25.3036 91.3778 25.3788 91.7708 25.3788C92.2223 25.3788 92.5902 25.2952 92.8745 25.128C93.1588 24.9524 93.3009 24.6973 93.3009 24.3629C93.3009 24.1204 93.2257 23.9406 93.0752 23.8236C92.933 23.7065 92.7282 23.6103 92.4606 23.5351C92.193 23.4515 91.8753 23.3595 91.5074 23.2592C91.0558 23.1254 90.6754 22.9832 90.366 22.8327C90.0566 22.6822 89.8225 22.4941 89.6636 22.2683C89.5048 22.0425 89.4253 21.7583 89.4253 21.4154C89.4253 20.9974 89.534 20.6462 89.7514 20.3619C89.9688 20.0692 90.2657 19.8476 90.6419 19.6971C91.0266 19.5466 91.4614 19.4714 91.9463 19.4714C92.4313 19.4714 92.8703 19.5466 93.2633 19.6971C93.6563 19.8476 93.9949 20.0692 94.2792 20.3619L93.7775 21.127C93.5183 20.8594 93.234 20.6629 92.9246 20.5375C92.6153 20.4037 92.2683 20.3368 91.8836 20.3368C91.6579 20.3368 91.4363 20.3661 91.2189 20.4246C91.0015 20.4748 90.8217 20.5709 90.6796 20.7131C90.5374 20.8468 90.4664 21.0392 90.4664 21.29C90.4664 21.499 90.5207 21.6663 90.6294 21.7917C90.7465 21.9088 90.9137 22.0091 91.1311 22.0927C91.3569 22.1763 91.6286 22.2683 91.9463 22.3686C92.4397 22.5108 92.8661 22.6529 93.2257 22.7951C93.5936 22.9372 93.8779 23.1212 94.0785 23.347C94.2792 23.5727 94.3796 23.8863 94.3796 24.2876C94.3796 24.9064 94.1454 25.3914 93.6772 25.7425C93.2089 26.0854 92.5902 26.2568 91.8209 26.2568ZM97.9451 26.2568C97.4016 26.2568 96.8916 26.169 96.4149 25.9934C95.9383 25.8094 95.5286 25.5377 95.1858 25.1781L95.6122 24.4005C95.9885 24.7517 96.3648 25.0025 96.741 25.153C97.1173 25.3036 97.5019 25.3788 97.8949 25.3788C98.3465 25.3788 98.7144 25.2952 98.9987 25.128C99.283 24.9524 99.4251 24.6973 99.4251 24.3629C99.4251 24.1204 99.3498 23.9406 99.1993 23.8236C99.0572 23.7065 98.8523 23.6103 98.5848 23.5351C98.3172 23.4515 97.9995 23.3595 97.6315 23.2592C97.18 23.1254 96.7996 22.9832 96.4902 22.8327C96.1808 22.6822 95.9467 22.4941 95.7878 22.2683C95.629 22.0425 95.5495 21.7583 95.5495 21.4154C95.5495 20.9974 95.6582 20.6462 95.8756 20.3619C96.093 20.0692 96.3899 19.8476 96.7661 19.6971C97.1508 19.5466 97.5856 19.4714 98.0705 19.4714C98.5555 19.4714 98.9945 19.5466 99.3875 19.6971C99.7805 19.8476 100.119 20.0692 100.403 20.3619L99.9017 21.127C99.6425 20.8594 99.3582 20.6629 99.0488 20.5375C98.7395 20.4037 98.3924 20.3368 98.0078 20.3368C97.7821 20.3368 97.5605 20.3661 97.3431 20.4246C97.1257 20.4748 96.9459 20.5709 96.8038 20.7131C96.6616 20.8468 96.5905 21.0392 96.5905 21.29C96.5905 21.499 96.6449 21.6663 96.7536 21.7917C96.8706 21.9088 97.0379 22.0091 97.2553 22.0927C97.481 22.1763 97.7528 22.2683 98.0705 22.3686C98.5639 22.5108 98.9903 22.6529 99.3498 22.7951C99.7178 22.9372 100.002 23.1212 100.203 23.347C100.403 23.5727 100.504 23.8863 100.504 24.2876C100.504 24.9064 100.27 25.3914 99.8014 25.7425C99.3331 26.0854 98.7144 26.2568 97.9451 26.2568Z" fill="#FFB017"/>
</svg>
