<svg width="140" height="52" viewBox="0 0 140 52" fill="none" xmlns="http://www.w3.org/2000/svg">
<rect x="0.75" y="0.75" width="138.5" height="50.5" rx="4.25" fill="white" stroke="#D9D9D9" stroke-width="0.5"/>
<rect x="13" y="11" width="29" height="29" rx="3" fill="#5051F9" fill-opacity="0.15"/>
<rect x="37" y="35" width="10" height="10" rx="3" fill="#5051F9"/>
<path fill-rule="evenodd" clip-rule="evenodd" d="M42 37C42.0682 37 42.1336 37.0271 42.1818 37.0753C42.2301 37.1235 42.2571 37.1889 42.2571 37.2571V39.7429H44.7429C44.8111 39.7429 44.8765 39.7699 44.9247 39.8182C44.9729 39.8664 45 39.9318 45 40C45 40.0682 44.9729 40.1336 44.9247 40.1818C44.8765 40.2301 44.8111 40.2571 44.7429 40.2571H42.2571V42.7429C42.2571 42.8111 42.2301 42.8765 42.1818 42.9247C42.1336 42.9729 42.0682 43 42 43C41.9318 43 41.8664 42.9729 41.8182 42.9247C41.7699 42.8765 41.7429 42.8111 41.7429 42.7429V40.2571H39.2571C39.1889 40.2571 39.1235 40.2301 39.0753 40.1818C39.0271 40.1336 39 40.0682 39 40C39 39.9318 39.0271 39.8664 39.0753 39.8182C39.1235 39.7699 39.1889 39.7429 39.2571 39.7429H41.7429V37.2571C41.7429 37.1889 41.7699 37.1235 41.8182 37.0753C41.8664 37.0271 41.9318 37 42 37Z" fill="white"/>
<g clip-path="url(#clip0_967_2318)">
<path d="M27.4951 25.1082C29.2712 25.1082 30.711 23.6684 30.711 21.8923C30.711 20.1163 29.2712 18.6765 27.4951 18.6765C25.7191 18.6765 24.2793 20.1163 24.2793 21.8923C24.2793 23.6684 25.7191 25.1082 27.4951 25.1082Z" fill="#5051F9"/>
<path d="M24.6668 29.5848C24.6767 29.3235 24.7637 29.071 24.917 28.8592C25.0703 28.6474 25.2829 28.4858 25.5281 28.3948C25.7732 28.3038 26.0398 28.2876 26.2942 28.3481C26.5485 28.4086 26.7792 28.5431 26.9571 28.7348L28.7799 30.6945L32.0099 27.0914C30.6758 26.202 29.1034 25.7377 27.5002 25.7598C26.388 25.7316 25.2832 25.9475 24.2634 26.3921C23.2437 26.8367 22.3336 27.4994 21.5974 28.3334C21.5351 28.4164 21.5019 28.5176 21.503 28.6214V31.1667C21.5028 31.4124 21.5984 31.6484 21.7695 31.8247C21.9405 32.001 22.1735 32.1038 22.4191 32.1111H26.466L25.0163 30.5528C24.8963 30.423 24.8035 30.2705 24.7435 30.1042C24.6835 29.9379 24.6574 29.7613 24.6668 29.5848Z" fill="#5051F9"/>
<path d="M32.5816 32.1111C32.8271 32.1037 33.0601 32.001 33.2312 31.8247C33.4022 31.6483 33.4978 31.4123 33.4977 31.1667V29.3911L31.0752 32.1111H32.5816Z" fill="#5051F9"/>
<path d="M34.9472 25.7928C34.9008 25.7509 34.8466 25.7186 34.7877 25.6978C34.7288 25.677 34.6664 25.6681 34.604 25.6716C34.5416 25.6752 34.4806 25.691 34.4244 25.7183C34.3682 25.7456 34.318 25.7837 34.2766 25.8305L28.7894 31.9694L26.3338 29.3297C26.2935 29.2826 26.2443 29.2438 26.1891 29.2157C26.1338 29.1876 26.0735 29.1706 26.0117 29.1658C25.9498 29.161 25.8877 29.1684 25.8287 29.1876C25.7697 29.2068 25.7151 29.2374 25.668 29.2778C25.6237 29.3217 25.5886 29.3739 25.5646 29.4314C25.5407 29.489 25.5283 29.5507 25.5283 29.613C25.5283 29.6754 25.5407 29.7371 25.5646 29.7946C25.5886 29.8522 25.6237 29.9044 25.668 29.9483L28.8224 33.3483L34.9802 26.4444C35.0596 26.3524 35.1005 26.2333 35.0944 26.112C35.0882 25.9906 35.0355 25.8763 34.9472 25.7928Z" fill="#5051F9"/>
</g>
<path d="M58.0796 30V20.77H59.5356V30H58.0796ZM67.5365 30H66.1065V26.191C66.1065 25.5583 66.0025 25.0947 65.7945 24.8C65.5952 24.5053 65.2962 24.358 64.8975 24.358C64.6202 24.358 64.3429 24.4273 64.0655 24.566C63.7969 24.7047 63.5542 24.8953 63.3375 25.138C63.1209 25.372 62.9649 25.645 62.8695 25.957V30H61.4395V23.201H62.7395V24.566C62.9129 24.2627 63.1382 24.0027 63.4155 23.786C63.7015 23.5607 64.0222 23.3873 64.3775 23.266C64.7329 23.1447 65.1099 23.084 65.5085 23.084C65.9159 23.084 66.2495 23.1577 66.5095 23.305C66.7782 23.4523 66.9862 23.656 67.1335 23.916C67.2895 24.1673 67.3935 24.462 67.4455 24.8C67.5062 25.1293 67.5365 25.4803 67.5365 25.853V30ZM70.9674 30L68.3804 23.201H69.8624L71.7994 28.674L73.7364 23.201H75.1144L72.5274 30H70.9674ZM76.1407 30V23.201H77.5707V30H76.1407ZM76.1407 22.083V20.51H77.5707V22.083H76.1407ZM83.0722 29.649C82.9508 29.7097 82.7992 29.7747 82.6172 29.844C82.4352 29.9133 82.2272 29.974 81.9932 30.026C81.7678 30.078 81.5338 30.104 81.2912 30.104C80.9965 30.104 80.7235 30.052 80.4722 29.948C80.2208 29.844 80.0172 29.6793 79.8612 29.454C79.7138 29.22 79.6402 28.921 79.6402 28.557V24.306H78.7432V23.201H79.6402V20.965H81.0702V23.201H82.5522V24.306H81.0702V28.102C81.0875 28.336 81.1612 28.5093 81.2912 28.622C81.4298 28.7347 81.5988 28.791 81.7982 28.791C81.9975 28.791 82.1882 28.7563 82.3702 28.687C82.5522 28.6177 82.6865 28.5613 82.7732 28.518L83.0722 29.649ZM87.0547 30.13C86.5261 30.13 86.0451 30.039 85.6117 29.857C85.1871 29.6663 84.8187 29.4107 84.5067 29.09C84.1947 28.7607 83.9521 28.388 83.7787 27.972C83.6141 27.5473 83.5317 27.0967 83.5317 26.62C83.5317 25.9787 83.6791 25.3937 83.9737 24.865C84.2684 24.3277 84.6801 23.8987 85.2087 23.578C85.7374 23.2487 86.3571 23.084 87.0677 23.084C87.7784 23.084 88.3894 23.2487 88.9007 23.578C89.4207 23.8987 89.8237 24.3233 90.1097 24.852C90.3957 25.3807 90.5387 25.9483 90.5387 26.555C90.5387 26.659 90.5344 26.7587 90.5257 26.854C90.5171 26.9407 90.5084 27.0143 90.4997 27.075H85.0527C85.0787 27.4737 85.1871 27.8247 85.3777 28.128C85.5771 28.4227 85.8284 28.6567 86.1317 28.83C86.4351 28.9947 86.7601 29.077 87.1067 29.077C87.4881 29.077 87.8477 28.9817 88.1857 28.791C88.5324 28.6003 88.7664 28.349 88.8877 28.037L90.1097 28.388C89.9624 28.7173 89.7371 29.0163 89.4337 29.285C89.1391 29.545 88.7881 29.753 88.3807 29.909C87.9734 30.0563 87.5314 30.13 87.0547 30.13ZM85.0137 26.126H89.1217C89.0957 25.736 88.9831 25.3937 88.7837 25.099C88.5931 24.7957 88.3461 24.5617 88.0427 24.397C87.7481 24.2237 87.4187 24.137 87.0547 24.137C86.6994 24.137 86.3701 24.2237 86.0667 24.397C85.7721 24.5617 85.5294 24.7957 85.3387 25.099C85.1481 25.3937 85.0397 25.736 85.0137 26.126ZM94.8521 27.361V23.201H96.2821V27.075C96.2821 27.6817 96.3904 28.141 96.6071 28.453C96.8324 28.7563 97.1574 28.908 97.5821 28.908C97.8507 28.908 98.1107 28.8517 98.3621 28.739C98.6221 28.6263 98.8561 28.4617 99.0641 28.245C99.2807 28.0197 99.4541 27.751 99.5841 27.439V23.201H101.014V28.388C101.014 28.5527 101.044 28.6697 101.105 28.739C101.166 28.8083 101.265 28.8473 101.404 28.856V30C101.257 30.026 101.135 30.0433 101.04 30.052C100.945 30.0607 100.854 30.065 100.767 30.065C100.507 30.065 100.29 29.9957 100.117 29.857C99.9437 29.7097 99.8441 29.5233 99.8181 29.298L99.7921 28.622C99.4887 29.116 99.0944 29.493 98.6091 29.753C98.1237 30.0043 97.5907 30.13 97.0101 30.13C96.2994 30.13 95.7621 29.896 95.3981 29.428C95.0341 28.96 94.8521 28.271 94.8521 27.361ZM105.257 30.13C104.685 30.13 104.143 30.039 103.632 29.857C103.121 29.6663 102.683 29.3847 102.319 29.012L102.852 28.05C103.242 28.3967 103.632 28.648 104.022 28.804C104.421 28.96 104.815 29.038 105.205 29.038C105.604 29.038 105.929 28.9643 106.18 28.817C106.431 28.661 106.557 28.4357 106.557 28.141C106.557 27.9243 106.492 27.764 106.362 27.66C106.232 27.556 106.041 27.465 105.79 27.387C105.547 27.309 105.253 27.2223 104.906 27.127C104.421 26.9797 104.013 26.828 103.684 26.672C103.355 26.5073 103.108 26.308 102.943 26.074C102.778 25.84 102.696 25.541 102.696 25.177C102.696 24.735 102.809 24.358 103.034 24.046C103.259 23.734 103.571 23.4957 103.97 23.331C104.377 23.1663 104.845 23.084 105.374 23.084C105.868 23.084 106.323 23.162 106.739 23.318C107.164 23.4653 107.536 23.6993 107.857 24.02L107.246 24.969C106.943 24.6917 106.631 24.488 106.31 24.358C105.998 24.228 105.66 24.163 105.296 24.163C105.088 24.163 104.889 24.189 104.698 24.241C104.507 24.2843 104.347 24.371 104.217 24.501C104.096 24.6223 104.035 24.7957 104.035 25.021C104.035 25.203 104.087 25.3503 104.191 25.463C104.295 25.5757 104.451 25.671 104.659 25.749C104.867 25.827 105.123 25.9137 105.426 26.009C105.955 26.165 106.405 26.321 106.778 26.477C107.151 26.6243 107.437 26.8193 107.636 27.062C107.844 27.296 107.948 27.621 107.948 28.037C107.948 28.6957 107.701 29.2113 107.207 29.584C106.722 29.948 106.072 30.13 105.257 30.13ZM112.306 30.13C111.777 30.13 111.296 30.039 110.863 29.857C110.438 29.6663 110.07 29.4107 109.758 29.09C109.446 28.7607 109.203 28.388 109.03 27.972C108.865 27.5473 108.783 27.0967 108.783 26.62C108.783 25.9787 108.93 25.3937 109.225 24.865C109.519 24.3277 109.931 23.8987 110.46 23.578C110.988 23.2487 111.608 23.084 112.319 23.084C113.029 23.084 113.64 23.2487 114.152 23.578C114.672 23.8987 115.075 24.3233 115.361 24.852C115.647 25.3807 115.79 25.9483 115.79 26.555C115.79 26.659 115.785 26.7587 115.777 26.854C115.768 26.9407 115.759 27.0143 115.751 27.075H110.304C110.33 27.4737 110.438 27.8247 110.629 28.128C110.828 28.4227 111.079 28.6567 111.383 28.83C111.686 28.9947 112.011 29.077 112.358 29.077C112.739 29.077 113.099 28.9817 113.437 28.791C113.783 28.6003 114.017 28.349 114.139 28.037L115.361 28.388C115.213 28.7173 114.988 29.0163 114.685 29.285C114.39 29.545 114.039 29.753 113.632 29.909C113.224 30.0563 112.782 30.13 112.306 30.13ZM110.265 26.126H114.373C114.347 25.736 114.234 25.3937 114.035 25.099C113.844 24.7957 113.597 24.5617 113.294 24.397C112.999 24.2237 112.67 24.137 112.306 24.137C111.95 24.137 111.621 24.2237 111.318 24.397C111.023 24.5617 110.78 24.7957 110.59 25.099C110.399 25.3937 110.291 25.736 110.265 26.126ZM120.778 24.436C120.223 24.4447 119.729 24.5703 119.296 24.813C118.871 25.0557 118.568 25.398 118.386 25.84V30H116.956V23.201H118.282V24.722C118.516 24.254 118.824 23.8813 119.205 23.604C119.586 23.318 119.989 23.162 120.414 23.136C120.501 23.136 120.57 23.136 120.622 23.136C120.683 23.136 120.735 23.1403 120.778 23.149V24.436Z" fill="#333333"/>
<defs>
<clipPath id="clip0_967_2318">
<rect width="17" height="17" fill="white" transform="translate(19 17)"/>
</clipPath>
</defs>
</svg>
