<svg width="35" height="23" viewBox="0 0 35 23" fill="none" xmlns="http://www.w3.org/2000/svg">
<path d="M1.14 17.65C1.4 17.83 1.86 18.05 2.52 18.31C3.18 18.55 3.96 18.67 4.86 18.67C5.64 18.67 6.28 18.54 6.78 18.28C7.28 18 7.66 17.59 7.92 17.05C8.2 16.51 8.38 15.81 8.46 14.95C8.56 14.09 8.61 13.06 8.61 11.86V0.699999H12.75V11.53C12.75 13.13 12.66 14.59 12.48 15.91C12.3 17.23 11.95 18.37 11.43 19.33C10.91 20.29 10.12 21.03 9.06 21.55C8.02 22.07 6.63 22.33 4.89 22.33C3.93 22.33 3.07 22.22 2.31 22C1.55 21.78 0.85 21.45 0.21 21.01L1.14 17.65ZM19.1463 0.699999L24.9063 17.08L30.6063 0.699999H34.9563L26.8863 22H22.8963L14.7963 0.699999H19.1463Z" fill="#CBCBCB"/>
</svg>
