<svg width="22" height="22" viewBox="0 0 22 22" fill="none" xmlns="http://www.w3.org/2000/svg">
<path d="M11.528 14.6148L7.9411 18.2017C7.50682 18.6209 6.92683 18.8551 6.32329 18.8551C5.71975 18.8551 5.13976 18.6209 4.70548 18.2017C4.49249 17.9896 4.32349 17.7375 4.20817 17.4598C4.09286 17.1822 4.03349 16.8846 4.03349 16.5839C4.03349 16.2833 4.09286 15.9856 4.20817 15.708C4.32349 15.4304 4.49249 15.1783 4.70548 14.9661L8.29239 11.3792C8.46647 11.2051 8.56427 10.969 8.56427 10.7228C8.56427 10.4767 8.46647 10.2406 8.29239 10.0665C8.11831 9.8924 7.88221 9.79461 7.63603 9.79461C7.38984 9.79461 7.15374 9.8924 6.97966 10.0665L3.39275 13.6626C2.67015 14.4492 2.27935 15.4844 2.30195 16.5523C2.32456 17.6201 2.75883 18.6379 3.51407 19.3932C4.26931 20.1484 5.28712 20.5827 6.35495 20.6053C7.42278 20.6279 8.45806 20.2371 9.24459 19.5145L12.8407 15.9276C13.0148 15.7535 13.1126 15.5174 13.1126 15.2712C13.1126 15.025 13.0148 14.7889 12.8407 14.6148C12.6667 14.4408 12.4306 14.343 12.1844 14.343C11.9382 14.343 11.7021 14.4408 11.528 14.6148ZM19.4599 3.44734C18.6822 2.6745 17.6304 2.24072 16.534 2.24072C15.4376 2.24072 14.3857 2.6745 13.608 3.44734L10.0119 7.03425C9.9257 7.12045 9.85732 7.22277 9.81067 7.33539C9.76403 7.44801 9.74002 7.56872 9.74002 7.69062C9.74002 7.81252 9.76403 7.93322 9.81067 8.04584C9.85732 8.15846 9.9257 8.26079 10.0119 8.34698C10.0981 8.43318 10.2004 8.50155 10.313 8.5482C10.4257 8.59485 10.5464 8.61886 10.6683 8.61886C10.7902 8.61886 10.9109 8.59485 11.0235 8.5482C11.1361 8.50155 11.2384 8.43318 11.3246 8.34698L14.9115 4.76008C15.3458 4.34095 15.9258 4.10672 16.5293 4.10672C17.1329 4.10672 17.7129 4.34095 18.1471 4.76008C18.3601 4.97223 18.5291 5.22435 18.6445 5.50197C18.7598 5.7796 18.8191 6.07726 18.8191 6.37788C18.8191 6.6785 18.7598 6.97617 18.6445 7.25379C18.5291 7.53142 18.3601 7.78354 18.1471 7.99569L14.5602 11.5826C14.4736 11.6685 14.4048 11.7708 14.3579 11.8834C14.3109 11.9961 14.2868 12.1169 14.2868 12.239C14.2868 12.361 14.3109 12.4818 14.3579 12.5945C14.4048 12.7071 14.4736 12.8094 14.5602 12.8953C14.6462 12.982 14.7484 13.0508 14.8611 13.0977C14.9737 13.1446 15.0946 13.1688 15.2166 13.1688C15.3386 13.1688 15.4595 13.1446 15.5721 13.0977C15.6848 13.0508 15.787 12.982 15.873 12.8953L19.4599 9.29918C20.2327 8.5215 20.6665 7.46965 20.6665 6.37326C20.6665 5.27687 20.2327 4.22502 19.4599 3.44734ZM8.49577 14.4114C8.58216 14.4971 8.6846 14.5649 8.79724 14.6109C8.90987 14.6569 9.03048 14.6802 9.15214 14.6795C9.27381 14.6802 9.39441 14.6569 9.50705 14.6109C9.61968 14.5649 9.72213 14.4971 9.80851 14.4114L14.3569 9.8631C14.5309 9.68902 14.6287 9.45292 14.6287 9.20673C14.6287 8.96055 14.5309 8.72444 14.3569 8.55037C14.1828 8.37629 13.9467 8.27849 13.7005 8.27849C13.4543 8.27849 13.2182 8.37629 13.0441 8.55037L8.49577 13.0987C8.40913 13.1847 8.34035 13.2869 8.29342 13.3996C8.24648 13.5122 8.22232 13.633 8.22232 13.7551C8.22232 13.8771 8.24648 13.998 8.29342 14.1106C8.34035 14.2233 8.40913 14.3255 8.49577 14.4114Z" fill="#505050"/>
</svg>
