<svg width="17" height="22" viewBox="0 0 17 22" fill="none" xmlns="http://www.w3.org/2000/svg">
<path fill-rule="evenodd" clip-rule="evenodd" d="M9.13415 21.2579L9.12246 21.2599L9.04703 21.2949L9.02578 21.2989L9.0109 21.2949L8.93546 21.2599C8.92413 21.2566 8.91563 21.2583 8.90996 21.2649L8.90571 21.2749L8.88765 21.7029L8.89296 21.7229L8.90359 21.7359L9.01409 21.8099L9.03003 21.8139L9.04278 21.8099L9.15328 21.7359L9.16603 21.7199L9.17028 21.7029L9.15221 21.2759C9.14938 21.2653 9.14336 21.2593 9.13415 21.2579ZM9.41571 21.1449L9.4019 21.1469L9.20534 21.2399L9.19471 21.2499L9.19153 21.2609L9.21065 21.6909L9.21596 21.7029L9.22446 21.7099L9.43803 21.8029C9.45148 21.8063 9.46176 21.8036 9.46884 21.7949L9.47309 21.7809L9.43696 21.1669C9.43342 21.1549 9.42634 21.1476 9.41571 21.1449ZM8.65603 21.1469C8.65134 21.1443 8.64575 21.1434 8.6404 21.1445C8.63506 21.1456 8.63038 21.1487 8.62734 21.1529L8.62096 21.1669L8.58484 21.7809C8.58555 21.7929 8.59157 21.8009 8.6029 21.8049L8.61884 21.8029L8.8324 21.7099L8.84303 21.7019L8.84728 21.6909L8.86534 21.2609L8.86215 21.2489L8.85153 21.2389L8.65603 21.1469Z" fill="#5F6388"/>
<path d="M2.89391 14.64C3.16443 14.5657 3.45521 14.5957 3.70229 14.7232C3.94937 14.8507 4.1325 15.0654 4.21141 15.32C4.29031 15.5746 4.25851 15.8483 4.12302 16.0808C3.98752 16.3134 3.75943 16.4857 3.48891 16.56C2.95766 16.706 2.57516 16.86 2.32972 17C2.58259 17.143 2.98209 17.303 3.53672 17.452C4.76391 17.782 6.52022 18 8.50391 18C10.4876 18 12.2439 17.782 13.4711 17.452C14.0268 17.303 14.4252 17.143 14.6781 17C14.4337 16.86 14.0512 16.706 13.52 16.56C13.2537 16.4825 13.0305 16.3096 12.8984 16.0786C12.7663 15.8476 12.7359 15.577 12.8139 15.3251C12.8918 15.0733 13.0717 14.8603 13.3149 14.7321C13.5581 14.604 13.845 14.5709 14.1139 14.64C14.8237 14.835 15.4739 15.085 15.9733 15.406C16.4355 15.705 17.0039 16.226 17.0039 17C17.0039 17.783 16.4217 18.308 15.952 18.607C15.4442 18.929 14.7801 19.18 14.0544 19.375C12.5903 19.77 10.6289 20 8.50391 20C6.37891 20 4.41753 19.77 2.95341 19.375C2.22772 19.18 1.56366 18.929 1.05578 18.607C0.586156 18.307 0.00390625 17.783 0.00390625 17C0.00390625 16.226 0.572344 15.705 1.03453 15.406C1.53391 15.085 2.18416 14.835 2.89391 14.64ZM8.50391 0C10.6174 0 12.6442 0.790176 14.1387 2.1967C15.6331 3.60322 16.4727 5.51088 16.4727 7.5C16.4727 10.068 14.9852 12.156 13.4445 13.64C12.8321 14.2239 12.174 14.7638 11.4757 15.255C10.8446 15.701 9.40172 16.537 9.40172 16.537C9.12806 16.6834 8.81868 16.7604 8.50391 16.7604C8.18913 16.7604 7.87975 16.6834 7.60609 16.537C6.89003 16.1462 6.19763 15.7182 5.53209 15.255C4.83279 14.765 4.17458 14.2251 3.56328 13.64C2.02266 12.156 0.535156 10.068 0.535156 7.5C0.535156 5.51088 1.37472 3.60322 2.86915 2.1967C4.36358 0.790176 6.39046 0 8.50391 0ZM8.50391 2C6.95405 2 5.46767 2.57946 4.37175 3.61091C3.27584 4.64236 2.66016 6.04131 2.66016 7.5C2.66016 9.316 3.71841 10.928 5.08266 12.24C6.10903 13.228 7.23953 13.98 8.02259 14.442L8.50391 14.716L8.98522 14.442C9.76722 13.98 10.8988 13.228 11.9252 12.241C13.2894 10.928 14.3477 9.317 14.3477 7.5C14.3477 6.04131 13.732 4.64236 12.6361 3.61091C11.5401 2.57946 10.0538 2 8.50391 2ZM8.50391 4.5C8.92249 4.5 9.33698 4.5776 9.72371 4.72836C10.1104 4.87913 10.4618 5.1001 10.7578 5.37868C11.0538 5.65726 11.2886 5.98797 11.4488 6.35195C11.609 6.71593 11.6914 7.10603 11.6914 7.5C11.6914 7.89397 11.609 8.28407 11.4488 8.64805C11.2886 9.01203 11.0538 9.34274 10.7578 9.62132C10.4618 9.8999 10.1104 10.1209 9.72371 10.2716C9.33698 10.4224 8.92249 10.5 8.50391 10.5C7.65853 10.5 6.84777 10.1839 6.25 9.62132C5.65223 9.05871 5.31641 8.29565 5.31641 7.5C5.31641 6.70435 5.65223 5.94129 6.25 5.37868C6.84777 4.81607 7.65853 4.5 8.50391 4.5ZM8.50391 6.5C8.22211 6.5 7.95186 6.60536 7.75261 6.79289C7.55335 6.98043 7.44141 7.23478 7.44141 7.5C7.44141 7.76522 7.55335 8.01957 7.75261 8.20711C7.95186 8.39464 8.22211 8.5 8.50391 8.5C8.7857 8.5 9.05595 8.39464 9.25521 8.20711C9.45446 8.01957 9.56641 7.76522 9.56641 7.5C9.56641 7.23478 9.45446 6.98043 9.25521 6.79289C9.05595 6.60536 8.7857 6.5 8.50391 6.5Z" fill="#5F6388"/>
</svg>
