<svg width="17" height="18" viewBox="0 0 17 18" fill="none" xmlns="http://www.w3.org/2000/svg">
<path d="M8.82808 8.55C8.07248 8.55 7.34782 8.31295 6.81352 7.89099C6.27923 7.46903 5.97906 6.89674 5.97906 6.3C5.97906 5.70326 6.27923 5.13097 6.81352 4.70901C7.34782 4.28705 8.07248 4.05 8.82808 4.05C9.58369 4.05 10.3084 4.28705 10.8426 4.70901C11.3769 5.13097 11.6771 5.70326 11.6771 6.3C11.6771 6.59547 11.6034 6.88806 11.4602 7.16104C11.3171 7.43402 11.1072 7.68206 10.8426 7.89099C10.5781 8.09992 10.264 8.26566 9.91836 8.37873C9.5727 8.4918 9.20222 8.55 8.82808 8.55ZM8.82808 0C6.71239 0 4.68334 0.663748 3.18731 1.84523C1.69129 3.02671 0.85083 4.62914 0.85083 6.3C0.85083 11.025 8.82808 18 8.82808 18C8.82808 18 16.8053 11.025 16.8053 6.3C16.8053 4.62914 15.9649 3.02671 14.4689 1.84523C12.9728 0.663748 10.9438 0 8.82808 0Z" fill="#37CF09"/>
</svg>
