<svg width="32" height="31" viewBox="0 0 32 31" fill="none" xmlns="http://www.w3.org/2000/svg">
<g opacity="0.3">
<path d="M26.2868 15.4267C26.2868 14.0291 25.1502 12.8925 23.7526 12.8925H22.4855V9.09121C22.4855 5.59781 19.6434 2.75571 16.15 2.75571C12.6566 2.75571 9.81449 5.59781 9.81449 9.09121V12.8925H8.54739C7.14977 12.8925 6.01318 14.0291 6.01318 15.4267V25.5635C6.01318 26.9611 7.14977 28.0977 8.54739 28.0977H23.7526C25.1502 28.0977 26.2868 26.9611 26.2868 25.5635V15.4267ZM12.3487 9.09121C12.3487 6.99543 14.0542 5.28991 16.15 5.28991C18.2458 5.28991 19.9513 6.99543 19.9513 9.09121V12.8925H12.3487V9.09121Z" fill="#333333"/>
</g>
</svg>
