<svg width="68" height="68" viewBox="0 0 68 68" fill="none" xmlns="http://www.w3.org/2000/svg">
<path d="M19.0449 11.1868V28.5757C19.0449 29.3842 19.4805 30.13 20.1847 30.5272L27.808 34.8275V31.2324H31.1784V26.5139H35.8969V19.773H29.1561V12.8075H35.8969V7.86428H41.2896V4.49387H44.2106L38.0138 0.952845C36.9806 0.362414 35.7121 0.362413 34.6789 0.952844L20.1739 9.24141C19.4758 9.64033 19.0449 10.3827 19.0449 11.1868Z" fill="#5051F9"/>
<path d="M52.3425 9.45714L44.8846 4.94312V8.31352H41.2895V13.2568H36.3462V19.7729H43.087V26.5137H36.3462V31.6817H31.403V35.2768H28.4819L34.6487 38.8006C35.6981 39.4003 36.9886 39.3903 38.0285 38.7745L52.3239 30.3102C53.0051 29.9068 53.4229 29.1739 53.4229 28.3822V11.374C53.4229 10.59 53.0132 9.86307 52.3425 9.45714Z" fill="#1DA7FF"/>
<path d="M9.12375 62.8121V50.2647H11.5436V62.8121H9.12375ZM1.21889 62.8121V50.2647H3.63875V62.8121H1.21889ZM3.3161 57.3809V55.4271H9.53603V57.3809H3.3161ZM16.9912 63.0272C16.2384 63.0272 15.617 62.9077 15.127 62.6687C14.6371 62.4178 14.2726 62.0892 14.0336 61.6829C13.7946 61.2646 13.6751 60.8105 13.6751 60.3206C13.6751 59.7709 13.8126 59.2869 14.0874 58.8687C14.3742 58.4504 14.8044 58.1278 15.378 57.9007C15.9516 57.6617 16.6686 57.5422 17.529 57.5422H19.7696C19.7696 57.1001 19.7098 56.7356 19.5903 56.4488C19.4708 56.162 19.2796 55.9469 19.0167 55.8035C18.7658 55.6601 18.4372 55.5884 18.0309 55.5884C17.5768 55.5884 17.1884 55.69 16.8658 55.8931C16.5431 56.0963 16.3459 56.401 16.2742 56.8073H13.9082C13.9799 56.1501 14.195 55.5884 14.5534 55.1224C14.9239 54.6444 15.4079 54.2739 16.0054 54.011C16.6148 53.7481 17.296 53.6167 18.0488 53.6167C18.8972 53.6167 19.6322 53.7601 20.2536 54.0469C20.8749 54.3337 21.3529 54.7459 21.6875 55.2837C22.0221 55.8214 22.1894 56.4847 22.1894 57.2734V62.8121H20.146L19.8771 61.4319C19.7457 61.6709 19.5903 61.886 19.4111 62.0772C19.2318 62.2684 19.0227 62.4357 18.7837 62.5791C18.5447 62.7225 18.2758 62.8301 17.9771 62.9018C17.6783 62.9854 17.3497 63.0272 16.9912 63.0272ZM17.5648 61.163C17.8755 61.163 18.1504 61.1093 18.3894 61.0017C18.6403 60.8822 18.8554 60.7269 19.0347 60.5357C19.2139 60.3325 19.3513 60.1055 19.4469 59.8545C19.5545 59.5916 19.6262 59.3168 19.662 59.03V59.0121H17.8158C17.4453 59.0121 17.1406 59.0599 16.9016 59.1555C16.6746 59.2511 16.5013 59.3825 16.3818 59.5498C16.2742 59.7052 16.2205 59.8904 16.2205 60.1055C16.2205 60.3325 16.2742 60.5237 16.3818 60.6791C16.5013 60.8344 16.6626 60.9539 16.8658 61.0376C17.0689 61.1212 17.3019 61.163 17.5648 61.163ZM26.098 62.8121L23.4631 53.8318H25.865L27.6217 61.2168L27.1198 61.1989L29.1453 53.8318H31.834L33.8595 61.1989L33.3397 61.2168L35.1142 53.8318H37.5162L34.8812 62.8121H32.3717L30.2028 55.212H30.7764L28.6075 62.8121H26.098ZM44.9085 62.8121L41.0547 57.8828L44.4962 53.8318H47.3642L42.9009 58.9045V56.9866L47.9199 62.8121H44.9085ZM38.9933 62.8121V49.9062H41.4132V62.8121H38.9933ZM52.9412 63.0272C52.033 63.0272 51.2264 62.836 50.5214 62.4536C49.8283 62.0593 49.2846 61.5156 48.8902 60.8225C48.5078 60.1294 48.3166 59.3228 48.3166 58.4026C48.3166 57.4705 48.5078 56.646 48.8902 55.929C49.2726 55.212 49.8103 54.6503 50.5034 54.244C51.2085 53.8258 52.0211 53.6167 52.9412 53.6167C53.8375 53.6167 54.6202 53.8139 55.2894 54.2082C55.9586 54.5906 56.4784 55.1164 56.8488 55.7856C57.2312 56.4548 57.4224 57.2136 57.4224 58.062C57.4224 58.1815 57.4224 58.313 57.4224 58.4564C57.4224 58.5998 57.4105 58.7551 57.3866 58.9224H50.0374V57.4347H54.9667C54.9428 56.873 54.7397 56.4249 54.3573 56.0903C53.9868 55.7557 53.5208 55.5884 52.9591 55.5884C52.5409 55.5884 52.1585 55.684 51.812 55.8752C51.4654 56.0545 51.1906 56.3353 50.9874 56.7177C50.7962 57.0881 50.7006 57.5601 50.7006 58.1337V58.6536C50.7006 59.1435 50.7902 59.5677 50.9695 59.9262C51.1607 60.2847 51.4236 60.5656 51.7582 60.7687C52.1047 60.9599 52.4931 61.0555 52.9233 61.0555C53.3654 61.0555 53.7299 60.9599 54.0167 60.7687C54.3155 60.5775 54.5425 60.3266 54.6979 60.0159H57.1715C57.0042 60.5775 56.7174 61.0854 56.3111 61.5395C55.9167 61.9936 55.4328 62.358 54.8592 62.6329C54.2975 62.8958 53.6582 63.0272 52.9412 63.0272ZM63.0788 63.0272C62.2663 63.0272 61.5552 62.8958 60.9458 62.6329C60.3363 62.37 59.8524 62.0115 59.4939 61.5574C59.1473 61.0913 58.9442 60.5596 58.8844 59.9621H61.3043C61.364 60.1891 61.4656 60.3983 61.609 60.5895C61.7524 60.7687 61.9436 60.9121 62.1826 61.0196C62.4336 61.1272 62.7204 61.181 63.043 61.181C63.3656 61.181 63.6285 61.1391 63.8317 61.0555C64.0348 60.9599 64.1842 60.8404 64.2798 60.697C64.3874 60.5417 64.4411 60.3803 64.4411 60.213C64.4411 59.9621 64.3635 59.7709 64.2081 59.6394C64.0647 59.508 63.8556 59.4004 63.5807 59.3168C63.3059 59.2331 62.9713 59.1495 62.577 59.0658C62.1707 58.9702 61.7644 58.8627 61.3581 58.7432C60.9518 58.6237 60.5813 58.4683 60.2467 58.2771C59.9241 58.0859 59.6612 57.841 59.458 57.5422C59.2668 57.2435 59.1712 56.879 59.1712 56.4488C59.1712 55.9111 59.3146 55.4331 59.6014 55.0148C59.8882 54.5846 60.3065 54.244 60.8562 53.9931C61.4059 53.7422 62.0631 53.6167 62.8279 53.6167C63.9153 53.6167 64.7757 53.8617 65.4091 54.3516C66.0424 54.8415 66.4188 55.5167 66.5383 56.3771H64.2619C64.1902 56.1023 64.0289 55.8872 63.7779 55.7318C63.5389 55.5645 63.2163 55.4809 62.81 55.4809C62.3917 55.4809 62.0691 55.5585 61.842 55.7139C61.6269 55.8692 61.5194 56.0664 61.5194 56.3054C61.5194 56.4727 61.5911 56.6221 61.7345 56.7535C61.8898 56.873 62.1049 56.9806 62.3798 57.0762C62.6546 57.1718 62.9832 57.2614 63.3656 57.3451C64.0468 57.4884 64.6443 57.6498 65.1581 57.829C65.6839 58.0083 66.0962 58.2712 66.3949 58.6177C66.7056 58.9523 66.861 59.4363 66.861 60.0696C66.8729 60.6432 66.7236 61.1571 66.4129 61.6112C66.1022 62.0533 65.66 62.3999 65.0864 62.6508C64.5248 62.9018 63.8556 63.0272 63.0788 63.0272Z" fill="#23235F"/>
</svg>
