<svg width="380" height="381" viewBox="0 0 380 381" fill="none" xmlns="http://www.w3.org/2000/svg">
<rect width="379.938" height="380.345" rx="10.8865" fill="white"/>
<rect x="32.6592" y="23.1919" width="314.619" height="115.031" rx="11.9751" fill="#F6F6F8"/>
<path d="M148.054 79.7799C148.054 98.7364 130.02 114.104 107.774 114.104C85.5281 114.104 67.4941 98.7364 67.4941 79.7799C67.4941 60.8234 85.5281 45.4561 107.774 45.4561C130.02 45.4561 148.054 60.8234 148.054 79.7799ZM78.4461 79.7799C78.4461 93.5822 91.5767 104.771 107.774 104.771C123.971 104.771 137.102 93.5822 137.102 79.7799C137.102 65.9776 123.971 54.7885 107.774 54.7885C91.5767 54.7885 78.4461 65.9776 78.4461 79.7799Z" fill="white"/>
<path d="M104.484 41.2506C104.399 40.0347 105.328 38.9812 106.547 38.9665C115.599 38.8576 124.523 40.9131 132.296 44.918C140.703 49.2497 147.366 55.6572 151.401 63.2904C155.436 70.9236 156.651 79.4217 154.887 87.6574C153.123 95.893 148.462 103.477 141.522 109.403C134.583 115.329 125.693 119.317 116.032 120.838C106.371 122.359 96.3954 121.341 87.429 117.919C78.4627 114.498 70.9291 108.834 65.8278 101.679C61.1614 95.1341 58.7319 87.6249 58.786 79.9948C58.7944 78.808 59.8155 77.906 61.0008 77.9644L69.3359 78.3754C70.5527 78.4354 71.4741 79.4833 71.4956 80.7013C71.5909 86.1089 73.3753 91.4121 76.687 96.0568C80.4503 101.335 86.0079 105.513 92.6225 108.038C99.2371 110.562 106.596 111.313 113.723 110.191C120.85 109.069 127.408 106.127 132.528 101.755C137.647 97.3832 141.086 91.7884 142.387 85.7129C143.689 79.6373 142.792 73.3681 139.816 67.737C136.839 62.1059 131.924 57.379 125.722 54.1835C120.13 51.3025 113.731 49.789 107.224 49.7899C106.038 49.7901 105.023 48.8973 104.939 47.714L104.484 41.2506Z" fill="#1EA7FF"/>
<path d="M96.2615 86.6136C95.5299 86.6136 94.8695 86.4815 94.2801 86.2173C93.6908 85.9531 93.2184 85.5822 92.8627 85.1047C92.5173 84.6271 92.3445 84.0734 92.3445 83.4434C92.3445 83.0065 92.4157 82.6102 92.5579 82.2546C92.7103 81.899 92.9186 81.584 93.1828 81.3097C93.4571 81.0353 93.7772 80.827 94.143 80.6848C93.6857 80.4714 93.3149 80.1666 93.0304 79.7703C92.756 79.3741 92.6189 78.927 92.6189 78.4291C92.6189 77.9312 92.756 77.4638 93.0304 77.0269C93.3047 76.59 93.7111 76.2395 94.2497 75.9753C94.7882 75.7111 95.4588 75.579 96.2615 75.579C97.0642 75.579 97.7348 75.7111 98.2733 75.9753C98.8118 76.2395 99.2183 76.59 99.4926 77.0269C99.7669 77.4638 99.9041 77.9312 99.9041 78.4291C99.9041 78.9168 99.7618 79.3639 99.4773 79.7703C99.203 80.1666 98.8372 80.4714 98.38 80.6848C98.7458 80.8372 99.0608 81.0506 99.3249 81.3249C99.5993 81.5891 99.8076 81.899 99.9498 82.2546C100.102 82.6102 100.178 83.0065 100.178 83.4434C100.178 84.0734 100.001 84.6271 99.645 85.1047C99.2995 85.5822 98.8321 85.9531 98.2428 86.2173C97.6535 86.4815 96.9931 86.6136 96.2615 86.6136ZM96.2615 84.8913C96.8915 84.8913 97.3639 84.7389 97.6789 84.4341C97.9939 84.1293 98.1514 83.7432 98.1514 83.2758C98.1514 82.7576 97.9837 82.3511 97.6484 82.0565C97.3233 81.7517 96.861 81.5992 96.2615 81.5992C95.6722 81.5992 95.2048 81.7517 94.8593 82.0565C94.524 82.3511 94.3564 82.7576 94.3564 83.2758C94.3564 83.7432 94.5189 84.1293 94.8441 84.4341C95.1692 84.7389 95.6417 84.8913 96.2615 84.8913ZM96.2615 80.0904C96.7797 80.0904 97.181 79.9583 97.4655 79.6941C97.75 79.4299 97.8923 79.0896 97.8923 78.673C97.8923 78.2259 97.75 77.8804 97.4655 77.6366C97.181 77.3826 96.7797 77.2555 96.2615 77.2555C95.7535 77.2555 95.3572 77.3826 95.0727 77.6366C94.7882 77.8804 94.6459 78.231 94.6459 78.6882C94.6459 79.0946 94.7882 79.4299 95.0727 79.6941C95.3572 79.9583 95.7535 80.0904 96.2615 80.0904ZM105.952 86.6136C105.18 86.6136 104.509 86.4764 103.94 86.202C103.381 85.9277 102.944 85.5518 102.629 85.0742C102.314 84.5967 102.132 84.0531 102.081 83.4434H104.077C104.159 83.8397 104.367 84.175 104.702 84.4493C105.037 84.7237 105.459 84.8608 105.967 84.8608C106.333 84.8608 106.653 84.7694 106.927 84.5865C107.202 84.4036 107.415 84.1547 107.567 83.8397C107.72 83.5247 107.796 83.1742 107.796 82.7881C107.796 82.3715 107.715 82.0158 107.552 81.7212C107.4 81.4265 107.186 81.203 106.912 81.0506C106.648 80.888 106.338 80.8067 105.982 80.8067C105.556 80.8067 105.185 80.9134 104.87 81.1268C104.555 81.33 104.331 81.5789 104.199 81.8736H102.218L103.102 75.7619H109.092V77.5604H104.641L104.184 79.9227C104.408 79.689 104.707 79.5011 105.083 79.3588C105.459 79.2064 105.881 79.1302 106.348 79.1302C106.927 79.1302 107.43 79.2318 107.857 79.435C108.284 79.6281 108.639 79.8973 108.924 80.2428C109.208 80.5781 109.422 80.9642 109.564 81.4011C109.706 81.838 109.777 82.2902 109.777 82.7576C109.777 83.3266 109.681 83.8448 109.488 84.3122C109.305 84.7795 109.046 85.186 108.711 85.5314C108.375 85.8769 107.974 86.1462 107.507 86.3392C107.039 86.5221 106.521 86.6136 105.952 86.6136ZM113.406 86.4307L119.396 75.7619H121.392L115.402 86.4307H113.406ZM121.011 86.6136C120.523 86.6136 120.076 86.5069 119.67 86.2935C119.274 86.07 118.954 85.755 118.71 85.3485C118.476 84.932 118.359 84.4442 118.359 83.8854C118.359 83.3164 118.476 82.8287 118.71 82.4223C118.954 82.0158 119.274 81.7059 119.67 81.4926C120.076 81.269 120.523 81.1573 121.011 81.1573C121.519 81.1573 121.966 81.269 122.352 81.4926C122.749 81.7059 123.064 82.0158 123.297 82.4223C123.531 82.8287 123.648 83.3164 123.648 83.8854C123.648 84.4442 123.531 84.932 123.297 85.3485C123.064 85.755 122.749 86.07 122.352 86.2935C121.956 86.5069 121.509 86.6136 121.011 86.6136ZM120.996 85.1961C121.199 85.1961 121.377 85.1453 121.529 85.0437C121.692 84.9421 121.819 84.7948 121.91 84.6017C122.002 84.4087 122.048 84.1699 122.048 83.8854C122.048 83.5907 122.002 83.3469 121.91 83.1538C121.819 82.9506 121.692 82.7982 121.529 82.6966C121.377 82.595 121.204 82.5442 121.011 82.5442C120.818 82.5442 120.64 82.595 120.478 82.6966C120.325 82.7982 120.203 82.9506 120.112 83.1538C120.021 83.3469 119.975 83.5907 119.975 83.8854C119.975 84.1699 120.021 84.4087 120.112 84.6017C120.203 84.7948 120.325 84.9421 120.478 85.0437C120.63 85.1453 120.803 85.1961 120.996 85.1961ZM113.863 81.0506C113.365 81.0506 112.913 80.9388 112.507 80.7153C112.11 80.4917 111.795 80.1768 111.562 79.7703C111.328 79.3639 111.211 78.8813 111.211 78.3224C111.211 77.7433 111.328 77.2555 111.562 76.8593C111.795 76.4529 112.115 76.1379 112.522 75.9143C112.928 75.6908 113.375 75.579 113.863 75.579C114.361 75.579 114.808 75.6908 115.204 75.9143C115.601 76.1379 115.916 76.4529 116.149 76.8593C116.383 77.2555 116.5 77.7433 116.5 78.3224C116.5 78.8813 116.383 79.3639 116.149 79.7703C115.916 80.1768 115.601 80.4917 115.204 80.7153C114.808 80.9388 114.361 81.0506 113.863 81.0506ZM113.848 79.6332C114.051 79.6332 114.229 79.5823 114.381 79.4807C114.544 79.3791 114.666 79.2318 114.747 79.0388C114.839 78.8457 114.884 78.6069 114.884 78.3224C114.884 78.0176 114.839 77.7687 114.747 77.5756C114.666 77.3826 114.544 77.2352 114.381 77.1336C114.229 77.032 114.056 76.9812 113.863 76.9812C113.67 76.9812 113.492 77.032 113.33 77.1336C113.167 77.2352 113.04 77.3876 112.949 77.5909C112.857 77.7839 112.811 78.0278 112.811 78.3224C112.811 78.6069 112.857 78.8457 112.949 79.0388C113.04 79.2318 113.162 79.3791 113.314 79.4807C113.477 79.5823 113.655 79.6332 113.848 79.6332Z" fill="#232360"/>
<path d="M182.138 75.2988L186.04 64.6301H188.372L192.258 75.2988H190.079L187.198 66.9772L184.302 75.2988H182.138ZM183.86 72.8755L184.409 71.2752H189.835L190.368 72.8755H183.86ZM194.793 75.2988L191.989 67.6326H194.153L196.058 73.3632L197.963 67.6326H200.097L197.293 75.2988H194.793ZM203.483 75.4817C202.843 75.4817 202.315 75.3801 201.898 75.1769C201.482 74.9635 201.172 74.6841 200.969 74.3386C200.766 73.983 200.664 73.5918 200.664 73.1651C200.664 72.6977 200.786 72.2862 201.03 71.9306C201.274 71.5749 201.634 71.3006 202.112 71.1075C202.6 70.9043 203.209 70.8027 203.941 70.8027H205.846C205.846 70.4166 205.795 70.1016 205.693 69.8578C205.592 69.6139 205.434 69.431 205.221 69.3091C205.008 69.1872 204.723 69.1262 204.367 69.1262C203.981 69.1262 203.651 69.2126 203.377 69.3853C203.113 69.5479 202.95 69.8019 202.889 70.1474H200.877C200.938 69.5987 201.121 69.1262 201.426 68.7299C201.741 68.3235 202.152 68.0085 202.66 67.785C203.169 67.5615 203.743 67.4497 204.383 67.4497C205.104 67.4497 205.729 67.5716 206.257 67.8155C206.786 68.0593 207.192 68.4099 207.477 68.8671C207.761 69.3243 207.903 69.8883 207.903 70.5589V75.2988H206.166L205.937 74.1253C205.826 74.3285 205.693 74.5114 205.541 74.6739C205.389 74.8365 205.211 74.9788 205.008 75.1007C204.804 75.2226 204.576 75.3141 204.322 75.375C204.068 75.4462 203.788 75.4817 203.483 75.4817ZM203.971 73.8967C204.235 73.8967 204.469 73.8509 204.672 73.7595C204.886 73.6579 205.069 73.5258 205.221 73.3632C205.373 73.1905 205.49 72.9974 205.572 72.7841C205.663 72.5605 205.724 72.3268 205.754 72.083V72.0525H204.185C203.87 72.0525 203.611 72.0931 203.407 72.1744C203.214 72.2557 203.072 72.3675 202.981 72.5097C202.889 72.652 202.843 72.8145 202.843 72.9974C202.843 73.1905 202.889 73.3531 202.981 73.4851C203.072 73.6172 203.204 73.7188 203.377 73.79C203.55 73.8611 203.748 73.8967 203.971 73.8967ZM209.854 75.2988V67.6326H211.911V75.2988H209.854ZM210.89 66.5809C210.514 66.5809 210.209 66.4692 209.976 66.2456C209.742 66.0221 209.625 65.7478 209.625 65.4226C209.625 65.0772 209.742 64.7977 209.976 64.5844C210.209 64.371 210.514 64.2643 210.89 64.2643C211.266 64.2643 211.571 64.371 211.805 64.5844C212.048 64.7977 212.17 65.0772 212.17 65.4226C212.17 65.7478 212.048 66.0221 211.805 66.2456C211.571 66.4692 211.266 66.5809 210.89 66.5809ZM213.975 75.2988V64.3253H216.033V75.2988H213.975ZM220.63 75.4817C219.99 75.4817 219.461 75.3801 219.045 75.1769C218.628 74.9635 218.318 74.6841 218.115 74.3386C217.912 73.983 217.81 73.5918 217.81 73.1651C217.81 72.6977 217.932 72.2862 218.176 71.9306C218.42 71.5749 218.78 71.3006 219.258 71.1075C219.746 70.9043 220.355 70.8027 221.087 70.8027H222.992C222.992 70.4166 222.941 70.1016 222.84 69.8578C222.738 69.6139 222.581 69.431 222.367 69.3091C222.154 69.1872 221.869 69.1262 221.514 69.1262C221.128 69.1262 220.797 69.2126 220.523 69.3853C220.259 69.5479 220.096 69.8019 220.035 70.1474H218.023C218.084 69.5987 218.267 69.1262 218.572 68.7299C218.887 68.3235 219.299 68.0085 219.807 67.785C220.315 67.5615 220.889 67.4497 221.529 67.4497C222.25 67.4497 222.875 67.5716 223.404 67.8155C223.932 68.0593 224.338 68.4099 224.623 68.8671C224.907 69.3243 225.05 69.8883 225.05 70.5589V75.2988H223.312L223.083 74.1253C222.972 74.3285 222.84 74.5114 222.687 74.6739C222.535 74.8365 222.357 74.9788 222.154 75.1007C221.951 75.2226 221.722 75.3141 221.468 75.375C221.214 75.4462 220.935 75.4817 220.63 75.4817ZM221.117 73.8967C221.382 73.8967 221.615 73.8509 221.818 73.7595C222.032 73.6579 222.215 73.5258 222.367 73.3632C222.52 73.1905 222.636 72.9974 222.718 72.7841C222.809 72.5605 222.87 72.3268 222.901 72.083V72.0525H221.331C221.016 72.0525 220.757 72.0931 220.553 72.1744C220.36 72.2557 220.218 72.3675 220.127 72.5097C220.035 72.652 219.99 72.8145 219.99 72.9974C219.99 73.1905 220.035 73.3531 220.127 73.4851C220.218 73.6172 220.35 73.7188 220.523 73.79C220.696 73.8611 220.894 73.8967 221.117 73.8967ZM231.496 75.4817C231.1 75.4817 230.744 75.4309 230.429 75.3293C230.124 75.2379 229.85 75.1058 229.606 74.933C229.372 74.7502 229.174 74.5419 229.012 74.3082L228.783 75.2988H226.954V64.3253H229.012V68.6995C229.256 68.3438 229.576 68.0492 229.972 67.8155C230.378 67.5716 230.881 67.4497 231.481 67.4497C232.192 67.4497 232.822 67.6275 233.371 67.9831C233.929 68.3286 234.366 68.8061 234.681 69.4158C235.006 70.0153 235.169 70.7011 235.169 71.4733C235.169 72.2354 235.006 72.9212 234.681 73.5309C234.366 74.1405 233.929 74.6181 233.371 74.9635C232.822 75.309 232.197 75.4817 231.496 75.4817ZM231.008 73.6833C231.415 73.6833 231.77 73.5918 232.075 73.4089C232.39 73.2159 232.634 72.9568 232.807 72.6316C232.99 72.2963 233.081 71.9102 233.081 71.4733C233.081 71.0364 232.99 70.6503 232.807 70.315C232.634 69.9797 232.39 69.7206 232.075 69.5377C231.77 69.3447 231.415 69.2481 231.008 69.2481C230.612 69.2481 230.256 69.3447 229.941 69.5377C229.626 69.7206 229.383 69.9797 229.21 70.315C229.037 70.6503 228.951 71.0364 228.951 71.4733C228.951 71.9102 229.037 72.2963 229.21 72.6316C229.383 72.9669 229.626 73.226 229.941 73.4089C230.256 73.5918 230.612 73.6833 231.008 73.6833ZM236.941 75.2988V64.3253H238.999V75.2988H236.941ZM244.693 75.4817C243.921 75.4817 243.235 75.3191 242.635 74.994C242.046 74.6587 241.584 74.1964 241.248 73.6071C240.923 73.0076 240.761 72.3167 240.761 71.5343C240.761 70.7418 240.923 70.0407 241.248 69.431C241.573 68.8112 242.031 68.3286 242.62 67.9831C243.22 67.6275 243.91 67.4497 244.693 67.4497C245.455 67.4497 246.12 67.6173 246.689 67.9526C247.258 68.2879 247.7 68.7401 248.015 69.3091C248.341 69.8781 248.503 70.5233 248.503 71.2447C248.503 71.3463 248.498 71.4581 248.488 71.58C248.488 71.7019 248.478 71.834 248.457 71.9763H242.224V70.7113H246.415C246.385 70.2236 246.207 69.8374 245.882 69.5529C245.567 69.2684 245.17 69.1262 244.693 69.1262C244.347 69.1262 244.027 69.2075 243.733 69.3701C243.438 69.5225 243.204 69.7612 243.032 70.0864C242.869 70.4115 242.788 70.818 242.788 71.3057V71.7477C242.788 72.1643 242.864 72.53 243.016 72.845C243.179 73.1498 243.402 73.3886 243.687 73.5613C243.971 73.7239 244.302 73.8052 244.678 73.8052C245.054 73.8052 245.363 73.7239 245.607 73.5613C245.861 73.3988 246.054 73.1854 246.186 72.9212H248.274C248.132 73.4089 247.893 73.8458 247.558 74.232C247.223 74.6181 246.811 74.9229 246.324 75.1464C245.836 75.37 245.292 75.4817 244.693 75.4817ZM257.479 75.4817C256.707 75.4817 256.016 75.3496 255.406 75.0855C254.806 74.8213 254.329 74.4352 253.973 73.9271C253.628 73.4191 253.445 72.8044 253.425 72.083H255.604C255.624 72.3979 255.706 72.6824 255.848 72.9365C256 73.1905 256.214 73.3937 256.488 73.5461C256.762 73.6884 257.088 73.7595 257.464 73.7595C257.789 73.7595 258.068 73.7087 258.302 73.6071C258.546 73.4953 258.734 73.3429 258.866 73.1498C258.998 72.9568 259.064 72.7282 259.064 72.464C259.064 72.1592 258.988 71.9052 258.835 71.7019C258.693 71.4987 258.49 71.326 258.226 71.1837C257.961 71.0313 257.662 70.8992 257.326 70.7875C256.991 70.6757 256.635 70.5538 256.259 70.4217C255.416 70.1474 254.771 69.7816 254.324 69.3243C253.887 68.8671 253.668 68.2625 253.668 67.5106C253.668 66.8705 253.821 66.3218 254.126 65.8646C254.441 65.4074 254.873 65.0568 255.421 64.813C255.97 64.5691 256.595 64.4472 257.296 64.4472C258.017 64.4472 258.647 64.5742 259.186 64.8282C259.734 65.0721 260.166 65.4277 260.481 65.8951C260.796 66.3625 260.964 66.9112 260.984 67.5411H258.774C258.774 67.3074 258.708 67.089 258.576 66.8858C258.454 66.6724 258.281 66.5047 258.058 66.3828C257.834 66.2507 257.57 66.1847 257.265 66.1847C257.001 66.1745 256.757 66.2152 256.534 66.3066C256.32 66.3981 256.148 66.5352 256.016 66.7181C255.894 66.8908 255.833 67.1093 255.833 67.3735C255.833 67.6275 255.894 67.8409 256.016 68.0136C256.148 68.1863 256.326 68.3387 256.549 68.4708C256.773 68.5928 257.032 68.7096 257.326 68.8214C257.631 68.923 257.961 69.0297 258.317 69.1414C258.856 69.3243 259.343 69.5428 259.78 69.7968C260.227 70.0407 260.583 70.3607 260.847 70.757C261.111 71.1533 261.243 71.6765 261.243 72.3268C261.243 72.8857 261.096 73.4039 260.801 73.8814C260.517 74.359 260.095 74.7451 259.536 75.0397C258.977 75.3344 258.292 75.4817 257.479 75.4817ZM266.403 75.2988C265.864 75.2988 265.392 75.2175 264.986 75.055C264.579 74.8822 264.264 74.6028 264.041 74.2167C263.827 73.8204 263.721 73.2819 263.721 72.6012V69.3548H262.41V67.6326H263.721L263.949 65.5446H265.778V67.6326H267.79V69.3548H265.778V72.6316C265.778 72.9771 265.849 73.2159 265.991 73.348C266.144 73.4801 266.408 73.5461 266.784 73.5461H267.775V75.2988H266.403ZM272.956 75.4817C272.224 75.4817 271.564 75.3141 270.974 74.9788C270.395 74.6333 269.933 74.1608 269.588 73.5613C269.252 72.9517 269.085 72.2557 269.085 71.4733C269.085 70.6808 269.252 69.9848 269.588 69.3853C269.933 68.7757 270.4 68.3032 270.99 67.9679C271.579 67.6224 272.239 67.4497 272.971 67.4497C273.713 67.4497 274.373 67.6224 274.952 67.9679C275.542 68.3032 276.004 68.7757 276.339 69.3853C276.685 69.9848 276.858 70.6808 276.858 71.4733C276.858 72.2557 276.685 72.9517 276.339 73.5613C276.004 74.1608 275.542 74.6333 274.952 74.9788C274.363 75.3141 273.698 75.4817 272.956 75.4817ZM272.956 73.6985C273.301 73.6985 273.606 73.6172 273.87 73.4547C274.134 73.2921 274.348 73.0432 274.51 72.7078C274.673 72.3725 274.754 71.961 274.754 71.4733C274.754 70.9754 274.673 70.5639 274.51 70.2388C274.358 69.9035 274.145 69.6546 273.87 69.492C273.606 69.3193 273.306 69.2329 272.971 69.2329C272.646 69.2329 272.346 69.3193 272.072 69.492C271.797 69.6546 271.579 69.9035 271.416 70.2388C271.254 70.5639 271.173 70.9754 271.173 71.4733C271.173 71.961 271.254 72.3725 271.416 72.7078C271.579 73.0432 271.792 73.2921 272.057 73.4547C272.331 73.6172 272.631 73.6985 272.956 73.6985ZM278.631 75.2988V67.6326H280.46L280.643 69.05C280.836 68.7147 281.069 68.4302 281.344 68.1965C281.618 67.9628 281.933 67.7799 282.289 67.6478C282.654 67.5157 283.056 67.4497 283.493 67.4497V69.6292H282.807C282.502 69.6292 282.218 69.6647 281.953 69.7358C281.699 69.807 281.476 69.9238 281.283 70.0864C281.09 70.2388 280.942 70.4573 280.841 70.7418C280.739 71.0161 280.688 71.3565 280.688 71.7629V75.2988H278.631ZM287.443 75.4817C286.803 75.4817 286.275 75.3801 285.858 75.1769C285.442 74.9635 285.132 74.6841 284.928 74.3386C284.725 73.983 284.624 73.5918 284.624 73.1651C284.624 72.6977 284.746 72.2862 284.989 71.9306C285.233 71.5749 285.594 71.3006 286.072 71.1075C286.559 70.9043 287.169 70.8027 287.9 70.8027H289.806C289.806 70.4166 289.755 70.1016 289.653 69.8578C289.552 69.6139 289.394 69.431 289.181 69.3091C288.967 69.1872 288.683 69.1262 288.327 69.1262C287.941 69.1262 287.611 69.2126 287.337 69.3853C287.072 69.5479 286.91 69.8019 286.849 70.1474H284.837C284.898 69.5987 285.081 69.1262 285.386 68.7299C285.701 68.3235 286.112 68.0085 286.62 67.785C287.128 67.5615 287.702 67.4497 288.342 67.4497C289.064 67.4497 289.689 67.5716 290.217 67.8155C290.745 68.0593 291.152 68.4099 291.436 68.8671C291.721 69.3243 291.863 69.8883 291.863 70.5589V75.2988H290.126L289.897 74.1253C289.785 74.3285 289.653 74.5114 289.501 74.6739C289.348 74.8365 289.171 74.9788 288.967 75.1007C288.764 75.2226 288.536 75.3141 288.282 75.375C288.027 75.4462 287.748 75.4817 287.443 75.4817ZM287.931 73.8967C288.195 73.8967 288.429 73.8509 288.632 73.7595C288.845 73.6579 289.028 73.5258 289.181 73.3632C289.333 73.1905 289.45 72.9974 289.531 72.7841C289.623 72.5605 289.684 72.3268 289.714 72.083V72.0525H288.144C287.829 72.0525 287.57 72.0931 287.367 72.1744C287.174 72.2557 287.032 72.3675 286.94 72.5097C286.849 72.652 286.803 72.8145 286.803 72.9974C286.803 73.1905 286.849 73.3531 286.94 73.4851C287.032 73.6172 287.164 73.7188 287.337 73.79C287.509 73.8611 287.707 73.8967 287.931 73.8967ZM297.06 78.8348C296.338 78.8348 295.703 78.7433 295.155 78.5604C294.606 78.3877 294.179 78.1184 293.874 77.7526C293.58 77.397 293.432 76.955 293.432 76.4267C293.432 76.071 293.524 75.7357 293.707 75.4208C293.89 75.1058 294.154 74.8213 294.499 74.5673C294.855 74.3031 295.297 74.0795 295.825 73.8967L296.603 74.9178C296.135 75.0702 295.795 75.2582 295.581 75.4817C295.378 75.7154 295.277 75.9593 295.277 76.2133C295.277 76.447 295.353 76.6451 295.505 76.8077C295.668 76.9703 295.881 77.0871 296.145 77.1582C296.42 77.2395 296.724 77.2802 297.06 77.2802C297.385 77.2802 297.664 77.2395 297.898 77.1582C298.142 77.077 298.33 76.955 298.462 76.7925C298.604 76.64 298.675 76.4571 298.675 76.2438C298.675 75.9694 298.579 75.7459 298.386 75.5732C298.193 75.4004 297.807 75.2937 297.227 75.2531C296.709 75.2125 296.247 75.1566 295.84 75.0855C295.444 75.0042 295.094 74.9127 294.789 74.8111C294.494 74.6993 294.24 74.5825 294.027 74.4606C293.813 74.3285 293.641 74.1964 293.509 74.0643V73.7138L295.139 71.9458L296.603 72.4183L294.697 74.3234L295.292 73.3022C295.393 73.3734 295.495 73.4394 295.597 73.5004C295.708 73.5512 295.846 73.5969 296.008 73.6376C296.171 73.6782 296.384 73.7188 296.648 73.7595C296.912 73.8001 297.248 73.8408 297.654 73.8814C298.325 73.9322 298.873 74.0541 299.3 74.2472C299.727 74.4402 300.042 74.6993 300.245 75.0245C300.448 75.3496 300.55 75.7408 300.55 76.1981C300.55 76.6553 300.423 77.082 300.169 77.4783C299.925 77.8847 299.544 78.2099 299.026 78.4537C298.518 78.7077 297.862 78.8348 297.06 78.8348ZM297.075 73.0432C296.435 73.0432 295.881 72.9161 295.414 72.6621C294.957 72.4081 294.601 72.0728 294.347 71.6562C294.103 71.2396 293.981 70.7722 293.981 70.254C293.981 69.7257 294.103 69.2532 294.347 68.8366C294.601 68.42 294.957 68.0847 295.414 67.8307C295.881 67.5767 296.435 67.4497 297.075 67.4497C297.725 67.4497 298.279 67.5767 298.736 67.8307C299.204 68.0847 299.559 68.42 299.803 68.8366C300.047 69.2532 300.169 69.7257 300.169 70.254C300.169 70.7722 300.047 71.2396 299.803 71.6562C299.559 72.0728 299.204 72.4081 298.736 72.6621C298.279 72.9161 297.725 73.0432 297.075 73.0432ZM297.075 71.4733C297.471 71.4733 297.791 71.3717 298.035 71.1685C298.279 70.9551 298.401 70.6503 298.401 70.254C298.401 69.8578 298.279 69.558 298.035 69.3548C297.791 69.1516 297.471 69.05 297.075 69.05C296.689 69.05 296.369 69.1516 296.115 69.3548C295.871 69.558 295.749 69.8578 295.749 70.254C295.749 70.6503 295.871 70.9551 296.115 71.1685C296.359 71.3717 296.679 71.4733 297.075 71.4733ZM298.34 69.0805L298.005 67.6326H301.175V68.8519L298.34 69.0805ZM306.238 75.4817C305.465 75.4817 304.779 75.3191 304.18 74.994C303.591 74.6587 303.128 74.1964 302.793 73.6071C302.468 73.0076 302.305 72.3167 302.305 71.5343C302.305 70.7418 302.468 70.0407 302.793 69.431C303.118 68.8112 303.575 68.3286 304.165 67.9831C304.764 67.6275 305.455 67.4497 306.238 67.4497C307 67.4497 307.665 67.6173 308.234 67.9526C308.803 68.2879 309.245 68.7401 309.56 69.3091C309.885 69.8781 310.048 70.5233 310.048 71.2447C310.048 71.3463 310.043 71.4581 310.033 71.58C310.033 71.7019 310.022 71.834 310.002 71.9763H303.768V70.7113H307.96C307.929 70.2236 307.751 69.8374 307.426 69.5529C307.111 69.2684 306.715 69.1262 306.238 69.1262C305.892 69.1262 305.572 69.2075 305.277 69.3701C304.983 69.5225 304.749 69.7612 304.576 70.0864C304.414 70.4115 304.332 70.818 304.332 71.3057V71.7477C304.332 72.1643 304.409 72.53 304.561 72.845C304.724 73.1498 304.947 73.3886 305.232 73.5613C305.516 73.7239 305.846 73.8052 306.222 73.8052C306.598 73.8052 306.908 73.7239 307.152 73.5613C307.406 73.3988 307.599 73.1854 307.731 72.9212H309.819C309.677 73.4089 309.438 73.8458 309.103 74.232C308.768 74.6181 308.356 74.9229 307.868 75.1464C307.381 75.37 306.837 75.4817 306.238 75.4817Z" fill="#232360"/>
<path d="M183.88 97.4185V89.75L182.221 90.1942V89.2014L184.363 88.2738H185.212V97.4185H183.88ZM190.033 97.5752C189.449 97.5752 188.914 97.4707 188.426 97.2617C187.947 97.044 187.564 96.7217 187.276 96.295C186.998 95.8595 186.849 95.3152 186.832 94.662H188.138C188.147 94.993 188.226 95.2934 188.374 95.5634C188.522 95.8334 188.735 96.0511 189.014 96.2166C189.301 96.3734 189.641 96.4517 190.033 96.4517C190.425 96.4517 190.751 96.3777 191.012 96.2297C191.282 96.0816 191.483 95.8813 191.613 95.6287C191.753 95.3762 191.822 95.0931 191.822 94.7796C191.822 94.3964 191.727 94.0828 191.535 93.839C191.352 93.5951 191.1 93.4122 190.777 93.2903C190.464 93.1684 190.111 93.1074 189.719 93.1074H189.04V92.0101H189.719C190.268 92.0101 190.703 91.8838 191.026 91.6312C191.356 91.3786 191.522 91.0216 191.522 90.56C191.522 90.1768 191.396 89.8632 191.143 89.6194C190.891 89.3668 190.52 89.2405 190.033 89.2405C189.536 89.2405 189.144 89.3799 188.857 89.6586C188.578 89.9373 188.422 90.29 188.387 90.7167H187.08C187.106 90.2029 187.246 89.75 187.498 89.3581C187.751 88.9575 188.091 88.6527 188.517 88.4437C188.953 88.2259 189.458 88.1171 190.033 88.1171C190.642 88.1171 191.152 88.2259 191.561 88.4437C191.979 88.6527 192.293 88.9357 192.502 89.2928C192.719 89.6499 192.828 90.0418 192.828 90.4685C192.828 90.7908 192.767 91.0912 192.645 91.3699C192.524 91.6486 192.349 91.8881 192.123 92.0884C191.905 92.2888 191.631 92.4325 191.3 92.5195C191.648 92.5892 191.957 92.7242 192.227 92.9245C192.506 93.1248 192.724 93.3818 192.881 93.6953C193.046 94.0088 193.129 94.3746 193.129 94.7926C193.129 95.2891 193.011 95.7506 192.776 96.1774C192.541 96.5954 192.193 96.9351 191.731 97.1964C191.278 97.4489 190.712 97.5752 190.033 97.5752ZM198.429 97.5752C197.628 97.5752 196.94 97.3793 196.365 96.9874C195.79 96.5867 195.346 96.0337 195.032 95.3283C194.719 94.6141 194.562 93.7867 194.562 92.8461C194.562 91.9055 194.719 91.0825 195.032 90.3771C195.346 89.6629 195.79 89.1099 196.365 88.718C196.94 88.3174 197.628 88.1171 198.429 88.1171C199.23 88.1171 199.918 88.3174 200.493 88.718C201.068 89.1099 201.508 89.6629 201.812 90.3771C202.126 91.0825 202.283 91.9055 202.283 92.8461C202.283 93.7867 202.126 94.6141 201.812 95.3283C201.508 96.0337 201.068 96.5867 200.493 96.9874C199.918 97.3793 199.23 97.5752 198.429 97.5752ZM198.429 96.4125C198.917 96.4125 199.348 96.2688 199.722 95.9814C200.105 95.694 200.406 95.2847 200.624 94.7534C200.841 94.2222 200.95 93.5864 200.95 92.8461C200.95 92.0972 200.841 91.4614 200.624 90.9388C200.406 90.4076 200.105 90.0026 199.722 89.7239C199.348 89.4365 198.917 89.2928 198.429 89.2928C197.941 89.2928 197.506 89.4365 197.122 89.7239C196.739 90.0026 196.439 90.4076 196.221 90.9388C196.003 91.4614 195.894 92.0972 195.894 92.8461C195.894 93.5864 196.003 94.2222 196.221 94.7534C196.439 95.2847 196.739 95.694 197.122 95.9814C197.506 96.2688 197.941 96.4125 198.429 96.4125ZM207.803 97.5752C206.949 97.5752 206.196 97.3793 205.543 96.9874C204.898 96.5954 204.398 96.0468 204.041 95.3413C203.684 94.6359 203.505 93.8129 203.505 92.8723C203.505 91.9404 203.688 91.1174 204.054 90.4032C204.419 89.6891 204.938 89.1317 205.608 88.7311C206.279 88.3217 207.076 88.1171 207.999 88.1171C209.044 88.1171 209.911 88.3696 210.599 88.8748C211.295 89.3712 211.744 90.0636 211.944 90.9519H210.455C210.333 90.4468 210.059 90.0505 209.632 89.7631C209.214 89.467 208.67 89.3189 207.999 89.3189C207.354 89.3189 206.793 89.4626 206.314 89.75C205.843 90.0374 205.478 90.4468 205.216 90.978C204.964 91.5093 204.838 92.1407 204.838 92.8723C204.838 93.6125 204.964 94.2483 205.216 94.7796C205.478 95.3108 205.835 95.7158 206.288 95.9945C206.749 96.2732 207.28 96.4125 207.881 96.4125C208.805 96.4125 209.501 96.1469 209.972 95.6157C210.442 95.0844 210.712 94.3746 210.782 93.4863H208.273V92.4804H212.114V97.4185H210.912L210.808 96.0206C210.599 96.3603 210.355 96.6477 210.076 96.8828C209.806 97.1093 209.484 97.2835 209.109 97.4054C208.744 97.5186 208.308 97.5752 207.803 97.5752ZM213.834 97.4185V88.2738H217.217C217.862 88.2738 218.397 88.3783 218.824 88.5874C219.251 88.7877 219.569 89.0664 219.778 89.4234C219.996 89.7718 220.104 90.1681 220.104 90.6122C220.104 91.0738 220 91.4614 219.791 91.7749C219.591 92.0884 219.325 92.3323 218.994 92.5065C218.672 92.672 218.323 92.7678 217.949 92.7939L218.145 92.6632C218.546 92.672 218.911 92.7808 219.242 92.9898C219.573 93.1902 219.834 93.4601 220.026 93.7998C220.218 94.1395 220.313 94.5139 220.313 94.9233C220.313 95.3936 220.196 95.8203 219.961 96.2035C219.734 96.578 219.399 96.8741 218.955 97.0919C218.519 97.3096 217.979 97.4185 217.335 97.4185H213.834ZM215.14 96.3342H217.165C217.74 96.3342 218.184 96.2035 218.498 95.9423C218.82 95.6723 218.981 95.2934 218.981 94.8057C218.981 94.3267 218.816 93.9435 218.485 93.6561C218.162 93.3687 217.714 93.225 217.139 93.225H215.14V96.3342ZM215.14 92.2191H217.074C217.631 92.2191 218.053 92.0928 218.341 91.8402C218.628 91.579 218.772 91.2219 218.772 90.769C218.772 90.3335 218.628 89.9895 218.341 89.737C218.053 89.4757 217.622 89.3451 217.048 89.3451H215.14V92.2191ZM224.625 98.7379L227.891 87.3724H229.172L225.906 98.7379H224.625ZM236.986 97.5752C236.35 97.5752 235.801 97.462 235.34 97.2356C234.878 97.0091 234.512 96.7 234.242 96.308C233.981 95.9161 233.82 95.4676 233.759 94.9625H235.039C235.126 95.4066 235.34 95.7681 235.679 96.0468C236.028 96.3255 236.468 96.4648 236.999 96.4648C237.391 96.4648 237.73 96.3734 238.018 96.1905C238.305 95.9989 238.527 95.7419 238.684 95.4197C238.841 95.0975 238.919 94.736 238.919 94.3354C238.919 93.9261 238.837 93.569 238.671 93.2642C238.514 92.9507 238.297 92.7068 238.018 92.5326C237.739 92.3584 237.413 92.2713 237.038 92.2713C236.585 92.2713 236.198 92.3715 235.875 92.5718C235.553 92.7721 235.314 93.0247 235.157 93.3295H233.903L234.647 88.2738H239.585V89.4104H235.64L235.17 91.9839C235.379 91.7488 235.658 91.5572 236.006 91.4091C236.363 91.2611 236.768 91.187 237.221 91.187C237.683 91.187 238.092 91.2698 238.449 91.4353C238.815 91.592 239.124 91.8141 239.376 92.1015C239.638 92.3889 239.834 92.7242 239.964 93.1074C240.104 93.4819 240.173 93.8869 240.173 94.3223C240.173 94.7752 240.099 95.1976 239.951 95.5895C239.803 95.9814 239.59 96.3298 239.311 96.6346C239.041 96.9307 238.71 97.1615 238.318 97.327C237.926 97.4925 237.482 97.5752 236.986 97.5752ZM242.999 97.4185V89.75L241.339 90.1942V89.2014L243.482 88.2738H244.331V97.4185H242.999ZM246.068 97.4185V96.4779C246.678 96.0076 247.257 95.5329 247.806 95.0539C248.354 94.5749 248.842 94.1003 249.269 93.63C249.704 93.151 250.044 92.685 250.288 92.2321C250.54 91.7706 250.667 91.3307 250.667 90.9127C250.667 90.6166 250.614 90.3423 250.51 90.0897C250.405 89.8371 250.236 89.6325 250 89.4757C249.774 89.3102 249.465 89.2275 249.073 89.2275C248.698 89.2275 248.385 89.3102 248.132 89.4757C247.88 89.6412 247.688 89.8632 247.558 90.1419C247.436 90.4119 247.375 90.7124 247.375 91.0433H246.121C246.129 90.4163 246.264 89.885 246.526 89.4496C246.787 89.0141 247.14 88.6832 247.584 88.4567C248.037 88.2303 248.542 88.1171 249.099 88.1171C249.683 88.1171 250.188 88.2259 250.614 88.4437C251.041 88.6527 251.372 88.9618 251.607 89.3712C251.851 89.7718 251.973 90.2639 251.973 90.8474C251.973 91.2654 251.89 91.6835 251.725 92.1015C251.559 92.5108 251.333 92.9115 251.046 93.3034C250.758 93.6953 250.44 94.0741 250.092 94.4399C249.744 94.797 249.382 95.1367 249.008 95.4589C248.633 95.7811 248.28 96.0729 247.949 96.3342H252.261V97.4185H246.068ZM257.66 97.5752C256.806 97.5752 256.053 97.3793 255.4 96.9874C254.755 96.5954 254.254 96.0468 253.897 95.3413C253.54 94.6359 253.362 93.8129 253.362 92.8723C253.362 91.9404 253.545 91.1174 253.91 90.4032C254.276 89.6891 254.794 89.1317 255.465 88.7311C256.136 88.3217 256.932 88.1171 257.856 88.1171C258.901 88.1171 259.767 88.3696 260.455 88.8748C261.152 89.3712 261.601 90.0636 261.801 90.9519H260.312C260.19 90.4468 259.915 90.0505 259.489 89.7631C259.071 89.467 258.526 89.3189 257.856 89.3189C257.211 89.3189 256.649 89.4626 256.17 89.75C255.7 90.0374 255.334 90.4468 255.073 90.978C254.82 91.5093 254.694 92.1407 254.694 92.8723C254.694 93.6125 254.82 94.2483 255.073 94.7796C255.334 95.3108 255.691 95.7158 256.144 95.9945C256.606 96.2732 257.137 96.4125 257.738 96.4125C258.661 96.4125 259.358 96.1469 259.828 95.6157C260.298 95.0844 260.568 94.3746 260.638 93.4863H258.13V92.4804H261.971V97.4185H260.769L260.664 96.0206C260.455 96.3603 260.211 96.6477 259.933 96.8828C259.663 97.1093 259.34 97.2835 258.966 97.4054C258.6 97.5186 258.165 97.5752 257.66 97.5752ZM263.69 97.4185V88.2738H267.074C267.718 88.2738 268.254 88.3783 268.681 88.5874C269.108 88.7877 269.425 89.0664 269.634 89.4234C269.852 89.7718 269.961 90.1681 269.961 90.6122C269.961 91.0738 269.857 91.4614 269.648 91.7749C269.447 92.0884 269.182 92.3323 268.851 92.5065C268.528 92.672 268.18 92.7678 267.806 92.7939L268.002 92.6632C268.402 92.672 268.768 92.7808 269.099 92.9898C269.43 93.1902 269.691 93.4601 269.883 93.7998C270.074 94.1395 270.17 94.5139 270.17 94.9233C270.17 95.3936 270.053 95.8203 269.817 96.2035C269.591 96.578 269.256 96.8741 268.811 97.0919C268.376 97.3096 267.836 97.4185 267.192 97.4185H263.69ZM264.997 96.3342H267.022C267.597 96.3342 268.041 96.2035 268.354 95.9423C268.676 95.6723 268.838 95.2934 268.838 94.8057C268.838 94.3267 268.672 93.9435 268.341 93.6561C268.019 93.3687 267.57 93.225 266.996 93.225H264.997V96.3342ZM264.997 92.2191H266.93C267.488 92.2191 267.91 92.0928 268.197 91.8402C268.485 91.579 268.629 91.2219 268.629 90.769C268.629 90.3335 268.485 89.9895 268.197 89.737C267.91 89.4757 267.479 89.3451 266.904 89.3451H264.997V92.2191Z" fill="#768396"/>
<path d="M92.4977 175.487V164.819H94.9515L98.2131 171.479L101.459 164.819H103.913V175.487H101.856V168.309L99.0209 173.994H97.3901L94.5552 168.324V175.487H92.4977ZM109.64 175.67C108.868 175.67 108.182 175.508 107.582 175.182C106.993 174.847 106.531 174.385 106.195 173.796C105.87 173.196 105.708 172.505 105.708 171.723C105.708 170.93 105.87 170.229 106.195 169.619C106.521 169 106.978 168.517 107.567 168.172C108.167 167.816 108.858 167.638 109.64 167.638C110.402 167.638 111.068 167.806 111.637 168.141C112.206 168.476 112.648 168.929 112.962 169.498C113.288 170.067 113.45 170.712 113.45 171.433C113.45 171.535 113.445 171.647 113.435 171.768C113.435 171.89 113.425 172.023 113.404 172.165H107.171V170.9H111.362C111.332 170.412 111.154 170.026 110.829 169.741C110.514 169.457 110.117 169.315 109.64 169.315C109.294 169.315 108.974 169.396 108.68 169.559C108.385 169.711 108.151 169.95 107.979 170.275C107.816 170.6 107.735 171.006 107.735 171.494V171.936C107.735 172.353 107.811 172.719 107.963 173.033C108.126 173.338 108.35 173.577 108.634 173.75C108.919 173.912 109.249 173.994 109.625 173.994C110.001 173.994 110.311 173.912 110.554 173.75C110.808 173.587 111.001 173.374 111.134 173.11H113.222C113.079 173.597 112.841 174.034 112.505 174.42C112.17 174.807 111.758 175.111 111.271 175.335C110.783 175.558 110.239 175.67 109.64 175.67ZM118.534 175.67C117.843 175.67 117.218 175.497 116.659 175.152C116.101 174.807 115.664 174.329 115.349 173.719C115.034 173.11 114.876 172.424 114.876 171.662C114.876 170.89 115.034 170.199 115.349 169.589C115.674 168.979 116.116 168.502 116.675 168.156C117.244 167.811 117.879 167.638 118.58 167.638C119.139 167.638 119.621 167.74 120.028 167.943C120.444 168.146 120.78 168.436 121.034 168.812V164.514H123.091V175.487H121.262L121.034 174.436C120.881 174.649 120.688 174.852 120.454 175.045C120.231 175.238 119.962 175.391 119.647 175.503C119.332 175.614 118.961 175.67 118.534 175.67ZM119.022 173.872C119.428 173.872 119.784 173.78 120.089 173.597C120.404 173.404 120.647 173.14 120.82 172.805C121.003 172.47 121.095 172.089 121.095 171.662C121.095 171.215 121.003 170.829 120.82 170.503C120.647 170.168 120.404 169.909 120.089 169.726C119.784 169.533 119.428 169.437 119.022 169.437C118.636 169.437 118.285 169.533 117.97 169.726C117.655 169.909 117.406 170.168 117.223 170.503C117.051 170.829 116.964 171.21 116.964 171.647C116.964 172.083 117.051 172.47 117.223 172.805C117.406 173.14 117.655 173.404 117.97 173.597C118.285 173.78 118.636 173.872 119.022 173.872ZM125.153 175.487V167.821H127.21V175.487H125.153ZM126.189 166.769C125.813 166.769 125.508 166.658 125.275 166.434C125.041 166.211 124.924 165.936 124.924 165.611C124.924 165.266 125.041 164.986 125.275 164.773C125.508 164.559 125.813 164.453 126.189 164.453C126.565 164.453 126.87 164.559 127.104 164.773C127.348 164.986 127.469 165.266 127.469 165.611C127.469 165.936 127.348 166.211 127.104 166.434C126.87 166.658 126.565 166.769 126.189 166.769ZM131.866 175.67C131.225 175.67 130.697 175.569 130.28 175.365C129.864 175.152 129.554 174.873 129.351 174.527C129.148 174.171 129.046 173.78 129.046 173.354C129.046 172.886 129.168 172.475 129.412 172.119C129.656 171.763 130.016 171.489 130.494 171.296C130.982 171.093 131.591 170.991 132.323 170.991H134.228C134.228 170.605 134.177 170.29 134.076 170.046C133.974 169.802 133.816 169.619 133.603 169.498C133.39 169.376 133.105 169.315 132.75 169.315C132.363 169.315 132.033 169.401 131.759 169.574C131.495 169.736 131.332 169.99 131.271 170.336H129.259C129.32 169.787 129.503 169.315 129.808 168.918C130.123 168.512 130.535 168.197 131.043 167.973C131.551 167.75 132.125 167.638 132.765 167.638C133.486 167.638 134.111 167.76 134.639 168.004C135.168 168.248 135.574 168.598 135.859 169.056C136.143 169.513 136.285 170.077 136.285 170.747V175.487H134.548L134.319 174.314C134.208 174.517 134.076 174.7 133.923 174.862C133.771 175.025 133.593 175.167 133.39 175.289C133.186 175.411 132.958 175.503 132.704 175.564C132.45 175.635 132.17 175.67 131.866 175.67ZM132.353 174.085C132.617 174.085 132.851 174.039 133.054 173.948C133.268 173.846 133.451 173.714 133.603 173.552C133.755 173.379 133.872 173.186 133.954 172.973C134.045 172.749 134.106 172.515 134.136 172.271V172.241H132.567C132.252 172.241 131.993 172.282 131.789 172.363C131.596 172.444 131.454 172.556 131.363 172.698C131.271 172.84 131.225 173.003 131.225 173.186C131.225 173.379 131.271 173.542 131.363 173.674C131.454 173.806 131.586 173.907 131.759 173.978C131.932 174.05 132.13 174.085 132.353 174.085Z" fill="#232360"/>
<rect x="91.4463" y="186.462" width="255.832" height="4.63836" rx="2.31918" fill="#E6E9ED"/>
<rect x="91.4463" y="186.462" width="186.159" height="4.63836" rx="2.31918" fill="#5051F9"/>
<path d="M313.304 174.571C312.686 174.571 312.124 174.458 311.619 174.232C311.114 174.005 310.713 173.687 310.417 173.278C310.121 172.869 309.973 172.394 309.973 171.854C309.973 171.48 310.034 171.14 310.156 170.835C310.277 170.53 310.452 170.26 310.678 170.025C310.913 169.79 311.183 169.611 311.488 169.49C311.096 169.307 310.783 169.045 310.547 168.706C310.312 168.366 310.195 167.983 310.195 167.556C310.195 167.129 310.312 166.729 310.547 166.354C310.783 165.98 311.131 165.679 311.593 165.453C312.054 165.226 312.625 165.113 313.304 165.113C313.992 165.113 314.567 165.226 315.028 165.453C315.49 165.679 315.834 165.98 316.06 166.354C316.296 166.729 316.413 167.129 316.413 167.556C316.413 167.974 316.291 168.357 316.047 168.706C315.812 169.045 315.503 169.307 315.12 169.49C315.433 169.62 315.703 169.803 315.93 170.038C316.156 170.265 316.33 170.53 316.452 170.835C316.583 171.14 316.648 171.48 316.648 171.854C316.648 172.394 316.5 172.869 316.204 173.278C315.908 173.687 315.507 174.005 315.002 174.232C314.497 174.458 313.931 174.571 313.304 174.571ZM313.304 173.095C313.835 173.095 314.236 172.964 314.506 172.703C314.776 172.442 314.911 172.111 314.911 171.71C314.911 171.266 314.767 170.918 314.48 170.665C314.201 170.404 313.809 170.273 313.304 170.273C312.808 170.273 312.411 170.404 312.115 170.665C311.828 170.918 311.684 171.266 311.684 171.71C311.684 172.111 311.823 172.442 312.102 172.703C312.381 172.964 312.781 173.095 313.304 173.095ZM313.304 168.98C313.739 168.98 314.079 168.867 314.323 168.64C314.567 168.414 314.689 168.122 314.689 167.765C314.689 167.382 314.567 167.086 314.323 166.877C314.088 166.659 313.748 166.55 313.304 166.55C312.868 166.55 312.529 166.659 312.285 166.877C312.05 167.086 311.932 167.386 311.932 167.778C311.932 168.127 312.054 168.414 312.298 168.64C312.542 168.867 312.877 168.98 313.304 168.98ZM321.78 174.571C321.092 174.571 320.513 174.445 320.042 174.192C319.572 173.94 319.193 173.6 318.906 173.173C318.627 172.747 318.422 172.272 318.292 171.75C318.17 171.218 318.109 170.683 318.109 170.143C318.109 169.115 318.253 168.227 318.54 167.478C318.827 166.729 319.241 166.15 319.781 165.74C320.321 165.322 320.974 165.113 321.741 165.113C322.385 165.113 322.925 165.235 323.361 165.479C323.805 165.723 324.149 166.045 324.393 166.446C324.645 166.846 324.789 167.277 324.824 167.739H323.191C323.121 167.356 322.96 167.064 322.707 166.864C322.455 166.663 322.128 166.563 321.728 166.563C321.353 166.563 321.027 166.681 320.748 166.916C320.469 167.142 320.251 167.482 320.095 167.935C319.947 168.388 319.859 168.954 319.833 169.633C319.833 169.651 319.833 169.668 319.833 169.685C319.833 169.694 319.833 169.707 319.833 169.725C319.964 169.49 320.143 169.28 320.369 169.098C320.604 168.906 320.87 168.758 321.166 168.653C321.462 168.549 321.771 168.497 322.093 168.497C322.599 168.497 323.069 168.619 323.504 168.862C323.94 169.106 324.288 169.45 324.549 169.894C324.819 170.339 324.954 170.866 324.954 171.475C324.954 172.024 324.819 172.538 324.549 173.017C324.288 173.487 323.918 173.866 323.439 174.153C322.969 174.432 322.416 174.571 321.78 174.571ZM321.688 173.056C321.993 173.056 322.263 172.991 322.498 172.86C322.734 172.729 322.921 172.551 323.06 172.324C323.199 172.089 323.269 171.824 323.269 171.527C323.269 171.214 323.199 170.944 323.06 170.718C322.921 170.491 322.729 170.313 322.485 170.182C322.25 170.051 321.976 169.986 321.662 169.986C321.366 169.986 321.096 170.051 320.852 170.182C320.608 170.313 320.417 170.495 320.278 170.731C320.138 170.957 320.069 171.218 320.069 171.514C320.069 171.819 320.138 172.089 320.278 172.324C320.417 172.551 320.608 172.729 320.852 172.86C321.096 172.991 321.375 173.056 321.688 173.056ZM333.734 174.571C332.872 174.571 332.115 174.38 331.461 173.997C330.817 173.605 330.316 173.06 329.959 172.364C329.602 171.658 329.423 170.839 329.423 169.908C329.423 168.967 329.606 168.14 329.972 167.425C330.347 166.703 330.878 166.136 331.566 165.727C332.254 165.318 333.073 165.113 334.022 165.113C335.102 165.113 335.994 165.37 336.7 165.884C337.414 166.398 337.876 167.112 338.085 168.026H336.112C335.981 167.626 335.738 167.312 335.38 167.086C335.032 166.851 334.575 166.733 334.009 166.733C333.417 166.733 332.911 166.864 332.493 167.125C332.075 167.386 331.757 167.752 331.54 168.222C331.331 168.693 331.226 169.254 331.226 169.908C331.226 170.569 331.335 171.131 331.553 171.593C331.771 172.054 332.08 172.407 332.48 172.651C332.881 172.886 333.36 173.004 333.917 173.004C334.719 173.004 335.324 172.79 335.733 172.364C336.143 171.928 336.391 171.366 336.478 170.678H334.218V169.359H338.241V174.415H336.622L336.478 173.252C336.286 173.539 336.064 173.783 335.812 173.983C335.559 174.175 335.263 174.319 334.923 174.415C334.584 174.519 334.187 174.571 333.734 174.571ZM339.917 174.415V165.27H343.667C344.303 165.27 344.838 165.37 345.274 165.57C345.709 165.771 346.036 166.049 346.253 166.406C346.48 166.755 346.593 167.16 346.593 167.621C346.593 168.083 346.493 168.471 346.293 168.784C346.092 169.098 345.827 169.341 345.496 169.516C345.173 169.681 344.816 169.777 344.424 169.803L344.633 169.659C345.052 169.677 345.422 169.79 345.744 169.999C346.075 170.199 346.332 170.469 346.515 170.809C346.706 171.149 346.802 171.519 346.802 171.919C346.802 172.407 346.684 172.838 346.449 173.213C346.214 173.587 345.875 173.883 345.43 174.101C344.986 174.31 344.442 174.415 343.797 174.415H339.917ZM341.681 172.978H343.51C343.989 172.978 344.359 172.869 344.62 172.651C344.882 172.433 345.012 172.12 345.012 171.71C345.012 171.301 344.877 170.983 344.607 170.757C344.337 170.522 343.963 170.404 343.484 170.404H341.681V172.978ZM341.681 169.085H343.379C343.841 169.085 344.189 168.98 344.424 168.771C344.668 168.562 344.79 168.266 344.79 167.883C344.79 167.508 344.668 167.216 344.424 167.007C344.189 166.79 343.837 166.681 343.366 166.681H341.681V169.085Z" fill="#768396"/>
<rect x="32.6592" y="156.776" width="45.7232" height="38.9622" rx="9.79782" fill="#F7F7F9"/>
<path fill-rule="evenodd" clip-rule="evenodd" d="M48.932 167.4C46.9429 167.647 45.4159 168.949 45.1253 170.644C44.8719 172.122 44.6338 174.089 44.6338 176.258C44.6338 177.849 44.7367 179.459 44.9824 181.043C45.0405 181.417 45.5747 181.565 45.8884 181.298L49.6261 178.113C50.4764 177.388 51.855 177.388 52.7053 178.113L54.0467 179.256C54.2593 179.437 54.604 179.437 54.8165 179.256L58.3353 176.258C59.1856 175.533 60.5642 175.533 61.4144 176.258L65.3433 179.605C65.6668 179.881 66.2184 179.714 66.2558 179.325C66.3471 178.377 66.4067 177.343 66.4067 176.258C66.4067 174.089 66.1687 172.122 65.9152 170.644C65.6246 168.949 64.0976 167.647 62.1085 167.4C60.3731 167.184 58.0657 166.981 55.5203 166.981C52.9748 166.981 50.6674 167.184 48.932 167.4ZM53.343 172.547C53.343 173.572 52.3682 174.402 51.1657 174.402C49.9632 174.402 48.9884 173.572 48.9884 172.547C48.9884 171.522 49.9632 170.692 51.1657 170.692C52.3682 170.692 53.343 171.522 53.343 172.547Z" fill="#5051F9"/>
<path d="M65.6053 182.823C65.6854 182.661 65.632 182.475 65.486 182.351L60.2598 177.897C60.0472 177.716 59.7025 177.716 59.49 177.897L55.9712 180.896C55.1209 181.62 53.7423 181.62 52.892 180.896L51.5506 179.753C51.338 179.572 50.9934 179.572 50.7808 179.753L46.4366 183.455C46.2392 183.623 46.2208 183.894 46.42 184.06C47.0832 184.615 47.9515 184.993 48.932 185.116C50.6674 185.332 52.9748 185.534 55.5203 185.534C58.0657 185.534 60.3731 185.332 62.1085 185.116C63.7056 184.917 65.0049 184.039 65.6053 182.823Z" fill="#5051F9"/>
<path d="M92.4979 229.292V218.623H96.0796C97.3192 218.623 98.3403 218.847 99.143 219.294C99.9559 219.731 100.555 220.351 100.941 221.153C101.338 221.946 101.536 222.881 101.536 223.958C101.536 225.035 101.338 225.975 100.941 226.777C100.555 227.57 99.9559 228.19 99.143 228.637C98.3403 229.074 97.3192 229.292 96.0796 229.292H92.4979ZM94.5555 227.524H95.9729C96.8467 227.524 97.5326 227.382 98.0304 227.097C98.5385 226.813 98.8992 226.406 99.1125 225.878C99.3259 225.339 99.4326 224.699 99.4326 223.958C99.4326 223.206 99.3259 222.566 99.1125 222.037C98.8992 221.499 98.5385 221.087 98.0304 220.803C97.5326 220.518 96.8467 220.376 95.9729 220.376H94.5555V227.524ZM106.87 229.475C106.139 229.475 105.478 229.307 104.889 228.972C104.31 228.626 103.848 228.154 103.502 227.555C103.167 226.945 102.999 226.249 102.999 225.466C102.999 224.674 103.167 223.978 103.502 223.378C103.848 222.769 104.315 222.296 104.904 221.961C105.494 221.616 106.154 221.443 106.886 221.443C107.627 221.443 108.288 221.616 108.867 221.961C109.456 222.296 109.919 222.769 110.254 223.378C110.599 223.978 110.772 224.674 110.772 225.466C110.772 226.249 110.599 226.945 110.254 227.555C109.919 228.154 109.456 228.626 108.867 228.972C108.278 229.307 107.612 229.475 106.87 229.475ZM106.87 227.692C107.216 227.692 107.521 227.61 107.785 227.448C108.049 227.285 108.262 227.036 108.425 226.701C108.588 226.366 108.669 225.954 108.669 225.466C108.669 224.969 108.588 224.557 108.425 224.232C108.273 223.897 108.059 223.648 107.785 223.485C107.521 223.312 107.221 223.226 106.886 223.226C106.56 223.226 106.261 223.312 105.986 223.485C105.712 223.648 105.494 223.897 105.331 224.232C105.168 224.557 105.087 224.969 105.087 225.466C105.087 225.954 105.168 226.366 105.331 226.701C105.494 227.036 105.707 227.285 105.971 227.448C106.245 227.61 106.545 227.692 106.87 227.692ZM116.264 229.475C115.492 229.475 114.806 229.307 114.207 228.972C113.607 228.626 113.14 228.154 112.804 227.555C112.469 226.945 112.302 226.254 112.302 225.482C112.302 224.689 112.469 223.993 112.804 223.394C113.14 222.784 113.607 222.307 114.207 221.961C114.806 221.616 115.492 221.443 116.264 221.443C117.25 221.443 118.073 221.702 118.733 222.22C119.404 222.738 119.831 223.45 120.014 224.354H117.849C117.758 223.998 117.565 223.719 117.27 223.516C116.986 223.312 116.645 223.211 116.249 223.211C115.893 223.211 115.573 223.302 115.289 223.485C115.014 223.658 114.796 223.912 114.633 224.247C114.471 224.583 114.39 224.989 114.39 225.466C114.39 225.812 114.435 226.127 114.527 226.411C114.628 226.686 114.76 226.925 114.923 227.128C115.086 227.321 115.279 227.468 115.502 227.57C115.736 227.671 115.985 227.722 116.249 227.722C116.513 227.722 116.752 227.682 116.965 227.6C117.189 227.509 117.377 227.377 117.529 227.204C117.682 227.031 117.788 226.823 117.849 226.579H120.014C119.841 227.463 119.414 228.169 118.733 228.698C118.063 229.216 117.24 229.475 116.264 229.475ZM124.654 229.475C124.024 229.475 123.485 229.348 123.038 229.094C122.601 228.83 122.266 228.444 122.032 227.936C121.809 227.428 121.697 226.803 121.697 226.061V221.626H123.739V225.848C123.739 226.467 123.866 226.94 124.12 227.265C124.384 227.58 124.786 227.737 125.324 227.737C125.67 227.737 125.974 227.661 126.239 227.509C126.513 227.346 126.726 227.118 126.879 226.823C127.031 226.518 127.107 226.147 127.107 225.71V221.626H129.165V229.292H127.351L127.199 228.042C126.965 228.479 126.63 228.83 126.193 229.094C125.766 229.348 125.253 229.475 124.654 229.475ZM131.18 229.292V221.626H132.994L133.161 222.647C133.405 222.281 133.725 221.992 134.121 221.778C134.528 221.555 134.99 221.443 135.508 221.443C135.895 221.443 136.24 221.494 136.545 221.595C136.85 221.697 137.119 221.844 137.353 222.037C137.596 222.23 137.795 222.474 137.947 222.769C138.242 222.352 138.618 222.027 139.075 221.793C139.532 221.56 140.03 221.443 140.568 221.443C141.229 221.443 141.783 221.58 142.23 221.854C142.687 222.119 143.027 222.505 143.251 223.013C143.485 223.521 143.601 224.146 143.601 224.887V229.292H141.559V225.085C141.559 224.476 141.437 224.008 141.193 223.683C140.949 223.348 140.584 223.18 140.096 223.18C139.761 223.18 139.466 223.262 139.212 223.424C138.958 223.587 138.76 223.82 138.618 224.125C138.486 224.43 138.419 224.801 138.419 225.238V229.292H136.377V225.085C136.377 224.476 136.255 224.008 136.011 223.683C135.768 223.348 135.386 223.18 134.868 223.18C134.553 223.18 134.269 223.262 134.015 223.424C133.771 223.587 133.578 223.82 133.436 224.125C133.304 224.43 133.238 224.801 133.238 225.238V229.292H131.18ZM149.216 229.475C148.444 229.475 147.758 229.312 147.159 228.987C146.569 228.652 146.107 228.19 145.772 227.6C145.447 227.001 145.284 226.31 145.284 225.527C145.284 224.735 145.447 224.034 145.772 223.424C146.097 222.804 146.554 222.322 147.144 221.976C147.743 221.621 148.434 221.443 149.216 221.443C149.978 221.443 150.644 221.61 151.213 221.946C151.782 222.281 152.224 222.733 152.539 223.302C152.864 223.871 153.027 224.516 153.027 225.238C153.027 225.339 153.022 225.451 153.011 225.573C153.011 225.695 153.001 225.827 152.981 225.969H146.747V224.704H150.939C150.908 224.217 150.73 223.831 150.405 223.546C150.09 223.262 149.694 223.119 149.216 223.119C148.871 223.119 148.551 223.201 148.256 223.363C147.961 223.516 147.728 223.754 147.555 224.08C147.392 224.405 147.311 224.811 147.311 225.299V225.741C147.311 226.157 147.387 226.523 147.54 226.838C147.702 227.143 147.926 227.382 148.21 227.555C148.495 227.717 148.825 227.798 149.201 227.798C149.577 227.798 149.887 227.717 150.131 227.555C150.385 227.392 150.578 227.179 150.71 226.914H152.798C152.656 227.402 152.417 227.839 152.082 228.225C151.746 228.611 151.335 228.916 150.847 229.14C150.359 229.363 149.816 229.475 149.216 229.475ZM154.696 229.292V221.626H156.51L156.663 222.876C156.896 222.449 157.226 222.103 157.653 221.839C158.09 221.575 158.608 221.443 159.208 221.443C159.848 221.443 160.386 221.575 160.823 221.839C161.26 222.103 161.59 222.494 161.814 223.013C162.048 223.521 162.165 224.146 162.165 224.887V229.292H160.122V225.07C160.122 224.471 159.99 224.008 159.726 223.683C159.472 223.348 159.076 223.18 158.537 223.18C158.192 223.18 157.882 223.262 157.607 223.424C157.343 223.587 157.135 223.82 156.983 224.125C156.83 224.42 156.754 224.786 156.754 225.223V229.292H154.696ZM167.548 229.292C167.009 229.292 166.537 229.211 166.13 229.048C165.724 228.875 165.409 228.596 165.185 228.21C164.972 227.814 164.865 227.275 164.865 226.594V223.348H163.555V221.626H164.865L165.094 219.538H166.923V221.626H168.935V223.348H166.923V226.625C166.923 226.97 166.994 227.209 167.136 227.341C167.289 227.473 167.553 227.539 167.929 227.539H168.92V229.292H167.548ZM173.806 229.475C173.105 229.475 172.496 229.363 171.978 229.14C171.469 228.916 171.063 228.611 170.758 228.225C170.464 227.829 170.296 227.377 170.255 226.869H172.298C172.348 227.062 172.435 227.24 172.557 227.402C172.679 227.555 172.841 227.676 173.044 227.768C173.248 227.859 173.491 227.905 173.776 227.905C174.05 227.905 174.274 227.869 174.447 227.798C174.619 227.717 174.746 227.615 174.828 227.494C174.919 227.361 174.965 227.219 174.965 227.067C174.965 226.853 174.904 226.691 174.782 226.579C174.66 226.467 174.477 226.376 174.233 226.305C174 226.234 173.72 226.162 173.395 226.091C173.029 226.01 172.674 225.919 172.328 225.817C171.983 225.715 171.668 225.583 171.383 225.421C171.109 225.258 170.89 225.05 170.728 224.796C170.565 224.542 170.484 224.227 170.484 223.851C170.484 223.394 170.606 222.987 170.85 222.632C171.094 222.266 171.449 221.976 171.917 221.763C172.384 221.55 172.943 221.443 173.593 221.443C174.518 221.443 175.249 221.651 175.788 222.068C176.336 222.484 176.657 223.058 176.748 223.79H174.812C174.762 223.546 174.629 223.358 174.416 223.226C174.203 223.094 173.928 223.028 173.593 223.028C173.227 223.028 172.948 223.094 172.755 223.226C172.572 223.358 172.48 223.526 172.48 223.729C172.48 223.871 172.541 223.998 172.663 224.11C172.785 224.222 172.963 224.318 173.197 224.4C173.431 224.481 173.715 224.557 174.05 224.628C174.64 224.75 175.153 224.887 175.59 225.04C176.037 225.192 176.387 225.416 176.641 225.71C176.905 225.995 177.032 226.411 177.022 226.96C177.032 227.448 176.905 227.885 176.641 228.271C176.377 228.647 176.001 228.941 175.513 229.155C175.036 229.368 174.467 229.475 173.806 229.475Z" fill="#232360"/>
<rect x="91.4463" y="240.267" width="255.832" height="4.63836" rx="2.31918" fill="#E6E9ED"/>
<rect x="91.4463" y="240.267" width="80.5599" height="4.63836" rx="2.31918" fill="#FCC35B"/>
<path d="M309.842 228.22V226.926C310.408 226.482 310.952 226.038 311.475 225.594C312.006 225.15 312.481 224.71 312.899 224.274C313.326 223.83 313.661 223.399 313.905 222.981C314.149 222.563 314.271 222.158 314.271 221.766C314.271 221.522 314.223 221.3 314.127 221.1C314.04 220.891 313.901 220.725 313.709 220.604C313.526 220.473 313.278 220.408 312.964 220.408C312.659 220.408 312.403 220.477 312.194 220.617C311.984 220.756 311.823 220.943 311.71 221.178C311.606 221.405 311.553 221.662 311.553 221.949H309.855C309.873 221.279 310.021 220.717 310.299 220.264C310.587 219.811 310.966 219.476 311.436 219.258C311.906 219.032 312.433 218.918 313.017 218.918C313.67 218.918 314.218 219.04 314.663 219.284C315.107 219.519 315.446 219.841 315.682 220.251C315.917 220.66 316.034 221.13 316.034 221.662C316.034 222.062 315.96 222.454 315.812 222.837C315.664 223.221 315.459 223.595 315.198 223.961C314.946 224.318 314.658 224.662 314.336 224.993C314.014 225.324 313.674 225.642 313.317 225.947C312.969 226.243 312.629 226.521 312.298 226.783H316.243V228.22H309.842ZM321.104 228.376C320.416 228.376 319.837 228.25 319.366 227.998C318.896 227.745 318.517 227.405 318.23 226.979C317.951 226.552 317.746 226.077 317.616 225.555C317.494 225.023 317.433 224.488 317.433 223.948C317.433 222.92 317.576 222.032 317.864 221.283C318.151 220.534 318.565 219.955 319.105 219.545C319.645 219.127 320.298 218.918 321.065 218.918C321.709 218.918 322.249 219.04 322.684 219.284C323.129 219.528 323.473 219.85 323.716 220.251C323.969 220.651 324.113 221.083 324.148 221.544H322.515C322.445 221.161 322.284 220.869 322.031 220.669C321.779 220.469 321.452 220.368 321.051 220.368C320.677 220.368 320.35 220.486 320.072 220.721C319.793 220.948 319.575 221.287 319.418 221.74C319.27 222.193 319.183 222.759 319.157 223.438C319.157 223.456 319.157 223.473 319.157 223.491C319.157 223.499 319.157 223.512 319.157 223.53C319.288 223.295 319.466 223.086 319.693 222.903C319.928 222.711 320.194 222.563 320.49 222.459C320.786 222.354 321.095 222.302 321.417 222.302C321.922 222.302 322.393 222.424 322.828 222.668C323.264 222.911 323.612 223.255 323.873 223.7C324.143 224.144 324.278 224.671 324.278 225.28C324.278 225.829 324.143 226.343 323.873 226.822C323.612 227.292 323.242 227.671 322.763 227.958C322.293 228.237 321.739 228.376 321.104 228.376ZM321.012 226.861C321.317 226.861 321.587 226.796 321.822 226.665C322.057 226.535 322.245 226.356 322.384 226.13C322.523 225.894 322.593 225.629 322.593 225.333C322.593 225.019 322.523 224.749 322.384 224.523C322.245 224.296 322.053 224.118 321.809 223.987C321.574 223.856 321.3 223.791 320.986 223.791C320.69 223.791 320.42 223.856 320.176 223.987C319.932 224.118 319.741 224.301 319.601 224.536C319.462 224.762 319.392 225.023 319.392 225.32C319.392 225.624 319.462 225.894 319.601 226.13C319.741 226.356 319.932 226.535 320.176 226.665C320.42 226.796 320.699 226.861 321.012 226.861ZM333.058 228.376C332.196 228.376 331.438 228.185 330.785 227.802C330.141 227.41 329.64 226.865 329.283 226.169C328.926 225.463 328.747 224.645 328.747 223.713C328.747 222.772 328.93 221.945 329.296 221.231C329.67 220.508 330.202 219.942 330.89 219.532C331.578 219.123 332.396 218.918 333.346 218.918C334.426 218.918 335.318 219.175 336.024 219.689C336.738 220.203 337.199 220.917 337.409 221.832H335.436C335.305 221.431 335.061 221.117 334.704 220.891C334.356 220.656 333.899 220.538 333.333 220.538C332.74 220.538 332.235 220.669 331.817 220.93C331.399 221.191 331.081 221.557 330.864 222.028C330.655 222.498 330.55 223.06 330.55 223.713C330.55 224.375 330.659 224.936 330.877 225.398C331.094 225.86 331.404 226.212 331.804 226.456C332.205 226.691 332.684 226.809 333.241 226.809C334.042 226.809 334.648 226.595 335.057 226.169C335.466 225.733 335.715 225.172 335.802 224.483H333.542V223.164H337.565V228.22H335.945L335.802 227.057C335.61 227.344 335.388 227.588 335.135 227.789C334.883 227.98 334.587 228.124 334.247 228.22C333.907 228.324 333.511 228.376 333.058 228.376ZM339.241 228.22V219.075H342.991C343.626 219.075 344.162 219.175 344.597 219.376C345.033 219.576 345.36 219.855 345.577 220.212C345.804 220.56 345.917 220.965 345.917 221.427C345.917 221.888 345.817 222.276 345.616 222.589C345.416 222.903 345.15 223.147 344.82 223.321C344.497 223.486 344.14 223.582 343.748 223.608L343.957 223.465C344.375 223.482 344.746 223.595 345.068 223.804C345.399 224.004 345.656 224.274 345.839 224.614C346.03 224.954 346.126 225.324 346.126 225.725C346.126 226.212 346.008 226.643 345.773 227.018C345.538 227.392 345.198 227.688 344.754 227.906C344.31 228.115 343.766 228.22 343.121 228.22H339.241ZM341.005 226.783H342.834C343.313 226.783 343.683 226.674 343.944 226.456C344.206 226.238 344.336 225.925 344.336 225.516C344.336 225.106 344.201 224.788 343.931 224.562C343.661 224.327 343.287 224.209 342.808 224.209H341.005V226.783ZM341.005 222.89H342.703C343.165 222.89 343.513 222.785 343.748 222.576C343.992 222.367 344.114 222.071 344.114 221.688C344.114 221.313 343.992 221.022 343.748 220.813C343.513 220.595 343.16 220.486 342.69 220.486H341.005V222.89Z" fill="#768396"/>
<rect x="32.6592" y="210.581" width="45.7232" height="38.9622" rx="9.79782" fill="#F7F7F9"/>
<path fill-rule="evenodd" clip-rule="evenodd" d="M57.6978 220.786C57.6978 220.273 57.2104 219.858 56.6091 219.858H48.9886C47.1849 219.858 45.7227 221.104 45.7227 222.641V237.484C45.7227 239.021 47.1849 240.267 48.9886 240.267H62.0524C63.8561 240.267 65.3183 239.021 65.3183 237.484V227.279C65.3183 226.767 64.8309 226.352 64.2297 226.352H60.9637C59.16 226.352 57.6978 225.106 57.6978 223.569V220.786ZM51.1659 230.99C51.1659 230.478 51.6533 230.062 52.2545 230.062H58.7864C59.3877 230.062 59.8751 230.478 59.8751 230.99C59.8751 231.502 59.3877 231.918 58.7864 231.918H52.2545C51.6533 231.918 51.1659 231.502 51.1659 230.99ZM51.1659 234.701C51.1659 234.188 51.6533 233.773 52.2545 233.773H55.5205C56.1217 233.773 56.6091 234.188 56.6091 234.701C56.6091 235.213 56.1217 235.628 55.5205 235.628H52.2545C51.6533 235.628 51.1659 235.213 51.1659 234.701Z" fill="#FCC35B"/>
<path d="M60.9391 220.023C60.3846 219.825 59.875 220.274 59.875 220.786V223.569C59.875 224.081 60.3624 224.497 60.9636 224.497H64.2296C64.8308 224.497 65.3575 224.062 65.125 223.59C65.0243 223.385 64.8797 223.195 64.6805 223.026L61.6014 220.402C61.4022 220.232 61.1791 220.109 60.9391 220.023Z" fill="#FCC35B"/>
<path d="M95.5614 283.097L91.6749 272.428H93.8696L96.8264 280.993L99.7984 272.428H101.978L98.0914 283.097H95.5614ZM103.259 283.097V275.43H105.316V283.097H103.259ZM104.295 274.379C103.919 274.379 103.615 274.267 103.381 274.043C103.147 273.82 103.03 273.546 103.03 273.22C103.03 272.875 103.147 272.596 103.381 272.382C103.615 272.169 103.919 272.062 104.295 272.062C104.671 272.062 104.976 272.169 105.21 272.382C105.454 272.596 105.576 272.875 105.576 273.22C105.576 273.546 105.454 273.82 105.21 274.043C104.976 274.267 104.671 274.379 104.295 274.379ZM110.795 283.28C110.104 283.28 109.479 283.107 108.92 282.761C108.361 282.416 107.924 281.938 107.609 281.329C107.294 280.719 107.137 280.033 107.137 279.271C107.137 278.499 107.294 277.808 107.609 277.198C107.934 276.589 108.376 276.111 108.935 275.766C109.504 275.42 110.139 275.248 110.84 275.248C111.399 275.248 111.882 275.349 112.288 275.552C112.705 275.756 113.04 276.045 113.294 276.421V272.123H115.352V283.097H113.523L113.294 282.045C113.142 282.258 112.949 282.462 112.715 282.655C112.492 282.848 112.222 283 111.907 283.112C111.592 283.224 111.221 283.28 110.795 283.28ZM111.282 281.481C111.689 281.481 112.044 281.39 112.349 281.207C112.664 281.014 112.908 280.75 113.081 280.414C113.264 280.079 113.355 279.698 113.355 279.271C113.355 278.824 113.264 278.438 113.081 278.113C112.908 277.778 112.664 277.518 112.349 277.336C112.044 277.143 111.689 277.046 111.282 277.046C110.896 277.046 110.546 277.143 110.231 277.336C109.916 277.518 109.667 277.778 109.484 278.113C109.311 278.438 109.225 278.819 109.225 279.256C109.225 279.693 109.311 280.079 109.484 280.414C109.667 280.75 109.916 281.014 110.231 281.207C110.546 281.39 110.896 281.481 111.282 281.481ZM121.056 283.28C120.284 283.28 119.598 283.117 118.999 282.792C118.409 282.457 117.947 281.994 117.612 281.405C117.286 280.805 117.124 280.115 117.124 279.332C117.124 278.54 117.286 277.839 117.612 277.229C117.937 276.609 118.394 276.126 118.983 275.781C119.583 275.425 120.274 275.248 121.056 275.248C121.818 275.248 122.484 275.415 123.053 275.75C123.622 276.086 124.064 276.538 124.379 277.107C124.704 277.676 124.866 278.321 124.866 279.043C124.866 279.144 124.861 279.256 124.851 279.378C124.851 279.5 124.841 279.632 124.821 279.774H118.587V278.509H122.778C122.748 278.021 122.57 277.635 122.245 277.351C121.93 277.066 121.534 276.924 121.056 276.924C120.711 276.924 120.391 277.005 120.096 277.168C119.801 277.32 119.568 277.559 119.395 277.884C119.232 278.209 119.151 278.616 119.151 279.104V279.546C119.151 279.962 119.227 280.328 119.38 280.643C119.542 280.948 119.766 281.186 120.05 281.359C120.335 281.522 120.665 281.603 121.041 281.603C121.417 281.603 121.727 281.522 121.971 281.359C122.225 281.197 122.418 280.983 122.55 280.719H124.638C124.495 281.207 124.257 281.644 123.921 282.03C123.586 282.416 123.175 282.721 122.687 282.944C122.199 283.168 121.656 283.28 121.056 283.28ZM130.164 283.28C129.432 283.28 128.772 283.112 128.182 282.777C127.603 282.431 127.141 281.959 126.795 281.359C126.46 280.75 126.292 280.054 126.292 279.271C126.292 278.479 126.46 277.783 126.795 277.183C127.141 276.574 127.608 276.101 128.197 275.766C128.787 275.42 129.447 275.248 130.179 275.248C130.921 275.248 131.581 275.42 132.16 275.766C132.749 276.101 133.212 276.574 133.547 277.183C133.893 277.783 134.065 278.479 134.065 279.271C134.065 280.054 133.893 280.75 133.547 281.359C133.212 281.959 132.749 282.431 132.16 282.777C131.571 283.112 130.905 283.28 130.164 283.28ZM130.164 281.496C130.509 281.496 130.814 281.415 131.078 281.253C131.342 281.09 131.556 280.841 131.718 280.506C131.881 280.17 131.962 279.759 131.962 279.271C131.962 278.773 131.881 278.362 131.718 278.037C131.566 277.701 131.352 277.452 131.078 277.29C130.814 277.117 130.514 277.031 130.179 277.031C129.854 277.031 129.554 277.117 129.28 277.29C129.005 277.452 128.787 277.701 128.624 278.037C128.462 278.362 128.38 278.773 128.38 279.271C128.38 279.759 128.462 280.17 128.624 280.506C128.787 280.841 129 281.09 129.264 281.253C129.539 281.415 129.838 281.496 130.164 281.496Z" fill="#232360"/>
<rect x="91.4463" y="294.072" width="255.832" height="4.63836" rx="2.31918" fill="#E6E9ED"/>
<rect x="91.4463" y="294.072" width="18.507" height="4.63836" rx="2.31918" fill="#FF694A"/>
<path d="M313.456 282.024V274.905L311.784 275.388V273.951L314.214 272.88H315.285V282.024H313.456ZM320.773 282.181C319.945 282.181 319.236 281.981 318.643 281.58C318.051 281.18 317.594 280.627 317.272 279.921C316.958 279.207 316.801 278.384 316.801 277.452C316.801 276.52 316.958 275.702 317.272 274.996C317.594 274.282 318.051 273.725 318.643 273.324C319.236 272.923 319.945 272.723 320.773 272.723C321.6 272.723 322.306 272.923 322.889 273.324C323.481 273.725 323.934 274.282 324.248 274.996C324.57 275.702 324.731 276.52 324.731 277.452C324.731 278.384 324.57 279.207 324.248 279.921C323.934 280.627 323.481 281.18 322.889 281.58C322.306 281.981 321.6 282.181 320.773 282.181ZM320.773 280.6C321.199 280.6 321.574 280.474 321.896 280.222C322.227 279.96 322.484 279.595 322.667 279.124C322.85 278.654 322.941 278.097 322.941 277.452C322.941 276.799 322.85 276.242 322.667 275.78C322.484 275.31 322.227 274.948 321.896 274.696C321.574 274.443 321.199 274.317 320.773 274.317C320.346 274.317 319.967 274.443 319.636 274.696C319.305 274.948 319.048 275.31 318.865 275.78C318.691 276.242 318.604 276.799 318.604 277.452C318.604 278.097 318.691 278.654 318.865 279.124C319.048 279.595 319.305 279.96 319.636 280.222C319.967 280.474 320.346 280.6 320.773 280.6ZM333.334 282.181C332.472 282.181 331.714 281.99 331.061 281.606C330.417 281.214 329.916 280.67 329.559 279.973C329.202 279.268 329.023 278.449 329.023 277.517C329.023 276.577 329.206 275.749 329.572 275.035C329.946 274.312 330.478 273.746 331.166 273.337C331.854 272.928 332.672 272.723 333.622 272.723C334.701 272.723 335.594 272.98 336.3 273.494C337.014 274.008 337.475 274.722 337.684 275.636H335.712C335.581 275.236 335.337 274.922 334.98 274.696C334.632 274.46 334.175 274.343 333.608 274.343C333.016 274.343 332.511 274.474 332.093 274.735C331.675 274.996 331.357 275.362 331.139 275.832C330.93 276.302 330.826 276.864 330.826 277.517C330.826 278.179 330.935 278.741 331.153 279.203C331.37 279.664 331.679 280.017 332.08 280.261C332.481 280.496 332.96 280.614 333.517 280.614C334.318 280.614 334.924 280.4 335.333 279.973C335.742 279.538 335.99 278.976 336.078 278.288H333.818V276.969H337.841V282.024H336.221L336.078 280.862C335.886 281.149 335.664 281.393 335.411 281.593C335.159 281.785 334.863 281.929 334.523 282.024C334.183 282.129 333.787 282.181 333.334 282.181ZM339.517 282.024V272.88H343.266C343.902 272.88 344.438 272.98 344.873 273.18C345.309 273.381 345.635 273.659 345.853 274.016C346.08 274.365 346.193 274.77 346.193 275.231C346.193 275.693 346.093 276.08 345.892 276.394C345.692 276.707 345.426 276.951 345.095 277.126C344.773 277.291 344.416 277.387 344.024 277.413L344.233 277.269C344.651 277.287 345.021 277.4 345.344 277.609C345.675 277.809 345.932 278.079 346.114 278.419C346.306 278.758 346.402 279.129 346.402 279.529C346.402 280.017 346.284 280.448 346.049 280.823C345.814 281.197 345.474 281.493 345.03 281.711C344.586 281.92 344.042 282.024 343.397 282.024H339.517ZM341.281 280.587H343.11C343.589 280.587 343.959 280.479 344.22 280.261C344.481 280.043 344.612 279.73 344.612 279.32C344.612 278.911 344.477 278.593 344.207 278.367C343.937 278.131 343.563 278.014 343.084 278.014H341.281V280.587ZM341.281 276.694H342.979C343.441 276.694 343.789 276.59 344.024 276.381C344.268 276.172 344.39 275.876 344.39 275.493C344.39 275.118 344.268 274.826 344.024 274.617C343.789 274.4 343.436 274.291 342.966 274.291H341.281V276.694Z" fill="#768396"/>
<rect x="32.6592" y="264.386" width="45.7232" height="38.9622" rx="9.79782" fill="#F7F7F9"/>
<path fill-rule="evenodd" clip-rule="evenodd" d="M57.6978 274.591C57.6978 274.078 57.2104 273.663 56.6091 273.663H48.9886C47.1849 273.663 45.7227 274.909 45.7227 276.446V291.289C45.7227 292.826 47.1849 294.072 48.9886 294.072H62.0524C63.8561 294.072 65.3183 292.826 65.3183 291.289V281.084C65.3183 280.572 64.8309 280.157 64.2297 280.157H60.9637C59.16 280.157 57.6978 278.911 57.6978 277.374V274.591ZM51.1659 284.795C51.1659 284.283 51.6533 283.867 52.2545 283.867H58.7864C59.3877 283.867 59.8751 284.283 59.8751 284.795C59.8751 285.307 59.3877 285.723 58.7864 285.723H52.2545C51.6533 285.723 51.1659 285.307 51.1659 284.795ZM51.1659 288.506C51.1659 287.993 51.6533 287.578 52.2545 287.578H55.5205C56.1217 287.578 56.6091 287.993 56.6091 288.506C56.6091 289.018 56.1217 289.433 55.5205 289.433H52.2545C51.6533 289.433 51.1659 289.018 51.1659 288.506Z" fill="#FF694A"/>
<path d="M60.9391 273.828C60.3846 273.63 59.875 274.079 59.875 274.591V277.374C59.875 277.886 60.3624 278.302 60.9636 278.302H64.2296C64.8308 278.302 65.3575 277.868 65.125 277.395C65.0243 277.191 64.8797 277 64.6805 276.831L61.6014 274.207C61.4022 274.037 61.1791 273.914 60.9391 273.828Z" fill="#FF694A"/>
<path d="M97.4205 337.085C96.3841 337.085 95.4697 336.851 94.6771 336.384C93.8846 335.916 93.2597 335.271 92.8025 334.448C92.3554 333.615 92.1319 332.655 92.1319 331.567C92.1319 330.48 92.3554 329.525 92.8025 328.702C93.2597 327.869 93.8846 327.219 94.6771 326.751C95.4697 326.284 96.3841 326.05 97.4205 326.05C98.4773 326.05 99.4019 326.284 100.194 326.751C100.987 327.219 101.602 327.869 102.039 328.702C102.486 329.525 102.709 330.48 102.709 331.567C102.709 332.655 102.486 333.615 102.039 334.448C101.602 335.271 100.987 335.916 100.194 336.384C99.4019 336.851 98.4773 337.085 97.4205 337.085ZM97.4205 335.241C98.0708 335.241 98.6347 335.093 99.1123 334.799C99.5898 334.494 99.9607 334.067 100.225 333.518C100.489 332.97 100.621 332.319 100.621 331.567C100.621 330.805 100.489 330.155 100.225 329.617C99.9607 329.068 99.5898 328.646 99.1123 328.352C98.6347 328.057 98.0708 327.91 97.4205 327.91C96.7804 327.91 96.2216 328.057 95.744 328.352C95.2665 328.646 94.8956 329.068 94.6314 329.617C94.3672 330.155 94.2352 330.805 94.2352 331.567C94.2352 332.319 94.3672 332.97 94.6314 333.518C94.8956 334.067 95.2665 334.494 95.744 334.799C96.2216 335.093 96.7804 335.241 97.4205 335.241ZM107.878 336.902C107.34 336.902 106.867 336.821 106.461 336.658C106.054 336.485 105.739 336.206 105.516 335.82C105.303 335.423 105.196 334.885 105.196 334.204V330.958H103.885V329.236H105.196L105.424 327.148H107.253V329.236H109.265V330.958H107.253V334.235C107.253 334.58 107.325 334.819 107.467 334.951C107.619 335.083 107.883 335.149 108.259 335.149H109.25V336.902H107.878ZM110.997 336.902V325.928H113.055V330.379C113.299 329.972 113.634 329.652 114.061 329.418C114.487 329.175 114.98 329.053 115.539 329.053C116.179 329.053 116.718 329.19 117.155 329.464C117.592 329.728 117.922 330.12 118.145 330.638C118.369 331.146 118.481 331.771 118.481 332.512V336.902H116.438V332.711C116.438 332.091 116.311 331.618 116.057 331.293C115.803 330.958 115.402 330.79 114.853 330.79C114.518 330.79 114.213 330.871 113.939 331.034C113.664 331.197 113.446 331.435 113.283 331.75C113.131 332.055 113.055 332.426 113.055 332.863V336.902H110.997ZM124.092 337.085C123.32 337.085 122.634 336.922 122.035 336.597C121.445 336.262 120.983 335.799 120.648 335.21C120.323 334.611 120.16 333.92 120.16 333.137C120.16 332.345 120.323 331.644 120.648 331.034C120.973 330.414 121.43 329.932 122.019 329.586C122.619 329.231 123.31 329.053 124.092 329.053C124.854 329.053 125.52 329.22 126.089 329.556C126.658 329.891 127.1 330.343 127.415 330.912C127.74 331.481 127.902 332.126 127.902 332.848C127.902 332.949 127.897 333.061 127.887 333.183C127.887 333.305 127.877 333.437 127.857 333.579H121.623V332.314H125.814C125.784 331.827 125.606 331.44 125.281 331.156C124.966 330.871 124.57 330.729 124.092 330.729C123.747 330.729 123.427 330.811 123.132 330.973C122.837 331.125 122.604 331.364 122.431 331.689C122.268 332.015 122.187 332.421 122.187 332.909V333.351C122.187 333.767 122.263 334.133 122.416 334.448C122.578 334.753 122.802 334.992 123.086 335.164C123.371 335.327 123.701 335.408 124.077 335.408C124.453 335.408 124.763 335.327 125.007 335.164C125.261 335.002 125.454 334.788 125.586 334.524H127.674C127.532 335.012 127.293 335.449 126.957 335.835C126.622 336.221 126.211 336.526 125.723 336.749C125.235 336.973 124.692 337.085 124.092 337.085ZM129.572 336.902V329.236H131.401L131.584 330.653C131.777 330.318 132.011 330.033 132.285 329.8C132.56 329.566 132.874 329.383 133.23 329.251C133.596 329.119 133.997 329.053 134.434 329.053V331.232H133.748C133.443 331.232 133.159 331.268 132.895 331.339C132.641 331.41 132.417 331.527 132.224 331.689C132.031 331.842 131.884 332.06 131.782 332.345C131.681 332.619 131.63 332.96 131.63 333.366V336.902H129.572ZM139.426 336.902V326.233H146.361V327.894H141.484V330.744H145.401V332.36H141.484V336.902H139.426ZM147.895 336.902V329.236H149.953V336.902H147.895ZM148.932 328.184C148.556 328.184 148.251 328.072 148.017 327.849C147.784 327.625 147.667 327.351 147.667 327.026C147.667 326.68 147.784 326.401 148.017 326.187C148.251 325.974 148.556 325.867 148.932 325.867C149.308 325.867 149.613 325.974 149.846 326.187C150.09 326.401 150.212 326.68 150.212 327.026C150.212 327.351 150.09 327.625 149.846 327.849C149.613 328.072 149.308 328.184 148.932 328.184ZM152.017 336.902V325.928H154.075V336.902H152.017ZM159.769 337.085C158.997 337.085 158.311 336.922 157.711 336.597C157.122 336.262 156.66 335.799 156.324 335.21C155.999 334.611 155.837 333.92 155.837 333.137C155.837 332.345 155.999 331.644 156.324 331.034C156.649 330.414 157.107 329.932 157.696 329.586C158.295 329.231 158.986 329.053 159.769 329.053C160.531 329.053 161.196 329.22 161.765 329.556C162.334 329.891 162.776 330.343 163.091 330.912C163.416 331.481 163.579 332.126 163.579 332.848C163.579 332.949 163.574 333.061 163.564 333.183C163.564 333.305 163.554 333.437 163.533 333.579H157.3V332.314H161.491C161.46 331.827 161.283 331.44 160.958 331.156C160.643 330.871 160.246 330.729 159.769 330.729C159.423 330.729 159.103 330.811 158.809 330.973C158.514 331.125 158.28 331.364 158.107 331.689C157.945 332.015 157.864 332.421 157.864 332.909V333.351C157.864 333.767 157.94 334.133 158.092 334.448C158.255 334.753 158.478 334.992 158.763 335.164C159.047 335.327 159.378 335.408 159.753 335.408C160.129 335.408 160.439 335.327 160.683 335.164C160.937 335.002 161.13 334.788 161.262 334.524H163.35C163.208 335.012 162.969 335.449 162.634 335.835C162.299 336.221 161.887 336.526 161.4 336.749C160.912 336.973 160.368 337.085 159.769 337.085Z" fill="#232360"/>
<rect x="91.4463" y="347.877" width="255.832" height="4.63836" rx="2.31918" fill="#E6E9ED"/>
<rect x="91.4463" y="347.877" width="32.6594" height="4.63836" rx="2.31918" fill="#1EA7FF"/>
<path d="M314.545 335.83V328.71L312.873 329.193V327.756L315.302 326.685H316.374V335.83H314.545ZM321.417 335.986C320.799 335.986 320.237 335.873 319.732 335.647C319.227 335.42 318.826 335.102 318.53 334.693C318.234 334.284 318.086 333.809 318.086 333.269C318.086 332.895 318.147 332.555 318.269 332.25C318.391 331.945 318.565 331.675 318.792 331.44C319.027 331.205 319.297 331.026 319.602 330.905C319.21 330.722 318.896 330.46 318.661 330.121C318.426 329.781 318.308 329.398 318.308 328.971C318.308 328.544 318.426 328.144 318.661 327.769C318.896 327.395 319.244 327.094 319.706 326.868C320.168 326.641 320.738 326.528 321.417 326.528C322.105 326.528 322.68 326.641 323.142 326.868C323.603 327.094 323.947 327.395 324.174 327.769C324.409 328.144 324.527 328.544 324.527 328.971C324.527 329.389 324.405 329.772 324.161 330.121C323.926 330.46 323.617 330.722 323.233 330.905C323.547 331.035 323.817 331.218 324.043 331.453C324.27 331.68 324.444 331.945 324.566 332.25C324.696 332.555 324.762 332.895 324.762 333.269C324.762 333.809 324.614 334.284 324.318 334.693C324.021 335.102 323.621 335.42 323.116 335.647C322.611 335.873 322.044 335.986 321.417 335.986ZM321.417 334.51C321.949 334.51 322.349 334.38 322.619 334.118C322.889 333.857 323.024 333.526 323.024 333.125C323.024 332.681 322.881 332.333 322.593 332.08C322.314 331.819 321.923 331.688 321.417 331.688C320.921 331.688 320.525 331.819 320.229 332.08C319.941 332.333 319.798 332.681 319.798 333.125C319.798 333.526 319.937 333.857 320.216 334.118C320.494 334.38 320.895 334.51 321.417 334.51ZM321.417 330.395C321.853 330.395 322.193 330.282 322.436 330.055C322.68 329.829 322.802 329.537 322.802 329.18C322.802 328.797 322.68 328.501 322.436 328.292C322.201 328.074 321.862 327.965 321.417 327.965C320.982 327.965 320.642 328.074 320.398 328.292C320.163 328.501 320.046 328.801 320.046 329.193C320.046 329.542 320.168 329.829 320.412 330.055C320.655 330.282 320.991 330.395 321.417 330.395ZM333.556 335.986C332.693 335.986 331.936 335.795 331.282 335.412C330.638 335.02 330.137 334.475 329.78 333.779C329.423 333.073 329.244 332.254 329.244 331.323C329.244 330.382 329.427 329.555 329.793 328.84C330.168 328.118 330.699 327.552 331.387 327.142C332.075 326.733 332.894 326.528 333.843 326.528C334.923 326.528 335.816 326.785 336.521 327.299C337.235 327.813 337.697 328.527 337.906 329.441H335.933C335.802 329.041 335.559 328.727 335.202 328.501C334.853 328.266 334.396 328.148 333.83 328.148C333.238 328.148 332.732 328.279 332.314 328.54C331.896 328.801 331.579 329.167 331.361 329.637C331.152 330.108 331.047 330.669 331.047 331.323C331.047 331.984 331.156 332.546 331.374 333.008C331.592 333.469 331.901 333.822 332.301 334.066C332.702 334.301 333.181 334.419 333.738 334.419C334.54 334.419 335.145 334.205 335.554 333.779C335.964 333.343 336.212 332.781 336.299 332.093H334.039V330.774H338.063V335.83H336.443L336.299 334.667C336.107 334.954 335.885 335.198 335.633 335.398C335.38 335.59 335.084 335.734 334.744 335.83C334.405 335.934 334.008 335.986 333.556 335.986ZM339.739 335.83V326.685H343.488C344.124 326.685 344.659 326.785 345.095 326.985C345.53 327.186 345.857 327.464 346.074 327.822C346.301 328.17 346.414 328.575 346.414 329.036C346.414 329.498 346.314 329.886 346.114 330.199C345.913 330.513 345.648 330.756 345.317 330.931C344.995 331.096 344.637 331.192 344.246 331.218L344.455 331.074C344.873 331.092 345.243 331.205 345.565 331.414C345.896 331.614 346.153 331.884 346.336 332.224C346.527 332.564 346.623 332.934 346.623 333.334C346.623 333.822 346.506 334.253 346.27 334.628C346.035 335.002 345.696 335.298 345.251 335.516C344.807 335.725 344.263 335.83 343.618 335.83H339.739ZM341.502 334.393H343.331C343.81 334.393 344.18 334.284 344.442 334.066C344.703 333.848 344.833 333.535 344.833 333.125C344.833 332.716 344.698 332.398 344.428 332.172C344.158 331.937 343.784 331.819 343.305 331.819H341.502V334.393ZM341.502 330.5H343.2C343.662 330.5 344.01 330.395 344.246 330.186C344.489 329.977 344.611 329.681 344.611 329.298C344.611 328.923 344.489 328.631 344.246 328.422C344.01 328.205 343.658 328.096 343.187 328.096H341.502V330.5Z" fill="#768396"/>
<rect x="32.6592" y="318.191" width="45.7232" height="38.9622" rx="9.79782" fill="#F7F7F9"/>
<path d="M56.6091 327.468C57.2104 327.468 57.6978 327.884 57.6978 328.396V331.179C57.6978 332.716 59.16 333.962 60.9637 333.962H64.2297C64.8309 333.962 65.3183 334.377 65.3183 334.89V345.094C65.3183 346.631 63.8561 347.877 62.0524 347.877H48.9886C47.1849 347.877 45.7227 346.631 45.7227 345.094V330.251C45.7227 328.714 47.1849 327.468 48.9886 327.468H56.6091Z" fill="#1EA7FF"/>
<path d="M60.9391 327.632C60.3846 327.434 59.875 327.883 59.875 328.395V331.178C59.875 331.691 60.3624 332.106 60.9636 332.106H64.2296C64.8308 332.106 65.3575 331.672 65.125 331.199C65.0243 330.995 64.8797 330.805 64.6805 330.635L61.6014 328.011C61.4022 327.841 61.1791 327.718 60.9391 327.632Z" fill="#1EA7FF"/>
</svg>
