<svg width="35" height="35" viewBox="0 0 35 35" fill="none" xmlns="http://www.w3.org/2000/svg">
<path d="M10.6111 11.1176H24.3889M10.6111 18.4118H20.9444M12.3333 27.5294H7.16667C5.79638 27.5294 4.48222 26.953 3.51328 25.9271C2.54434 24.9012 2 23.5097 2 22.0588V7.47059C2 6.0197 2.54434 4.62823 3.51328 3.6023C4.48222 2.57636 5.79638 2 7.16667 2H27.8333C29.2036 2 30.5178 2.57636 31.4867 3.6023C32.4557 4.62823 33 6.0197 33 7.47059V22.0588C33 23.5097 32.4557 24.9012 31.4867 25.9271C30.5178 26.953 29.2036 27.5294 27.8333 27.5294H22.6667L17.5 33L12.3333 27.5294Z" stroke="#CBCBCB" stroke-width="4" stroke-linecap="round" stroke-linejoin="round"/>
</svg>
