<svg width="33" height="32" viewBox="0 0 33 32" fill="none" xmlns="http://www.w3.org/2000/svg">
<g clip-path="url(#clip0_856_1374)">
<path d="M28.8801 23.4885C28.8801 24.1198 28.3684 24.6315 27.737 24.6315H5.64674C5.01543 24.6315 4.50366 24.1198 4.50366 23.4885C4.50366 22.8571 5.01544 22.3454 5.64674 22.3454H5.72249V14.3793C5.72249 8.67761 10.6343 4.05615 16.6919 4.05615C22.7494 4.05615 27.6613 8.67761 27.6613 14.3793V22.3454H27.737C28.3684 22.3454 28.8801 22.8571 28.8801 23.4885ZM8.16013 22.3454H25.2237V14.3793C25.2237 9.94071 21.4039 6.34231 16.6919 6.34231C11.9799 6.34231 8.16013 9.94071 8.16013 14.3793V22.3454ZM13.9382 26.998C13.6221 26.3721 14.2133 25.7746 14.9144 25.7746H18.4694C19.1705 25.7746 19.7617 26.3721 19.4456 26.998C19.2975 27.2913 19.0958 27.5615 18.8465 27.7953C18.2751 28.3312 17.5 28.6323 16.6919 28.6323C15.8838 28.6323 15.1087 28.3312 14.5373 27.7953C14.288 27.5615 14.0863 27.2913 13.9382 26.998Z" fill="#333333"/>
<ellipse cx="25.4938" cy="7.28981" rx="7.44836" ry="7.11415" fill="#5150F9"/>
<path d="M22.6566 10.1757V9.17014C23.0967 8.82481 23.5233 8.47948 23.9364 8.13415C24.3562 7.78882 24.732 7.44688 25.0638 7.10832C25.3956 6.76299 25.6562 6.42782 25.8458 6.1028C26.0422 5.77778 26.1404 5.46292 26.1404 5.15822C26.1404 4.96863 26.1031 4.79596 26.0287 4.64023C25.9609 4.47772 25.8492 4.34907 25.6935 4.25427C25.5445 4.1527 25.3448 4.10192 25.0942 4.10192C24.8572 4.10192 24.6541 4.15609 24.4848 4.26443C24.3223 4.37277 24.1971 4.51835 24.109 4.70117C24.0278 4.87722 23.9872 5.07697 23.9872 5.30042H22.6668C22.6803 4.77904 22.7954 4.3423 23.0121 3.9902C23.2356 3.63809 23.5301 3.3774 23.8957 3.20813C24.2682 3.03207 24.6812 2.94405 25.1349 2.94405C25.6495 2.94405 26.0828 3.03885 26.4349 3.22844C26.787 3.41126 27.0545 3.66179 27.2373 3.98004C27.4201 4.29828 27.5115 4.66393 27.5115 5.07697C27.5115 5.38844 27.454 5.69314 27.3389 5.99108C27.2238 6.28901 27.0647 6.58017 26.8615 6.86456C26.6584 7.14217 26.4282 7.40964 26.1709 7.66694C25.9203 7.92425 25.6529 8.17139 25.3685 8.40838C25.0909 8.6386 24.82 8.85528 24.5559 9.05842H27.6842V10.1757H22.6566Z" fill="white"/>
</g>
<defs>
<clipPath id="clip0_856_1374">
<rect width="32.502" height="31.0436" fill="white" transform="translate(0.438721 0.175659)"/>
</clipPath>
</defs>
</svg>
