<svg width="27" height="23" viewBox="0 0 27 23" fill="none" xmlns="http://www.w3.org/2000/svg">
<rect x="0.205357" y="0.205357" width="25.8003" height="22.5893" rx="6.36607" fill="#F3F4F8" stroke="#C4C4C4" stroke-width="0.410714"/>
<path d="M19.47 4.58818C19.1189 4.2802 18.6428 4.10718 18.1464 4.10718C17.6499 4.10718 17.1738 4.2802 16.8227 4.58818L15.2828 5.94026L20.247 10.2963L21.7869 8.94586C21.9608 8.7933 22.0988 8.61216 22.1929 8.4128C22.287 8.21344 22.3355 7.99975 22.3355 7.78395C22.3355 7.56815 22.287 7.35447 22.1929 7.1551C22.0988 6.95574 21.9608 6.7746 21.7869 6.62204L19.47 4.58818ZM18.9233 11.4578L13.9591 7.10176L5.68865 14.3591L4.6814 19.5998L10.6538 18.7151L18.9233 11.4578Z" fill="#E2E2E2"/>
</svg>
