<svg width="20" height="20" viewBox="0 0 20 20" fill="none" xmlns="http://www.w3.org/2000/svg">
<path d="M5.37891 1C5.87891 1 7.87891 5.5 7.87891 6C7.87891 7 6.37891 8 5.87891 9C5.37891 10 6.37891 11 7.37891 12C7.76891 12.39 9.37891 14 10.3789 13.5C11.3789 13 12.3789 11.5 13.3789 11.5C13.8789 11.5 18.3789 13.5 18.3789 14C18.3789 16 16.8789 17.5 15.3789 18C13.8789 18.5 12.8789 18.5 10.8789 18C8.87891 17.5 7.37891 17 4.87891 14.5C2.37891 12 1.87891 10.5 1.37891 8.5C0.878906 6.5 0.878906 5.5 1.37891 4C1.87891 2.5 3.37891 1 5.37891 1Z" stroke="#5F6388" stroke-width="2" stroke-linecap="round" stroke-linejoin="round"/>
</svg>
