<svg width="20" height="22" viewBox="0 0 20 22" fill="none" xmlns="http://www.w3.org/2000/svg">
<path d="M10.597 21.0638L10.586 21.0658L10.515 21.1008L10.495 21.1048L10.481 21.1008L10.41 21.0658C10.3993 21.0625 10.3913 21.0642 10.386 21.0708L10.382 21.0808L10.365 21.5088L10.37 21.5288L10.38 21.5418L10.484 21.6158L10.499 21.6198L10.511 21.6158L10.615 21.5418L10.627 21.5258L10.631 21.5088L10.614 21.0818C10.6113 21.0712 10.6056 21.0652 10.597 21.0638ZM10.862 20.9508L10.849 20.9528L10.664 21.0458L10.654 21.0558L10.651 21.0668L10.669 21.4968L10.674 21.5088L10.682 21.5158L10.883 21.6088C10.8956 21.6122 10.9053 21.6095 10.912 21.6008L10.916 21.5868L10.882 20.9728C10.8786 20.9608 10.872 20.9535 10.862 20.9508ZM10.147 20.9528C10.1425 20.9502 10.1373 20.9493 10.1323 20.9504C10.1272 20.9515 10.1228 20.9546 10.12 20.9588L10.114 20.9728L10.08 21.5868C10.0806 21.5988 10.0863 21.6068 10.097 21.6108L10.112 21.6088L10.313 21.5158L10.323 21.5078L10.327 21.4968L10.344 21.0668L10.341 21.0548L10.331 21.0448L10.147 20.9528Z" fill="#CBCBCB"/>
<path d="M1.00391 16.8059H2.00391V4.16586C2.00394 3.851 2.10304 3.54413 2.28719 3.28873C2.47133 3.03333 2.73118 2.84236 3.02991 2.74286L11.0299 0.0768613C11.2554 0.00176838 11.4954 -0.0186831 11.7304 0.0171913C11.9653 0.0530657 12.1883 0.144239 12.3811 0.283202C12.5738 0.422164 12.7308 0.604938 12.8391 0.816467C12.9474 1.028 13.0039 1.26223 13.0039 1.49986V16.8059H14.0039V7.79586C14.004 7.72192 14.0204 7.6489 14.0521 7.58208C14.0837 7.51525 14.1298 7.45628 14.187 7.40942C14.2442 7.36255 14.3111 7.32895 14.3828 7.31104C14.4546 7.29314 14.5294 7.29137 14.6019 7.30586L16.7979 7.74586C17.1378 7.8138 17.4437 7.99737 17.6636 8.26536C17.8834 8.53336 18.0037 8.86922 18.0039 9.21586V16.8059H19.0039C19.2691 16.8059 19.5235 16.9112 19.711 17.0988C19.8986 17.2863 20.0039 17.5406 20.0039 17.8059C20.0039 18.0711 19.8986 18.3254 19.711 18.513C19.5235 18.7005 19.2691 18.8059 19.0039 18.8059H1.00391C0.73869 18.8059 0.484336 18.7005 0.296799 18.513C0.109263 18.3254 0.00390625 18.0711 0.00390625 17.8059C0.00390625 17.5406 0.109263 17.2863 0.296799 17.0988C0.484336 16.9112 0.73869 16.8059 1.00391 16.8059Z" fill="#CBCBCB"/>
</svg>
