<svg width="16" height="12" viewBox="0 0 16 12" fill="none" xmlns="http://www.w3.org/2000/svg">
<path d="M11.6115 2.26406C11.7207 2.3625 11.7807 2.4968 11.7807 2.63672V4.39453C11.7807 4.53439 11.7199 4.66852 11.6117 4.76742C11.5035 4.86632 11.3568 4.92188 11.2038 4.92188C11.0508 4.92188 10.904 4.86632 10.7958 4.76742C10.6876 4.66852 10.6269 4.53439 10.6269 4.39453V3.90938L9.30378 5.11875C9.25053 5.16909 9.18685 5.20924 9.11645 5.23685C9.04605 5.26445 8.97034 5.27897 8.89373 5.27954C8.81713 5.28012 8.74117 5.26674 8.67028 5.2402C8.59939 5.21365 8.535 5.17447 8.48085 5.12493C8.42671 5.07539 8.3839 5.0165 8.35493 4.95167C8.32595 4.88685 8.31139 4.81741 8.31209 4.74739C8.31279 4.67737 8.32874 4.60818 8.35901 4.54385C8.38928 4.47953 8.43326 4.42136 8.48839 4.37273L9.81147 3.16406H9.2807C9.12769 3.16406 8.98095 3.1085 8.87275 3.00961C8.76456 2.91071 8.70378 2.77658 8.70378 2.63672C8.70378 2.49686 8.76456 2.36273 8.87275 2.26383C8.98095 2.16493 9.12769 2.10938 9.2807 2.10938H11.2038C11.3567 2.1095 11.5034 2.16514 11.6115 2.26406ZM4.08836 8.61328C4.08836 8.75314 4.14915 8.88727 4.25734 8.98617C4.36554 9.08507 4.51228 9.14062 4.66529 9.14062H6.58915C6.74216 9.14062 6.8889 9.08507 6.9971 8.98617C7.10529 8.88727 7.16607 8.75314 7.16607 8.61328C7.16607 8.47342 7.10529 8.33929 6.9971 8.24039C6.8889 8.1415 6.74216 8.08594 6.58915 8.08594H6.05838L7.38146 6.87656C7.4865 6.77706 7.54459 6.64383 7.5432 6.50556C7.54181 6.36729 7.48107 6.23505 7.37405 6.13732C7.26704 6.03959 7.12231 5.9842 6.97104 5.98306C6.81977 5.98193 6.67406 6.03514 6.5653 6.13125L5.24222 7.33922V6.85406C5.24222 6.7142 5.18143 6.58007 5.07324 6.48117C4.96504 6.38228 4.8183 6.32672 4.66529 6.32672C4.51228 6.32672 4.36554 6.38228 4.25734 6.48117C4.14915 6.58007 4.08836 6.7142 4.08836 6.85406V8.61328ZM0.242188 1.93359C0.242188 1.42077 0.465059 0.928955 0.861773 0.566336C1.25849 0.203717 1.79655 0 2.35758 0H13.5115C14.0725 0 14.6106 0.203717 15.0073 0.566336C15.404 0.928955 15.6269 1.42077 15.6269 1.93359V9.31641C15.6269 9.57033 15.5722 9.82177 15.4659 10.0564C15.3596 10.291 15.2037 10.5041 15.0073 10.6837C14.8109 10.8632 14.5777 11.0056 14.321 11.1028C14.0644 11.2 13.7893 11.25 13.5115 11.25H2.35758C2.07979 11.25 1.80471 11.2 1.54806 11.1028C1.29141 11.0056 1.05821 10.8632 0.861773 10.6837C0.66534 10.5041 0.509521 10.291 0.403213 10.0564C0.296904 9.82177 0.242188 9.57033 0.242188 9.31641V1.93359ZM2.35758 1.05469C1.82681 1.05469 1.39604 1.44844 1.39604 1.93359V9.31641C1.39604 9.80156 1.82681 10.1953 2.35758 10.1953H13.5115C14.0423 10.1953 14.473 9.80156 14.473 9.31641V1.93359C14.473 1.44844 14.0423 1.05469 13.5115 1.05469H2.35758Z" fill="#333333"/>
</svg>
