<svg width="26" height="25" viewBox="0 0 26 25" fill="none" xmlns="http://www.w3.org/2000/svg">
<path d="M25.0129 22.0786L20.4955 17.7988C22.249 15.7106 23.0982 13.0601 22.8684 10.3922C22.6387 7.72433 21.3475 5.24193 19.2603 3.45544C17.1731 1.66895 14.4486 0.714146 11.647 0.787368C8.84546 0.860589 6.17972 1.95627 4.19796 3.8491C2.2162 5.74194 1.06905 8.28807 0.992386 10.9639C0.915724 13.6398 1.91538 16.242 3.7858 18.2356C5.65622 20.2291 8.25524 21.4624 11.0484 21.6818C13.8416 21.9012 16.6167 21.0902 18.803 19.4154L23.2839 23.6951C23.3971 23.8041 23.5317 23.8907 23.6801 23.9497C23.8285 24.0087 23.9876 24.0391 24.1484 24.0391C24.3091 24.0391 24.4683 24.0087 24.6166 23.9497C24.765 23.8907 24.8997 23.8041 25.0129 23.6951C25.2323 23.4783 25.355 23.1885 25.355 22.8869C25.355 22.5853 25.2323 22.2955 25.0129 22.0786ZM11.9722 19.4154C10.2865 19.4154 8.63861 18.9379 7.23696 18.0434C5.83531 17.1489 4.74286 15.8775 4.09775 14.3899C3.45264 12.9024 3.28385 11.2655 3.61273 9.68635C3.9416 8.10718 4.75337 6.65662 5.94537 5.5181C7.13737 4.37959 8.65608 3.60425 10.3094 3.29013C11.9628 2.97602 13.6765 3.13723 15.234 3.75339C16.7914 4.36955 18.1225 5.41298 19.0591 6.75174C19.9956 8.09049 20.4955 9.66444 20.4955 11.2745C20.4955 13.4336 19.5975 15.5043 17.9991 17.031C16.4007 18.5577 14.2328 19.4154 11.9722 19.4154Z" fill="#94A2BC"/>
</svg>
