<svg width="95" height="27" viewBox="0 0 95 27" fill="none" xmlns="http://www.w3.org/2000/svg">
<rect x="0.295317" y="0.291411" width="94.4172" height="25.6442" rx="5.53681" fill="#F3F4F8" stroke="#94A2BC" stroke-width="0.582822"/>
<path d="M38.9268 11.57C38.8601 11.4967 38.7634 11.42 38.6368 11.34C38.5101 11.2533 38.3601 11.1733 38.1868 11.1C38.0134 11.0267 37.8268 10.9667 37.6268 10.92C37.4268 10.8733 37.2201 10.85 37.0068 10.85C36.5401 10.85 36.1934 10.9367 35.9668 11.11C35.7401 11.2833 35.6268 11.5233 35.6268 11.83C35.6268 12.0567 35.6901 12.2367 35.8168 12.37C35.9434 12.4967 36.1368 12.6033 36.3968 12.69C36.6568 12.7767 36.9834 12.87 37.3768 12.97C37.8568 13.0833 38.2734 13.22 38.6268 13.38C38.9801 13.5333 39.2501 13.74 39.4368 14C39.6234 14.26 39.7168 14.6033 39.7168 15.03C39.7168 15.39 39.6501 15.7 39.5168 15.96C39.3834 16.22 39.1968 16.4333 38.9568 16.6C38.7168 16.76 38.4401 16.88 38.1268 16.96C37.8134 17.0333 37.4768 17.07 37.1168 17.07C36.7634 17.07 36.4101 17.0333 36.0568 16.96C35.7101 16.8867 35.3768 16.78 35.0568 16.64C34.7434 16.4933 34.4534 16.3167 34.1868 16.11L34.6968 15.15C34.7834 15.2367 34.9068 15.3333 35.0668 15.44C35.2334 15.54 35.4234 15.6367 35.6368 15.73C35.8568 15.8233 36.0934 15.9033 36.3468 15.97C36.6068 16.03 36.8701 16.06 37.1368 16.06C37.5834 16.06 37.9234 15.9833 38.1568 15.83C38.3968 15.67 38.5168 15.4433 38.5168 15.15C38.5168 14.91 38.4401 14.72 38.2868 14.58C38.1334 14.4333 37.9101 14.31 37.6168 14.21C37.3234 14.11 36.9734 14.01 36.5668 13.91C36.1001 13.7833 35.7101 13.6467 35.3968 13.5C35.0834 13.3467 34.8468 13.1533 34.6868 12.92C34.5334 12.68 34.4568 12.3767 34.4568 12.01C34.4568 11.5433 34.5701 11.15 34.7968 10.83C35.0234 10.5033 35.3301 10.26 35.7168 10.1C36.1101 9.93333 36.5501 9.85 37.0368 9.85C37.3568 9.85 37.6601 9.88667 37.9468 9.96C38.2334 10.0267 38.5001 10.12 38.7468 10.24C39.0001 10.36 39.2301 10.4967 39.4368 10.65L38.9268 11.57ZM43.07 17.1C42.6634 17.1 42.2934 17.03 41.96 16.89C41.6334 16.7433 41.35 16.5467 41.11 16.3C40.87 16.0467 40.6834 15.76 40.55 15.44C40.4234 15.1133 40.36 14.7667 40.36 14.4C40.36 13.9067 40.4734 13.4567 40.7 13.05C40.9267 12.6367 41.2434 12.3067 41.65 12.06C42.0567 11.8067 42.5334 11.68 43.08 11.68C43.6267 11.68 44.0967 11.8067 44.49 12.06C44.89 12.3067 45.2 12.6333 45.42 13.04C45.64 13.4467 45.75 13.8833 45.75 14.35C45.75 14.43 45.7467 14.5067 45.74 14.58C45.7334 14.6467 45.7267 14.7033 45.72 14.75H41.53C41.55 15.0567 41.6334 15.3267 41.78 15.56C41.9334 15.7867 42.1267 15.9667 42.36 16.1C42.5934 16.2267 42.8434 16.29 43.11 16.29C43.4034 16.29 43.68 16.2167 43.94 16.07C44.2067 15.9233 44.3867 15.73 44.48 15.49L45.42 15.76C45.3067 16.0133 45.1334 16.2433 44.9 16.45C44.6734 16.65 44.4034 16.81 44.09 16.93C43.7767 17.0433 43.4367 17.1 43.07 17.1ZM41.5 14.02H44.66C44.64 13.72 44.5534 13.4567 44.4 13.23C44.2534 12.9967 44.0634 12.8167 43.83 12.69C43.6034 12.5567 43.35 12.49 43.07 12.49C42.7967 12.49 42.5434 12.5567 42.31 12.69C42.0834 12.8167 41.8967 12.9967 41.75 13.23C41.6034 13.4567 41.52 13.72 41.5 14.02ZM51.3373 17H50.2373V14.07C50.2373 13.5833 50.1573 13.2267 49.9973 13C49.844 12.7733 49.614 12.66 49.3073 12.66C49.094 12.66 48.8806 12.7133 48.6673 12.82C48.4606 12.9267 48.274 13.0733 48.1073 13.26C47.9406 13.44 47.8206 13.65 47.7473 13.89V17H46.6473V11.77H47.6473V12.82C47.7806 12.5867 47.954 12.3867 48.1673 12.22C48.3873 12.0467 48.634 11.9133 48.9073 11.82C49.1806 11.7267 49.4706 11.68 49.7773 11.68C50.0906 11.68 50.3473 11.7367 50.5473 11.85C50.754 11.9633 50.914 12.12 51.0273 12.32C51.1473 12.5133 51.2273 12.74 51.2673 13C51.314 13.2533 51.3373 13.5233 51.3373 13.81V17ZM52.2841 14.39C52.2841 13.89 52.3841 13.4367 52.5841 13.03C52.7908 12.6167 53.0708 12.29 53.4241 12.05C53.7774 11.8033 54.1841 11.68 54.6441 11.68C55.0441 11.68 55.4041 11.7833 55.7241 11.99C56.0508 12.1967 56.3041 12.4533 56.4841 12.76V9.7H57.5841V15.76C57.5841 15.8867 57.6074 15.9767 57.6541 16.03C57.7008 16.0833 57.7774 16.1133 57.8841 16.12V17C57.6774 17.0333 57.5174 17.05 57.4041 17.05C57.1974 17.05 57.0208 16.99 56.8741 16.87C56.7341 16.75 56.6608 16.6067 56.6541 16.44L56.6441 16.05C56.4441 16.3833 56.1741 16.6433 55.8341 16.83C55.4941 17.01 55.1408 17.1 54.7741 17.1C54.4141 17.1 54.0808 17.03 53.7741 16.89C53.4741 16.75 53.2108 16.5533 52.9841 16.3C52.7641 16.0467 52.5908 15.7567 52.4641 15.43C52.3441 15.1033 52.2841 14.7567 52.2841 14.39ZM56.4841 15.12V13.75C56.4108 13.5367 56.2908 13.3467 56.1241 13.18C55.9641 13.0067 55.7808 12.87 55.5741 12.77C55.3741 12.67 55.1741 12.62 54.9741 12.62C54.7408 12.62 54.5274 12.67 54.3341 12.77C54.1474 12.87 53.9841 13.0033 53.8441 13.17C53.7108 13.3367 53.6074 13.5267 53.5341 13.74C53.4608 13.9533 53.4241 14.1767 53.4241 14.41C53.4241 14.65 53.4641 14.8767 53.5441 15.09C53.6241 15.2967 53.7374 15.4833 53.8841 15.65C54.0374 15.81 54.2108 15.9367 54.4041 16.03C54.6041 16.1167 54.8208 16.16 55.0541 16.16C55.2008 16.16 55.3474 16.1333 55.4941 16.08C55.6474 16.0267 55.7908 15.9533 55.9241 15.86C56.0641 15.7667 56.1808 15.6567 56.2741 15.53C56.3741 15.4033 56.4441 15.2667 56.4841 15.12ZM63.822 17.1C63.4153 17.1 63.0453 17.03 62.712 16.89C62.3853 16.7433 62.102 16.5467 61.862 16.3C61.622 16.0467 61.4353 15.76 61.302 15.44C61.1753 15.1133 61.112 14.7667 61.112 14.4C61.112 13.9067 61.2253 13.4567 61.452 13.05C61.6787 12.6367 61.9953 12.3067 62.402 12.06C62.8087 11.8067 63.2853 11.68 63.832 11.68C64.3787 11.68 64.8487 11.8067 65.242 12.06C65.642 12.3067 65.952 12.6333 66.172 13.04C66.392 13.4467 66.502 13.8833 66.502 14.35C66.502 14.43 66.4987 14.5067 66.492 14.58C66.4853 14.6467 66.4787 14.7033 66.472 14.75H62.282C62.302 15.0567 62.3853 15.3267 62.532 15.56C62.6853 15.7867 62.8787 15.9667 63.112 16.1C63.3453 16.2267 63.5953 16.29 63.862 16.29C64.1553 16.29 64.432 16.2167 64.692 16.07C64.9587 15.9233 65.1387 15.73 65.232 15.49L66.172 15.76C66.0587 16.0133 65.8853 16.2433 65.652 16.45C65.4253 16.65 65.1553 16.81 64.842 16.93C64.5287 17.0433 64.1887 17.1 63.822 17.1ZM62.252 14.02H65.412C65.392 13.72 65.3053 13.4567 65.152 13.23C65.0053 12.9967 64.8153 12.8167 64.582 12.69C64.3553 12.5567 64.102 12.49 63.822 12.49C63.5487 12.49 63.2953 12.5567 63.062 12.69C62.8353 12.8167 62.6487 12.9967 62.502 13.23C62.3553 13.4567 62.272 13.72 62.252 14.02ZM75.3993 17H74.2993V14.07C74.2993 13.5833 74.2193 13.2267 74.0593 13C73.8993 12.7733 73.6659 12.66 73.3593 12.66C73.0526 12.66 72.7659 12.7767 72.4993 13.01C72.2393 13.2367 72.0559 13.5333 71.9493 13.9V17H70.8493V14.07C70.8493 13.5833 70.7693 13.2267 70.6093 13C70.4493 12.7733 70.2193 12.66 69.9193 12.66C69.6126 12.66 69.3259 12.7733 69.0593 13C68.7993 13.2267 68.6126 13.5233 68.4993 13.89V17H67.3993V11.77H68.3993V12.82C68.6059 12.4533 68.8759 12.1733 69.2093 11.98C69.5493 11.78 69.9359 11.68 70.3693 11.68C70.8026 11.68 71.1426 11.7933 71.3893 12.02C71.6426 12.2467 71.7993 12.53 71.8593 12.87C72.0859 12.4833 72.3626 12.19 72.6893 11.99C73.0226 11.7833 73.4026 11.68 73.8293 11.68C74.1359 11.68 74.3926 11.7367 74.5993 11.85C74.8059 11.9633 74.9659 12.12 75.0793 12.32C75.1926 12.5133 75.2726 12.74 75.3193 13C75.3726 13.2533 75.3993 13.5233 75.3993 13.81V17ZM76.2868 15.47C76.2868 15.1367 76.3802 14.8467 76.5668 14.6C76.7602 14.3467 77.0235 14.1533 77.3568 14.02C77.6902 13.88 78.0768 13.81 78.5168 13.81C78.7502 13.81 78.9868 13.8267 79.2268 13.86C79.4735 13.8933 79.6902 13.9467 79.8768 14.02V13.69C79.8768 13.3233 79.7668 13.0367 79.5468 12.83C79.3268 12.6233 79.0102 12.52 78.5968 12.52C78.3035 12.52 78.0268 12.5733 77.7668 12.68C77.5068 12.78 77.2302 12.9233 76.9368 13.11L76.5668 12.37C76.9135 12.1367 77.2602 11.9633 77.6068 11.85C77.9602 11.7367 78.3302 11.68 78.7168 11.68C79.4168 11.68 79.9668 11.8667 80.3668 12.24C80.7735 12.6067 80.9768 13.13 80.9768 13.81V15.76C80.9768 15.8867 80.9968 15.9767 81.0368 16.03C81.0835 16.0833 81.1602 16.1133 81.2668 16.12V17C81.1668 17.02 81.0768 17.0333 80.9968 17.04C80.9168 17.0467 80.8502 17.05 80.7968 17.05C80.5635 17.05 80.3868 16.9933 80.2668 16.88C80.1468 16.7667 80.0768 16.6333 80.0568 16.48L80.0268 16.18C79.8002 16.4733 79.5102 16.7 79.1568 16.86C78.8035 17.02 78.4468 17.1 78.0868 17.1C77.7402 17.1 77.4302 17.03 77.1568 16.89C76.8835 16.7433 76.6702 16.5467 76.5168 16.3C76.3635 16.0533 76.2868 15.7767 76.2868 15.47ZM79.6168 15.79C79.6968 15.7033 79.7602 15.6167 79.8068 15.53C79.8535 15.4433 79.8768 15.3667 79.8768 15.3V14.7C79.6902 14.6267 79.4935 14.5733 79.2868 14.54C79.0802 14.5 78.8768 14.48 78.6768 14.48C78.2768 14.48 77.9502 14.56 77.6968 14.72C77.4502 14.88 77.3268 15.1 77.3268 15.38C77.3268 15.5333 77.3668 15.68 77.4468 15.82C77.5335 15.96 77.6535 16.0733 77.8068 16.16C77.9668 16.2467 78.1635 16.29 78.3968 16.29C78.6368 16.29 78.8668 16.2433 79.0868 16.15C79.3068 16.0567 79.4835 15.9367 79.6168 15.79ZM82.3114 17V11.77H83.4114V17H82.3114ZM82.3114 10.91V9.7H83.4114V10.91H82.3114ZM84.7432 9.7H85.8432V15.49C85.8432 15.7567 85.8832 15.9267 85.9632 16C86.0432 16.0733 86.1432 16.11 86.2632 16.11C86.3966 16.11 86.5199 16.0967 86.6332 16.07C86.7532 16.0433 86.8566 16.01 86.9432 15.97L87.1032 16.84C86.9432 16.9067 86.7532 16.9633 86.5332 17.01C86.3132 17.0567 86.1166 17.08 85.9432 17.08C85.5699 17.08 85.2766 16.9767 85.0632 16.77C84.8499 16.5567 84.7432 16.2633 84.7432 15.89V9.7Z" fill="#333333"/>
<path d="M29.0039 8.625C29.0039 7.73125 28.2389 7 27.3039 7H13.7039C12.7689 7 12.0039 7.73125 12.0039 8.625V18.375C12.0039 19.2688 12.7689 20 13.7039 20H27.3039C28.2389 20 29.0039 19.2688 29.0039 18.375V8.625ZM27.3039 8.625L20.5039 12.6875L13.7039 8.625H27.3039ZM27.3039 18.375H13.7039V10.25L20.5039 14.3125L27.3039 10.25V18.375Z" fill="#333333"/>
</svg>
