<svg width="18" height="16" viewBox="0 0 18 16" fill="none" xmlns="http://www.w3.org/2000/svg">
<path d="M15.0868 1.01612C14.7519 0.722386 14.2979 0.557373 13.8244 0.557373C13.3509 0.557373 12.8968 0.722386 12.562 1.01612L11.0933 2.30564L15.8278 6.46013L17.2965 5.17218C17.4623 5.02668 17.5939 4.85392 17.6837 4.66378C17.7735 4.47364 17.8197 4.26984 17.8197 4.06403C17.8197 3.85821 17.7735 3.65442 17.6837 3.46428C17.5939 3.27414 17.4623 3.10138 17.2965 2.95588L15.0868 1.01612ZM14.5654 7.56789L9.83091 3.4134L1.94307 10.3349L0.982422 15.3332L6.67845 14.4894L14.5654 7.56789Z" fill="#E2E2E2"/>
</svg>
