<svg width="17" height="16" viewBox="0 0 17 16" fill="none" xmlns="http://www.w3.org/2000/svg">
<path fill-rule="evenodd" clip-rule="evenodd" d="M14.2567 3.58901L13.5416 14.2569C13.5149 14.6559 13.3155 15.031 12.984 15.3052C12.6526 15.5794 12.2142 15.7321 11.7587 15.7321H5.30555C4.85 15.7321 4.41164 15.5794 4.0802 15.3052C3.74875 15.031 3.54929 14.6559 3.52264 14.2569L2.8093 3.58901H0.943359V2.80559C0.943359 2.7017 0.99039 2.60207 1.07411 2.52861C1.15782 2.45515 1.27136 2.41388 1.38976 2.41388H15.6745C15.7929 2.41388 15.9064 2.45515 15.9901 2.52861C16.0738 2.60207 16.1209 2.7017 16.1209 2.80559V3.58901H14.2567ZM6.74652 0.455322H10.3177C10.4361 0.455322 10.5496 0.496592 10.6333 0.570052C10.7171 0.643512 10.7641 0.743145 10.7641 0.847033V1.63046H6.30013V0.847033C6.30013 0.743145 6.34716 0.643512 6.43087 0.570052C6.51459 0.496592 6.62813 0.455322 6.74652 0.455322ZM5.85373 5.54757L6.30013 12.5984H7.63932L7.2822 5.54757H5.85373ZM9.8713 5.54757L9.4249 12.5984H10.7641L11.2105 5.54757H9.8713Z" fill="#E2E2E2"/>
</svg>
