<svg width="111" height="35" viewBox="0 0 111 35" fill="none" xmlns="http://www.w3.org/2000/svg">
<g filter="url(#filter0_d_1087_2703)">
<path d="M1 5C1 2.23858 3.23858 0 6 0H105C107.761 0 110 2.23858 110 5V27C110 29.7614 107.761 32 105 32H6C3.23858 32 1 29.7614 1 27V5Z" fill="#FBFCFE"/>
<path d="M1.25 5C1.25 2.37665 3.37665 0.25 6 0.25H105C107.623 0.25 109.75 2.37665 109.75 5V27C109.75 29.6234 107.623 31.75 105 31.75H6C3.37665 31.75 1.25 29.6234 1.25 27V5Z" stroke="#DDE4F0" stroke-width="0.5"/>
</g>
<path d="M24.211 12.668L21.379 12.668V20H20.023V12.668L17.179 12.668V11.48L24.211 11.48V12.668ZM31.3136 20H29.9936V16.484C29.9936 15.916 29.8896 15.492 29.6816 15.212C29.4736 14.932 29.1816 14.792 28.8056 14.792C28.5736 14.792 28.3336 14.856 28.0856 14.984C27.8376 15.112 27.6176 15.288 27.4256 15.512C27.2336 15.728 27.0936 15.98 27.0056 16.268V20H25.6856V11.24H27.0056V14.984C27.2456 14.56 27.5736 14.228 27.9896 13.988C28.4056 13.74 28.8536 13.616 29.3336 13.616C29.7256 13.616 30.0496 13.684 30.3056 13.82C30.5616 13.956 30.7616 14.144 30.9056 14.384C31.0576 14.616 31.1616 14.888 31.2176 15.2C31.2816 15.504 31.3136 15.828 31.3136 16.172V20ZM33.3457 20V13.724H34.6657V20H33.3457ZM33.3457 12.692V11.24H34.6657V12.692H33.3457ZM38.984 20.12C38.456 20.12 37.956 20.036 37.484 19.868C37.012 19.692 36.608 19.432 36.272 19.088L36.764 18.2C37.124 18.52 37.484 18.752 37.844 18.896C38.212 19.04 38.576 19.112 38.936 19.112C39.304 19.112 39.604 19.044 39.836 18.908C40.068 18.764 40.184 18.556 40.184 18.284C40.184 18.084 40.124 17.936 40.004 17.84C39.884 17.744 39.708 17.66 39.476 17.588C39.252 17.516 38.98 17.436 38.66 17.348C38.212 17.212 37.836 17.072 37.532 16.928C37.228 16.776 37 16.592 36.848 16.376C36.696 16.16 36.62 15.884 36.62 15.548C36.62 15.14 36.724 14.792 36.932 14.504C37.14 14.216 37.428 13.996 37.796 13.844C38.172 13.692 38.604 13.616 39.092 13.616C39.548 13.616 39.968 13.688 40.352 13.832C40.744 13.968 41.088 14.184 41.384 14.48L40.82 15.356C40.54 15.1 40.252 14.912 39.956 14.792C39.668 14.672 39.356 14.612 39.02 14.612C38.828 14.612 38.644 14.636 38.468 14.684C38.292 14.724 38.144 14.804 38.024 14.924C37.912 15.036 37.856 15.196 37.856 15.404C37.856 15.572 37.904 15.708 38 15.812C38.096 15.916 38.24 16.004 38.432 16.076C38.624 16.148 38.86 16.228 39.14 16.316C39.628 16.46 40.044 16.604 40.388 16.748C40.732 16.884 40.996 17.064 41.18 17.288C41.372 17.504 41.468 17.804 41.468 18.188C41.468 18.796 41.24 19.272 40.784 19.616C40.336 19.952 39.736 20.12 38.984 20.12ZM54.0955 13.724H55.3555L52.7155 20H51.5875L50.4595 17.168L49.3315 20H48.2035L45.5515 13.724L46.8115 13.724L48.8275 18.716L49.7155 16.4L48.6355 13.736H49.7515L50.4595 15.692L51.1555 13.736L52.2715 13.736L51.2035 16.4L52.0915 18.716L54.0955 13.724ZM59.3655 20.12C58.8775 20.12 58.4335 20.036 58.0335 19.868C57.6415 19.692 57.3015 19.456 57.0135 19.16C56.7255 18.856 56.5015 18.512 56.3415 18.128C56.1895 17.736 56.1135 17.32 56.1135 16.88C56.1135 16.288 56.2495 15.748 56.5215 15.26C56.7935 14.764 57.1735 14.368 57.6615 14.072C58.1495 13.768 58.7215 13.616 59.3775 13.616C60.0335 13.616 60.5975 13.768 61.0695 14.072C61.5495 14.368 61.9215 14.76 62.1855 15.248C62.4495 15.736 62.5815 16.26 62.5815 16.82C62.5815 16.916 62.5775 17.008 62.5695 17.096C62.5615 17.176 62.5535 17.244 62.5455 17.3L57.5175 17.3C57.5415 17.668 57.6415 17.992 57.8175 18.272C58.0015 18.544 58.2335 18.76 58.5135 18.92C58.7935 19.072 59.0935 19.148 59.4135 19.148C59.7655 19.148 60.0975 19.06 60.4095 18.884C60.7295 18.708 60.9455 18.476 61.0575 18.188L62.1855 18.512C62.0495 18.816 61.8415 19.092 61.5615 19.34C61.2895 19.58 60.9655 19.772 60.5895 19.916C60.2135 20.052 59.8055 20.12 59.3655 20.12ZM57.4815 16.424L61.2735 16.424C61.2495 16.064 61.1455 15.748 60.9615 15.476C60.7855 15.196 60.5575 14.98 60.2775 14.828C60.0055 14.668 59.7015 14.588 59.3655 14.588C59.0375 14.588 58.7335 14.668 58.4535 14.828C58.1815 14.98 57.9575 15.196 57.7815 15.476C57.6055 15.748 57.5055 16.064 57.4815 16.424ZM67.0022 20.12C66.5142 20.12 66.0702 20.036 65.6702 19.868C65.2782 19.692 64.9382 19.456 64.6502 19.16C64.3622 18.856 64.1382 18.512 63.9782 18.128C63.8262 17.736 63.7502 17.32 63.7502 16.88C63.7502 16.288 63.8862 15.748 64.1582 15.26C64.4302 14.764 64.8102 14.368 65.2982 14.072C65.7862 13.768 66.3582 13.616 67.0142 13.616C67.6702 13.616 68.2342 13.768 68.7062 14.072C69.1862 14.368 69.5582 14.76 69.8222 15.248C70.0862 15.736 70.2182 16.26 70.2182 16.82C70.2182 16.916 70.2142 17.008 70.2062 17.096C70.1982 17.176 70.1902 17.244 70.1822 17.3H65.1542C65.1782 17.668 65.2782 17.992 65.4542 18.272C65.6382 18.544 65.8702 18.76 66.1502 18.92C66.4302 19.072 66.7302 19.148 67.0502 19.148C67.4022 19.148 67.7342 19.06 68.0462 18.884C68.3662 18.708 68.5822 18.476 68.6942 18.188L69.8222 18.512C69.6862 18.816 69.4782 19.092 69.1982 19.34C68.9262 19.58 68.6022 19.772 68.2262 19.916C67.8502 20.052 67.4422 20.12 67.0022 20.12ZM65.1182 16.424H68.9102C68.8862 16.064 68.7822 15.748 68.5982 15.476C68.4222 15.196 68.1942 14.98 67.9142 14.828C67.6422 14.668 67.3382 14.588 67.0022 14.588C66.6742 14.588 66.3702 14.668 66.0902 14.828C65.8182 14.98 65.5942 15.196 65.4182 15.476C65.2422 15.748 65.1422 16.064 65.1182 16.424ZM76.1629 20L74.1469 17.108L73.1149 18.092V20H71.7949V11.24H73.1149V16.76L76.0189 13.736L77.4349 13.736L74.9989 16.364L77.5669 20H76.1629Z" fill="#5A6ACF"/>
<g clip-path="url(#clip0_1087_2703)">
<path fill-rule="evenodd" clip-rule="evenodd" d="M91.4073 19.4642L86.6931 14.75L87.8715 13.5717L91.9965 17.6967L96.1215 13.5717L97.2998 14.75L92.5856 19.4642C92.4294 19.6204 92.2174 19.7081 91.9965 19.7081C91.7755 19.7081 91.5636 19.6204 91.4073 19.4642Z" fill="#5A6ACF"/>
</g>
<defs>
<filter id="filter0_d_1087_2703" x="0" y="0" width="111" height="35" filterUnits="userSpaceOnUse" color-interpolation-filters="sRGB">
<feFlood flood-opacity="0" result="BackgroundImageFix"/>
<feColorMatrix in="SourceAlpha" type="matrix" values="0 0 0 0 0 0 0 0 0 0 0 0 0 0 0 0 0 0 127 0" result="hardAlpha"/>
<feOffset dy="2"/>
<feGaussianBlur stdDeviation="0.5"/>
<feColorMatrix type="matrix" values="0 0 0 0 0.25098 0 0 0 0 0.282353 0 0 0 0 0.321569 0 0 0 0.05 0"/>
<feBlend mode="normal" in2="BackgroundImageFix" result="effect1_dropShadow_1087_2703"/>
<feBlend mode="normal" in="SourceGraphic" in2="effect1_dropShadow_1087_2703" result="shape"/>
</filter>
<clipPath id="clip0_1087_2703">
<rect width="10" height="20" fill="white" transform="matrix(0 1 -1 0 102 11)"/>
</clipPath>
</defs>
</svg>
