<svg width="20" height="20" viewBox="0 0 20 20" fill="none" xmlns="http://www.w3.org/2000/svg">
<path d="M17.5663 12.4651H17.0351C16.9921 12.4534 16.9531 12.4338 16.9101 12.426C15.7929 12.2542 14.9101 11.3245 14.8359 10.2346C14.7499 9.01589 15.4453 7.98464 16.5781 7.6487C16.7265 7.60573 16.8828 7.57448 17.0351 7.53542H17.5663C17.6015 7.54714 17.6327 7.56667 17.6718 7.57058C18.703 7.73855 19.4882 8.48073 19.7109 9.49636C19.7265 9.57448 19.7499 9.65261 19.7695 9.73073V10.262C19.7577 10.2971 19.7382 10.3323 19.7343 10.3675C19.5702 11.3831 18.8476 12.1565 17.8437 12.3909C17.746 12.4143 17.6562 12.4417 17.5663 12.4651L17.5663 12.4651ZM2.55076 7.5354L3.08205 7.53542C3.12502 7.54714 3.16408 7.56667 3.20705 7.57058C4.33205 7.74636 5.21096 8.67995 5.28127 9.78151C5.35939 10.9964 4.65627 12.0237 3.51955 12.3557C3.375 12.3987 3.22658 12.43 3.08203 12.4651H2.55078C2.51563 12.4534 2.48438 12.4339 2.44922 12.426C1.43359 12.2385 0.769531 11.6487 0.453125 10.6643C0.410156 10.5354 0.386719 10.3987 0.351562 10.2659V9.73464C0.363281 9.69948 0.382813 9.66433 0.386719 9.62917C0.554688 8.60964 1.27344 7.84011 2.27734 7.60573C2.37109 7.58228 2.46094 7.55884 2.55076 7.5354ZM9.79297 7.53542H10.3242C10.3672 7.54714 10.4062 7.56667 10.4492 7.57448C11.5703 7.75026 12.4727 8.71901 12.5195 9.81276C12.5742 11.0432 11.832 12.0862 10.6875 12.3792C10.5664 12.4104 10.4453 12.4378 10.3242 12.4651H9.79297C9.75 12.4534 9.71094 12.4339 9.66797 12.426C8.54688 12.2542 7.64451 11.2815 7.59375 10.1878C7.53516 8.9573 8.28125 7.91433 9.42578 7.62136C9.55078 7.59011 9.67188 7.56276 9.79297 7.53542Z" fill="#333333"/>
</svg>
