<svg width="16" height="14" viewBox="0 0 16 14" fill="none" xmlns="http://www.w3.org/2000/svg">
<path fill-rule="evenodd" clip-rule="evenodd" d="M7.40726 0.781686C7.45281 0.958197 7.4166 1.14335 7.30659 1.29645C7.19657 1.44954 7.02177 1.55804 6.8206 1.59809C6.66792 1.62857 6.51661 1.66409 6.36698 1.70458C6.26935 1.73103 6.16674 1.74034 6.06501 1.73199C5.96327 1.72365 5.86441 1.6978 5.77406 1.65594C5.68371 1.61407 5.60365 1.557 5.53844 1.48799C5.47323 1.41897 5.42415 1.33937 5.39401 1.25371C5.36386 1.16806 5.35325 1.07804 5.36276 0.988785C5.37227 0.899532 5.40173 0.812797 5.44945 0.733532C5.49718 0.654267 5.56223 0.584024 5.64089 0.526815C5.71955 0.469605 5.81029 0.426549 5.90792 0.400105C6.09466 0.349136 6.28399 0.304766 6.47591 0.266995C6.57559 0.247108 6.67876 0.244648 6.77952 0.259754C6.88028 0.274861 6.97666 0.307238 7.06315 0.355036C7.14964 0.402834 7.22455 0.465116 7.28359 0.538323C7.34264 0.611529 7.38466 0.694225 7.40726 0.781686ZM9.00231 0.781686C9.04796 0.605197 9.17164 0.451836 9.34614 0.355321C9.52064 0.258805 9.73169 0.227035 9.93288 0.266995C13.3984 0.956435 15.9863 3.67461 15.9863 6.92385C15.9863 10.6939 12.5021 13.75 8.20556 13.75C4.50117 13.75 1.40289 11.4803 0.617042 8.43994C0.576706 8.26518 0.615915 8.08351 0.726285 7.93378C0.836654 7.78405 1.00942 7.67816 1.20764 7.63874C1.40585 7.59932 1.61378 7.62952 1.78695 7.72286C1.96012 7.8162 2.08478 7.96529 2.13428 8.13823C2.38187 9.08962 2.91554 9.96543 3.67976 10.6745C4.44398 11.3836 5.41083 11.9001 6.47971 12.1702C7.54859 12.4404 8.68046 12.4543 9.75754 12.2105C10.8346 11.9667 11.8176 11.4742 12.6041 10.7841C13.3907 10.0941 13.9521 9.23174 14.2299 8.28679C14.5078 7.34185 14.4919 6.34885 14.184 5.4111C13.8761 4.47335 13.2874 3.62512 12.4792 2.95465C11.6709 2.28419 10.6726 1.81599 9.5882 1.59878C9.387 1.55858 9.21225 1.44991 9.10238 1.29668C8.9925 1.14345 8.95651 0.9582 9.00231 0.781686ZM4.0141 1.95442C4.08368 2.02015 4.13782 2.09726 4.17341 2.18136C4.209 2.26546 4.22534 2.35488 4.22151 2.44453C4.21768 2.53417 4.19375 2.62227 4.15109 2.70379C4.10842 2.78532 4.04786 2.85866 3.97286 2.91964C3.85771 3.01293 3.74696 3.10986 3.64062 3.21043C3.49928 3.33946 3.30583 3.41463 3.10194 3.41976C2.89804 3.42489 2.7 3.35957 2.55046 3.23786C2.40092 3.11615 2.31184 2.94779 2.30239 2.76903C2.29295 2.59026 2.3639 2.41539 2.49997 2.28207C2.63225 2.15647 2.77022 2.03519 2.91391 1.91824C2.98883 1.85719 3.07673 1.8097 3.17258 1.77848C3.26844 1.74725 3.37037 1.73291 3.47255 1.73627C3.57473 1.73963 3.67515 1.76063 3.76807 1.79806C3.861 1.83549 3.9446 1.88862 4.0141 1.95442ZM8.20479 2.82817C8.41114 2.82817 8.60905 2.90008 8.75497 3.0281C8.90088 3.15611 8.98286 3.32974 8.98286 3.51078V6.64125L11.0891 8.48909C11.2308 8.61783 11.3093 8.79026 11.3075 8.96924C11.3057 9.14822 11.2239 9.31943 11.0796 9.44599C10.9354 9.57255 10.7402 9.64434 10.5362 9.6459C10.3322 9.64745 10.1356 9.57865 9.9889 9.45431L7.65469 7.40646C7.50876 7.27848 7.42676 7.10488 7.42672 6.92385V3.51078C7.42672 3.32974 7.50869 3.15611 7.65461 3.0281C7.80052 2.90008 7.99843 2.82817 8.20479 2.82817ZM1.74135 4.45825C1.93851 4.51159 2.10345 4.63144 2.1999 4.79145C2.29634 4.95147 2.3164 5.13853 2.25566 5.31152C2.20951 5.44279 2.16902 5.57553 2.13428 5.70948C2.08478 5.88242 1.96012 6.03151 1.78695 6.12485C1.61378 6.21819 1.40585 6.24838 1.20764 6.20897C1.00942 6.16955 0.836654 6.06365 0.726285 5.91393C0.615915 5.7642 0.576706 5.58253 0.617042 5.40777C0.660614 5.23939 0.711189 5.07329 0.768766 4.90946C0.829564 4.73649 0.966179 4.59179 1.14857 4.50717C1.33095 4.42256 1.54418 4.40496 1.74135 4.45825Z" fill="#333333"/>
</svg>
